G75*
%MOIN*%
%OFA0B0*%
%FSLAX24Y24*%
%IPPOS*%
%LPD*%
%AMOC8*
5,1,8,0,0,1.08239X$1,22.5*
%
%ADD10C,0.0560*%
%ADD11C,0.0740*%
%ADD12OC8,0.0740*%
%ADD13C,0.0080*%
%ADD14C,0.0400*%
D10*
X021966Y006313D02*
X022526Y006313D01*
X022526Y007313D02*
X021966Y007313D01*
X021966Y008313D02*
X022526Y008313D01*
D11*
X022246Y009763D03*
X022246Y010763D03*
X010696Y010413D03*
X009696Y010413D03*
X009696Y009413D03*
X010696Y009413D03*
X010696Y008413D03*
X009696Y008413D03*
X004966Y005743D03*
X003966Y005743D03*
X002966Y005743D03*
X001966Y005743D03*
X001966Y004743D03*
X002966Y004743D03*
X003966Y004743D03*
X004966Y004743D03*
X003896Y002523D03*
X002896Y002523D03*
X009696Y011413D03*
X010696Y011413D03*
X022246Y004413D03*
X022246Y003413D03*
X022246Y002413D03*
X022246Y001413D03*
D12*
X006506Y008833D03*
X005506Y008833D03*
X004506Y008833D03*
X003506Y008833D03*
X002506Y008833D03*
X002506Y009833D03*
X003506Y009833D03*
X004506Y009833D03*
X005506Y009833D03*
X006506Y009833D03*
D13*
X000366Y012289D02*
X000366Y000683D01*
X024146Y000683D01*
X024146Y012289D01*
X014216Y012289D01*
X015212Y011293D01*
X015212Y011293D01*
X015306Y011200D01*
X015306Y010427D01*
X015212Y010333D01*
X014657Y009778D01*
X014666Y009757D01*
X014666Y009630D01*
X014626Y009533D01*
X019440Y009533D01*
X019626Y009720D01*
X019626Y010880D01*
X019720Y010973D01*
X019786Y011040D01*
X019880Y011133D01*
X021772Y011133D01*
X021848Y011058D01*
X021968Y011179D01*
X022149Y011253D01*
X022343Y011253D01*
X022524Y011179D01*
X022661Y011041D01*
X022736Y010861D01*
X022736Y010666D01*
X022661Y010486D01*
X022524Y010348D01*
X022343Y010273D01*
X022149Y010273D01*
X021968Y010348D01*
X021866Y010450D01*
X021866Y010076D01*
X021968Y010179D01*
X022149Y010253D01*
X022343Y010253D01*
X022524Y010179D01*
X022661Y010041D01*
X022736Y009861D01*
X022736Y009666D01*
X022661Y009486D01*
X022524Y009348D01*
X022343Y009273D01*
X022149Y009273D01*
X022038Y009319D01*
X021866Y009147D01*
X021866Y009147D01*
X021772Y009053D01*
X021772Y009053D01*
X021057Y008338D01*
X021066Y008317D01*
X021066Y008190D01*
X021017Y008072D01*
X020927Y007982D01*
X020810Y007933D01*
X020682Y007933D01*
X020565Y007982D01*
X020475Y008072D01*
X020426Y008190D01*
X020426Y008317D01*
X020475Y008435D01*
X020565Y008525D01*
X020682Y008573D01*
X020810Y008573D01*
X020831Y008564D01*
X021546Y009280D01*
X021546Y010813D01*
X020386Y010813D01*
X020426Y010717D01*
X020426Y010590D01*
X020377Y010472D01*
X020287Y010382D01*
X020266Y010373D01*
X020266Y007670D01*
X020402Y007533D01*
X021624Y007533D01*
X021627Y007540D01*
X021739Y007652D01*
X021886Y007713D01*
X022606Y007713D01*
X022753Y007652D01*
X022865Y007540D01*
X022926Y007393D01*
X022926Y007234D01*
X022865Y007087D01*
X022753Y006974D01*
X022606Y006913D01*
X021886Y006913D01*
X021739Y006974D01*
X021627Y007087D01*
X021574Y007213D01*
X020270Y007213D01*
X020040Y007443D01*
X019946Y007537D01*
X019946Y010373D01*
X019946Y010373D01*
X019946Y009587D01*
X019666Y009307D01*
X019572Y009213D01*
X015106Y009213D01*
X015146Y009117D01*
X015146Y008990D01*
X015097Y008872D01*
X019946Y008872D01*
X019946Y008950D02*
X015130Y008950D01*
X015146Y009029D02*
X019946Y009029D01*
X019946Y009107D02*
X015146Y009107D01*
X015117Y009186D02*
X019946Y009186D01*
X019946Y009264D02*
X019623Y009264D01*
X019702Y009343D02*
X019946Y009343D01*
X019946Y009421D02*
X019780Y009421D01*
X019859Y009500D02*
X019946Y009500D01*
X019937Y009578D02*
X019946Y009578D01*
X019946Y009657D02*
X019946Y009657D01*
X019946Y009735D02*
X019946Y009735D01*
X019946Y009814D02*
X019946Y009814D01*
X019946Y009892D02*
X019946Y009892D01*
X019946Y009971D02*
X019946Y009971D01*
X019946Y010049D02*
X019946Y010049D01*
X019946Y010128D02*
X019946Y010128D01*
X019946Y010206D02*
X019946Y010206D01*
X019946Y010285D02*
X019946Y010285D01*
X019946Y010363D02*
X019946Y010363D01*
X019626Y010363D02*
X015242Y010363D01*
X015306Y010442D02*
X019626Y010442D01*
X019626Y010520D02*
X015306Y010520D01*
X015306Y010599D02*
X019626Y010599D01*
X019626Y010677D02*
X015306Y010677D01*
X015306Y010756D02*
X019626Y010756D01*
X019626Y010834D02*
X015306Y010834D01*
X015306Y010913D02*
X019659Y010913D01*
X019738Y010991D02*
X015306Y010991D01*
X015306Y011070D02*
X019816Y011070D01*
X019946Y010973D02*
X021706Y010973D01*
X021706Y009213D01*
X020746Y008253D01*
X021066Y008244D02*
X021566Y008244D01*
X021566Y008234D02*
X021627Y008087D01*
X021023Y008087D01*
X021056Y008165D02*
X021594Y008165D01*
X021566Y008234D02*
X021566Y008393D01*
X021627Y008540D01*
X021739Y008652D01*
X021886Y008713D01*
X022606Y008713D01*
X022753Y008652D01*
X022865Y008540D01*
X022926Y008393D01*
X022926Y008234D01*
X022865Y008087D01*
X024146Y008087D01*
X024146Y008165D02*
X022898Y008165D01*
X022926Y008244D02*
X024146Y008244D01*
X024146Y008322D02*
X022926Y008322D01*
X022923Y008401D02*
X024146Y008401D01*
X024146Y008479D02*
X022890Y008479D01*
X022847Y008558D02*
X024146Y008558D01*
X024146Y008636D02*
X022769Y008636D01*
X022865Y008087D02*
X022753Y007974D01*
X022606Y007913D01*
X021886Y007913D01*
X021739Y007974D01*
X021627Y008087D01*
X021705Y008008D02*
X020954Y008008D01*
X020538Y008008D02*
X020266Y008008D01*
X020266Y007930D02*
X021846Y007930D01*
X021841Y007694D02*
X020266Y007694D01*
X020266Y007773D02*
X024146Y007773D01*
X024146Y007851D02*
X020266Y007851D01*
X020266Y008087D02*
X020469Y008087D01*
X020436Y008165D02*
X020266Y008165D01*
X020266Y008244D02*
X020426Y008244D01*
X020428Y008322D02*
X020266Y008322D01*
X020266Y008401D02*
X020461Y008401D01*
X020520Y008479D02*
X020266Y008479D01*
X020266Y008558D02*
X020645Y008558D01*
X020903Y008636D02*
X020266Y008636D01*
X020266Y008715D02*
X020981Y008715D01*
X021060Y008793D02*
X020266Y008793D01*
X020266Y008872D02*
X021138Y008872D01*
X021217Y008950D02*
X020266Y008950D01*
X020266Y009029D02*
X021295Y009029D01*
X021374Y009107D02*
X020266Y009107D01*
X020266Y009186D02*
X021452Y009186D01*
X021531Y009264D02*
X020266Y009264D01*
X020266Y009343D02*
X021546Y009343D01*
X021546Y009421D02*
X020266Y009421D01*
X020266Y009500D02*
X021546Y009500D01*
X021546Y009578D02*
X020266Y009578D01*
X020266Y009657D02*
X021546Y009657D01*
X021546Y009735D02*
X020266Y009735D01*
X020266Y009814D02*
X021546Y009814D01*
X021546Y009892D02*
X020266Y009892D01*
X020266Y009971D02*
X021546Y009971D01*
X021546Y010049D02*
X020266Y010049D01*
X020266Y010128D02*
X021546Y010128D01*
X021546Y010206D02*
X020266Y010206D01*
X020266Y010285D02*
X021546Y010285D01*
X021546Y010363D02*
X020266Y010363D01*
X020347Y010442D02*
X021546Y010442D01*
X021546Y010520D02*
X020397Y010520D01*
X020426Y010599D02*
X021546Y010599D01*
X021546Y010677D02*
X020426Y010677D01*
X020410Y010756D02*
X021546Y010756D01*
X021866Y010442D02*
X021874Y010442D01*
X021866Y010363D02*
X021953Y010363D01*
X021866Y010285D02*
X022121Y010285D01*
X022035Y010206D02*
X021866Y010206D01*
X021866Y010128D02*
X021918Y010128D01*
X022371Y010285D02*
X024146Y010285D01*
X024146Y010363D02*
X022539Y010363D01*
X022618Y010442D02*
X024146Y010442D01*
X024146Y010520D02*
X022676Y010520D01*
X022708Y010599D02*
X024146Y010599D01*
X024146Y010677D02*
X022736Y010677D01*
X022736Y010756D02*
X024146Y010756D01*
X024146Y010834D02*
X022736Y010834D01*
X022714Y010913D02*
X024146Y010913D01*
X024146Y010991D02*
X022682Y010991D01*
X022632Y011070D02*
X024146Y011070D01*
X024146Y011148D02*
X022554Y011148D01*
X022407Y011227D02*
X024146Y011227D01*
X024146Y011305D02*
X015200Y011305D01*
X015279Y011227D02*
X022085Y011227D01*
X021938Y011148D02*
X015306Y011148D01*
X015146Y011133D02*
X014026Y012253D01*
X010476Y012253D01*
X010186Y011963D01*
X010186Y010893D01*
X009706Y010413D01*
X009696Y010413D01*
X010150Y010599D02*
X010242Y010599D01*
X010210Y010520D02*
X010182Y010520D01*
X010186Y010511D02*
X010140Y010621D01*
X010252Y010733D01*
X010252Y010733D01*
X010346Y010827D01*
X010346Y011070D01*
X010346Y011070D01*
X010418Y010998D01*
X010599Y010923D01*
X010793Y010923D01*
X010974Y010998D01*
X011111Y011136D01*
X011177Y011293D01*
X011666Y011293D01*
X011626Y011197D01*
X011626Y011070D01*
X011046Y011070D01*
X011117Y011148D02*
X011626Y011148D01*
X011626Y011070D02*
X011635Y011048D01*
X011160Y010574D01*
X011111Y010691D01*
X010974Y010829D01*
X010793Y010903D01*
X010599Y010903D01*
X010418Y010829D01*
X010281Y010691D01*
X010206Y010511D01*
X010206Y010316D01*
X010281Y010136D01*
X010418Y009998D01*
X010599Y009923D01*
X010793Y009923D01*
X010974Y009998D01*
X011111Y010136D01*
X011127Y010173D01*
X011212Y010173D01*
X011306Y010267D01*
X011861Y010822D01*
X011882Y010813D01*
X012010Y010813D01*
X012127Y010862D01*
X012217Y010952D01*
X012266Y011070D01*
X013033Y011070D01*
X013035Y011075D02*
X012986Y010957D01*
X012986Y010830D01*
X012995Y010808D01*
X011800Y009613D01*
X011144Y009613D01*
X011111Y009691D01*
X010974Y009829D01*
X010793Y009903D01*
X010599Y009903D01*
X010418Y009829D01*
X010281Y009691D01*
X010206Y009511D01*
X010206Y009316D01*
X010281Y009136D01*
X010418Y008998D01*
X010599Y008923D01*
X010793Y008923D01*
X010974Y008998D01*
X011111Y009136D01*
X011177Y009293D01*
X011932Y009293D01*
X012026Y009387D01*
X013221Y010582D01*
X013242Y010573D01*
X013370Y010573D01*
X013487Y010622D01*
X013577Y010712D01*
X013626Y010830D01*
X013626Y010957D01*
X013577Y011075D01*
X013487Y011165D01*
X013370Y011213D01*
X013242Y011213D01*
X013125Y011165D01*
X013035Y011075D01*
X013000Y010991D02*
X012234Y010991D01*
X012266Y011070D02*
X012266Y011197D01*
X012226Y011293D01*
X013586Y011293D01*
X013595Y011272D01*
X013685Y011182D01*
X013802Y011133D01*
X013930Y011133D01*
X014047Y011182D01*
X014137Y011272D01*
X014185Y011388D01*
X014381Y011192D01*
X014330Y011213D01*
X014202Y011213D01*
X014085Y011165D01*
X013995Y011075D01*
X013946Y010957D01*
X013946Y010830D01*
X013955Y010808D01*
X012298Y009152D01*
X012297Y009155D01*
X012207Y009245D01*
X012090Y009293D01*
X011962Y009293D01*
X011845Y009245D01*
X011755Y009155D01*
X011706Y009037D01*
X011706Y008910D01*
X011755Y008792D01*
X011845Y008702D01*
X011962Y008653D01*
X012090Y008653D01*
X012207Y008702D01*
X012297Y008792D01*
X012306Y008813D01*
X012412Y008813D01*
X012506Y008907D01*
X014181Y010582D01*
X014202Y010573D01*
X014330Y010573D01*
X014447Y010622D01*
X014537Y010712D01*
X014566Y010781D01*
X014645Y010702D01*
X014762Y010653D01*
X014890Y010653D01*
X014986Y010693D01*
X014986Y010560D01*
X014431Y010004D01*
X014410Y010013D01*
X014282Y010013D01*
X014165Y009965D01*
X014075Y009875D01*
X014026Y009757D01*
X014026Y009630D01*
X014033Y009613D01*
X013240Y009613D01*
X013146Y009520D01*
X012986Y009360D01*
X012986Y009200D01*
X012059Y008273D01*
X012047Y008285D01*
X011930Y008333D01*
X011802Y008333D01*
X011685Y008285D01*
X011595Y008195D01*
X011546Y008077D01*
X011546Y007950D01*
X011595Y007832D01*
X011685Y007742D01*
X011800Y007694D01*
X006812Y007694D01*
X006810Y007693D02*
X006927Y007742D01*
X007017Y007832D01*
X007066Y007950D01*
X007066Y008077D01*
X007017Y008195D01*
X006927Y008285D01*
X006810Y008333D01*
X006682Y008333D01*
X006565Y008285D01*
X006475Y008195D01*
X006466Y008173D01*
X003372Y008173D01*
X002956Y008590D01*
X002996Y008630D01*
X002996Y009036D01*
X002709Y009323D01*
X002303Y009323D01*
X002016Y009036D01*
X002016Y008630D01*
X002303Y008343D01*
X002709Y008343D01*
X002729Y008364D01*
X003146Y007947D01*
X003240Y007853D01*
X006466Y007853D01*
X006475Y007832D01*
X006565Y007742D01*
X006682Y007693D01*
X006810Y007693D01*
X006680Y007694D02*
X000366Y007694D01*
X000366Y007616D02*
X010536Y007616D01*
X010565Y007645D02*
X010475Y007555D01*
X010426Y007437D01*
X010426Y007310D01*
X010475Y007192D01*
X010565Y007102D01*
X010682Y007053D01*
X010810Y007053D01*
X010927Y007102D01*
X011017Y007192D01*
X011066Y007310D01*
X011066Y007373D01*
X011266Y007373D01*
X011226Y007277D01*
X011226Y007150D01*
X011235Y007128D01*
X010600Y006493D01*
X005990Y006493D01*
X005896Y006400D01*
X005896Y006400D01*
X005640Y006143D01*
X005640Y006143D01*
X005546Y006050D01*
X005546Y005680D01*
X005451Y005584D01*
X005463Y005624D01*
X005476Y005703D01*
X005476Y005703D01*
X005006Y005703D01*
X005006Y005233D01*
X005006Y005233D01*
X005085Y005246D01*
X005125Y005259D01*
X005089Y005223D01*
X005063Y005233D01*
X004869Y005233D01*
X004688Y005159D01*
X004551Y005021D01*
X004476Y004841D01*
X004476Y004646D01*
X004551Y004466D01*
X004603Y004413D01*
X004329Y004413D01*
X004381Y004466D01*
X004456Y004646D01*
X004456Y004841D01*
X004381Y005021D01*
X004244Y005159D01*
X004063Y005233D01*
X003869Y005233D01*
X003688Y005159D01*
X003551Y005021D01*
X003476Y004841D01*
X003476Y004646D01*
X003551Y004466D01*
X003603Y004413D01*
X003329Y004413D01*
X003381Y004466D01*
X003456Y004646D01*
X003456Y004841D01*
X003381Y005021D01*
X003244Y005159D01*
X003063Y005233D01*
X002869Y005233D01*
X002688Y005159D01*
X002551Y005021D01*
X002476Y004841D01*
X002476Y004646D01*
X002551Y004466D01*
X002688Y004328D01*
X002826Y004271D01*
X002826Y004187D01*
X002920Y004093D01*
X005292Y004093D01*
X005386Y004187D01*
X005692Y004493D01*
X005786Y004587D01*
X005786Y005007D01*
X005992Y005213D01*
X009346Y005213D01*
X009306Y005117D01*
X009306Y004990D01*
X009355Y004872D01*
X009445Y004782D01*
X009562Y004733D01*
X009690Y004733D01*
X009711Y004742D01*
X010746Y003707D01*
X010746Y003707D01*
X010840Y003613D01*
X011592Y003613D01*
X011686Y003707D01*
X011786Y003807D01*
X011786Y003360D01*
X011080Y002653D01*
X006146Y002653D01*
X006137Y002675D01*
X006047Y002765D01*
X005930Y002813D01*
X005802Y002813D01*
X005685Y002765D01*
X005595Y002675D01*
X005546Y002557D01*
X005546Y002430D01*
X005595Y002312D01*
X005685Y002222D01*
X005802Y002173D01*
X005930Y002173D01*
X006047Y002222D01*
X006137Y002312D01*
X006146Y002333D01*
X008866Y002333D01*
X008826Y002237D01*
X008826Y002110D01*
X008866Y002013D01*
X003066Y002013D01*
X003066Y002063D01*
X003174Y002108D01*
X003311Y002246D01*
X003386Y002426D01*
X003386Y002621D01*
X003311Y002801D01*
X003174Y002939D01*
X002993Y003013D01*
X002799Y003013D01*
X002618Y002939D01*
X002481Y002801D01*
X002406Y002621D01*
X002406Y002426D01*
X002481Y002246D01*
X002618Y002108D01*
X002746Y002055D01*
X002746Y001787D01*
X002840Y001693D01*
X011292Y001693D01*
X011386Y001787D01*
X015781Y006182D01*
X015802Y006173D01*
X015930Y006173D01*
X016047Y006222D01*
X016137Y006312D01*
X016186Y006430D01*
X016186Y006557D01*
X016137Y006675D01*
X016047Y006765D01*
X015930Y006813D01*
X015852Y006813D01*
X015861Y006822D01*
X015882Y006813D01*
X016010Y006813D01*
X016127Y006862D01*
X016217Y006952D01*
X016266Y007070D01*
X016266Y007197D01*
X016217Y007315D01*
X016127Y007405D01*
X016010Y007453D01*
X015882Y007453D01*
X015765Y007405D01*
X015675Y007315D01*
X015626Y007197D01*
X015626Y007070D01*
X015635Y007048D01*
X012106Y003520D01*
X012106Y004267D01*
X012667Y004828D01*
X012715Y004712D01*
X012805Y004622D01*
X012922Y004573D01*
X013050Y004573D01*
X013167Y004622D01*
X013257Y004712D01*
X013306Y004830D01*
X013306Y004957D01*
X013297Y004978D01*
X014421Y006102D01*
X014442Y006093D01*
X014570Y006093D01*
X014687Y006142D01*
X014777Y006232D01*
X014826Y006350D01*
X014826Y006477D01*
X014777Y006595D01*
X014687Y006685D01*
X014572Y006732D01*
X015141Y007302D01*
X015162Y007293D01*
X015290Y007293D01*
X015407Y007342D01*
X015497Y007432D01*
X015546Y007550D01*
X015546Y007677D01*
X015498Y007793D01*
X015567Y007822D01*
X015657Y007912D01*
X015706Y008030D01*
X015706Y008157D01*
X015657Y008275D01*
X015567Y008365D01*
X015450Y008413D01*
X015322Y008413D01*
X015205Y008365D01*
X015115Y008275D01*
X015106Y008253D01*
X014252Y008253D01*
X014741Y008742D01*
X014762Y008733D01*
X014890Y008733D01*
X015007Y008782D01*
X015097Y008872D01*
X015019Y008793D02*
X019946Y008793D01*
X019946Y008715D02*
X014714Y008715D01*
X014635Y008636D02*
X019946Y008636D01*
X019946Y008558D02*
X014557Y008558D01*
X014478Y008479D02*
X019946Y008479D01*
X019946Y008401D02*
X015480Y008401D01*
X015609Y008322D02*
X019946Y008322D01*
X019946Y008244D02*
X015670Y008244D01*
X015703Y008165D02*
X019946Y008165D01*
X019946Y008087D02*
X015706Y008087D01*
X015697Y008008D02*
X019946Y008008D01*
X019946Y007930D02*
X015665Y007930D01*
X015597Y007851D02*
X019946Y007851D01*
X019946Y007773D02*
X015506Y007773D01*
X015539Y007694D02*
X019946Y007694D01*
X019946Y007616D02*
X015546Y007616D01*
X015541Y007537D02*
X019946Y007537D01*
X020024Y007459D02*
X015508Y007459D01*
X015446Y007380D02*
X015741Y007380D01*
X015669Y007302D02*
X015310Y007302D01*
X015142Y007302D02*
X015141Y007302D01*
X015062Y007223D02*
X015637Y007223D01*
X015626Y007145D02*
X014984Y007145D01*
X014905Y007066D02*
X015627Y007066D01*
X015574Y006988D02*
X014827Y006988D01*
X014748Y006909D02*
X015496Y006909D01*
X015417Y006831D02*
X014670Y006831D01*
X014591Y006752D02*
X015339Y006752D01*
X015260Y006674D02*
X014698Y006674D01*
X014776Y006595D02*
X015182Y006595D01*
X015103Y006517D02*
X014809Y006517D01*
X014826Y006438D02*
X015025Y006438D01*
X014946Y006360D02*
X014826Y006360D01*
X014798Y006281D02*
X014868Y006281D01*
X014789Y006203D02*
X014748Y006203D01*
X014711Y006124D02*
X014645Y006124D01*
X014632Y006046D02*
X014365Y006046D01*
X014286Y005967D02*
X014554Y005967D01*
X014475Y005889D02*
X014208Y005889D01*
X014129Y005810D02*
X014397Y005810D01*
X014318Y005732D02*
X014051Y005732D01*
X013972Y005653D02*
X014240Y005653D01*
X014161Y005575D02*
X013894Y005575D01*
X013815Y005496D02*
X014083Y005496D01*
X014004Y005418D02*
X013737Y005418D01*
X013658Y005339D02*
X013926Y005339D01*
X013847Y005261D02*
X013580Y005261D01*
X013501Y005182D02*
X013769Y005182D01*
X013690Y005104D02*
X013423Y005104D01*
X013344Y005025D02*
X013612Y005025D01*
X013533Y004947D02*
X013306Y004947D01*
X013306Y004868D02*
X013455Y004868D01*
X013376Y004790D02*
X013290Y004790D01*
X013298Y004711D02*
X013257Y004711D01*
X013219Y004633D02*
X013178Y004633D01*
X013141Y004554D02*
X012393Y004554D01*
X012315Y004476D02*
X013062Y004476D01*
X012984Y004397D02*
X012236Y004397D01*
X012158Y004319D02*
X012905Y004319D01*
X012827Y004240D02*
X012106Y004240D01*
X012106Y004162D02*
X012748Y004162D01*
X012670Y004083D02*
X012106Y004083D01*
X012106Y004005D02*
X012591Y004005D01*
X012513Y003926D02*
X012106Y003926D01*
X012106Y003848D02*
X012434Y003848D01*
X012356Y003769D02*
X012106Y003769D01*
X012106Y003691D02*
X012277Y003691D01*
X012199Y003612D02*
X012106Y003612D01*
X012106Y003534D02*
X012120Y003534D01*
X011786Y003534D02*
X000366Y003534D01*
X000366Y003612D02*
X011786Y003612D01*
X011786Y003691D02*
X011670Y003691D01*
X011748Y003769D02*
X011786Y003769D01*
X011526Y003773D02*
X010906Y003773D01*
X009626Y005053D01*
X009333Y005182D02*
X005961Y005182D01*
X005883Y005104D02*
X009306Y005104D01*
X009306Y005025D02*
X005804Y005025D01*
X005786Y004947D02*
X009324Y004947D01*
X009358Y004868D02*
X005786Y004868D01*
X005786Y004790D02*
X009437Y004790D01*
X009742Y004711D02*
X005786Y004711D01*
X005786Y004633D02*
X009820Y004633D01*
X009899Y004554D02*
X005753Y004554D01*
X005675Y004476D02*
X009977Y004476D01*
X010056Y004397D02*
X005596Y004397D01*
X005518Y004319D02*
X010134Y004319D01*
X010213Y004240D02*
X005439Y004240D01*
X005361Y004162D02*
X010291Y004162D01*
X010370Y004083D02*
X000366Y004083D01*
X000366Y004005D02*
X010448Y004005D01*
X010527Y003926D02*
X000366Y003926D01*
X000366Y003848D02*
X010605Y003848D01*
X010684Y003769D02*
X000366Y003769D01*
X000366Y003691D02*
X010762Y003691D01*
X011526Y003773D02*
X011786Y004033D01*
X011786Y004733D01*
X011946Y004893D01*
X011626Y004573D02*
X011626Y005693D01*
X010746Y005373D02*
X005926Y005373D01*
X005626Y005073D01*
X005626Y004653D01*
X005226Y004253D01*
X002986Y004253D01*
X002986Y004733D01*
X002966Y004743D01*
X002619Y004397D02*
X002313Y004397D01*
X002381Y004466D02*
X002456Y004646D01*
X002456Y004841D01*
X002381Y005021D01*
X002244Y005159D01*
X002063Y005233D01*
X001869Y005233D01*
X001857Y005228D01*
X001807Y005279D01*
X001869Y005253D01*
X002063Y005253D01*
X002244Y005328D01*
X002381Y005466D01*
X002456Y005646D01*
X002456Y005841D01*
X002381Y006021D01*
X002244Y006159D01*
X002063Y006233D01*
X001869Y006233D01*
X001688Y006159D01*
X001606Y006076D01*
X001606Y006637D01*
X001702Y006733D01*
X005026Y006733D01*
X005035Y006712D01*
X005125Y006622D01*
X005242Y006573D01*
X005370Y006573D01*
X005487Y006622D01*
X005577Y006712D01*
X005626Y006830D01*
X005626Y006957D01*
X005577Y007075D01*
X005487Y007165D01*
X005370Y007213D01*
X005242Y007213D01*
X005125Y007165D01*
X005035Y007075D01*
X005026Y007053D01*
X001570Y007053D01*
X001476Y006960D01*
X001476Y006960D01*
X001286Y006770D01*
X001286Y005347D01*
X001581Y005052D01*
X001551Y005021D01*
X001476Y004841D01*
X001476Y004646D01*
X001551Y004466D01*
X001688Y004328D01*
X001869Y004253D01*
X002063Y004253D01*
X002244Y004328D01*
X002381Y004466D01*
X002386Y004476D02*
X002546Y004476D01*
X002514Y004554D02*
X002418Y004554D01*
X002451Y004633D02*
X002481Y004633D01*
X002476Y004711D02*
X002456Y004711D01*
X002456Y004790D02*
X002476Y004790D01*
X002487Y004868D02*
X002445Y004868D01*
X002412Y004947D02*
X002520Y004947D01*
X002555Y005025D02*
X002377Y005025D01*
X002298Y005104D02*
X002634Y005104D01*
X002746Y005182D02*
X002186Y005182D01*
X002082Y005261D02*
X002850Y005261D01*
X002869Y005253D02*
X003063Y005253D01*
X003244Y005328D01*
X003381Y005466D01*
X003456Y005646D01*
X003456Y005841D01*
X003381Y006021D01*
X003244Y006159D01*
X003063Y006233D01*
X002869Y006233D01*
X002688Y006159D01*
X002551Y006021D01*
X002476Y005841D01*
X002476Y005646D01*
X002551Y005466D01*
X002688Y005328D01*
X002869Y005253D01*
X002677Y005339D02*
X002255Y005339D01*
X002334Y005418D02*
X002598Y005418D01*
X002538Y005496D02*
X002394Y005496D01*
X002427Y005575D02*
X002505Y005575D01*
X002476Y005653D02*
X002456Y005653D01*
X002456Y005732D02*
X002476Y005732D01*
X002476Y005810D02*
X002456Y005810D01*
X002436Y005889D02*
X002496Y005889D01*
X002528Y005967D02*
X002404Y005967D01*
X002356Y006046D02*
X002576Y006046D01*
X002654Y006124D02*
X002278Y006124D01*
X002137Y006203D02*
X002795Y006203D01*
X003137Y006203D02*
X003795Y006203D01*
X003869Y006233D02*
X003688Y006159D01*
X003551Y006021D01*
X003476Y005841D01*
X003476Y005646D01*
X003551Y005466D01*
X003688Y005328D01*
X003869Y005253D01*
X004063Y005253D01*
X004244Y005328D01*
X004381Y005466D01*
X004456Y005646D01*
X004456Y005841D01*
X004381Y006021D01*
X004244Y006159D01*
X004063Y006233D01*
X003869Y006233D01*
X003654Y006124D02*
X003278Y006124D01*
X003356Y006046D02*
X003576Y006046D01*
X003528Y005967D02*
X003404Y005967D01*
X003436Y005889D02*
X003496Y005889D01*
X003476Y005810D02*
X003456Y005810D01*
X003456Y005732D02*
X003476Y005732D01*
X003476Y005653D02*
X003456Y005653D01*
X003427Y005575D02*
X003505Y005575D01*
X003538Y005496D02*
X003394Y005496D01*
X003334Y005418D02*
X003598Y005418D01*
X003677Y005339D02*
X003255Y005339D01*
X003186Y005182D02*
X003746Y005182D01*
X003850Y005261D02*
X003082Y005261D01*
X003298Y005104D02*
X003634Y005104D01*
X003555Y005025D02*
X003377Y005025D01*
X003412Y004947D02*
X003520Y004947D01*
X003487Y004868D02*
X003445Y004868D01*
X003456Y004790D02*
X003476Y004790D01*
X003476Y004711D02*
X003456Y004711D01*
X003451Y004633D02*
X003481Y004633D01*
X003514Y004554D02*
X003418Y004554D01*
X003386Y004476D02*
X003546Y004476D01*
X002826Y004240D02*
X000366Y004240D01*
X000366Y004162D02*
X002851Y004162D01*
X002710Y004319D02*
X002222Y004319D01*
X001710Y004319D02*
X000366Y004319D01*
X000366Y004397D02*
X001619Y004397D01*
X001546Y004476D02*
X000366Y004476D01*
X000366Y004554D02*
X001514Y004554D01*
X001481Y004633D02*
X000366Y004633D01*
X000366Y004711D02*
X001476Y004711D01*
X001476Y004790D02*
X000366Y004790D01*
X000366Y004868D02*
X001487Y004868D01*
X001520Y004947D02*
X000366Y004947D01*
X000366Y005025D02*
X001555Y005025D01*
X001529Y005104D02*
X000366Y005104D01*
X000366Y005182D02*
X001451Y005182D01*
X001372Y005261D02*
X000366Y005261D01*
X000366Y005339D02*
X001294Y005339D01*
X001286Y005418D02*
X000366Y005418D01*
X000366Y005496D02*
X001286Y005496D01*
X001286Y005575D02*
X000366Y005575D01*
X000366Y005653D02*
X001286Y005653D01*
X001286Y005732D02*
X000366Y005732D01*
X000366Y005810D02*
X001286Y005810D01*
X001286Y005889D02*
X000366Y005889D01*
X000366Y005967D02*
X001286Y005967D01*
X001286Y006046D02*
X000366Y006046D01*
X000366Y006124D02*
X001286Y006124D01*
X001286Y006203D02*
X000366Y006203D01*
X000366Y006281D02*
X001286Y006281D01*
X001286Y006360D02*
X000366Y006360D01*
X000366Y006438D02*
X001286Y006438D01*
X001286Y006517D02*
X000366Y006517D01*
X000366Y006595D02*
X001286Y006595D01*
X001286Y006674D02*
X000366Y006674D01*
X000366Y006752D02*
X001286Y006752D01*
X001347Y006831D02*
X000366Y006831D01*
X000366Y006909D02*
X001426Y006909D01*
X001504Y006988D02*
X000366Y006988D01*
X000366Y007066D02*
X005031Y007066D01*
X005105Y007145D02*
X000366Y007145D01*
X000366Y007223D02*
X010462Y007223D01*
X010429Y007302D02*
X000366Y007302D01*
X000366Y007380D02*
X010426Y007380D01*
X010435Y007459D02*
X000366Y007459D01*
X000366Y007537D02*
X010468Y007537D01*
X010565Y007645D02*
X010678Y007691D01*
X010680Y007693D01*
X011800Y007693D01*
X011800Y007694D01*
X011654Y007773D02*
X006958Y007773D01*
X007025Y007851D02*
X011587Y007851D01*
X011554Y007930D02*
X010809Y007930D01*
X010793Y007923D02*
X010974Y007998D01*
X011111Y008136D01*
X011186Y008316D01*
X011186Y008511D01*
X011111Y008691D01*
X010974Y008829D01*
X010793Y008903D01*
X010599Y008903D01*
X010418Y008829D01*
X010281Y008691D01*
X010206Y008511D01*
X010206Y008316D01*
X010281Y008136D01*
X010418Y007998D01*
X010599Y007923D01*
X010793Y007923D01*
X010906Y007853D02*
X007066Y007853D01*
X004986Y005773D01*
X004966Y005743D01*
X005006Y005732D02*
X005546Y005732D01*
X005546Y005810D02*
X005472Y005810D01*
X005476Y005783D02*
X005463Y005863D01*
X005439Y005939D01*
X005402Y006011D01*
X005355Y006075D01*
X005298Y006132D01*
X005233Y006179D01*
X005162Y006216D01*
X005085Y006241D01*
X005006Y006253D01*
X005006Y005783D01*
X005476Y005783D01*
X005476Y005783D01*
X005455Y005889D02*
X005546Y005889D01*
X005546Y005967D02*
X005424Y005967D01*
X005377Y006046D02*
X005546Y006046D01*
X005621Y006124D02*
X005306Y006124D01*
X005187Y006203D02*
X005699Y006203D01*
X005778Y006281D02*
X001606Y006281D01*
X001606Y006203D02*
X001795Y006203D01*
X001654Y006124D02*
X001606Y006124D01*
X001606Y006360D02*
X005856Y006360D01*
X005935Y006438D02*
X001606Y006438D01*
X001606Y006517D02*
X010623Y006517D01*
X010702Y006595D02*
X005423Y006595D01*
X005539Y006674D02*
X010780Y006674D01*
X010859Y006752D02*
X005594Y006752D01*
X005626Y006831D02*
X010937Y006831D01*
X011016Y006909D02*
X005626Y006909D01*
X005613Y006988D02*
X011094Y006988D01*
X011173Y007066D02*
X010841Y007066D01*
X010970Y007145D02*
X011228Y007145D01*
X011226Y007223D02*
X011030Y007223D01*
X011063Y007302D02*
X011236Y007302D01*
X011546Y007213D02*
X010666Y006333D01*
X006056Y006333D01*
X005706Y005983D01*
X005706Y005613D01*
X004986Y004893D01*
X004986Y004813D01*
X004966Y004743D01*
X004514Y004554D02*
X004418Y004554D01*
X004386Y004476D02*
X004546Y004476D01*
X004481Y004633D02*
X004451Y004633D01*
X004456Y004711D02*
X004476Y004711D01*
X004476Y004790D02*
X004456Y004790D01*
X004445Y004868D02*
X004487Y004868D01*
X004520Y004947D02*
X004412Y004947D01*
X004377Y005025D02*
X004555Y005025D01*
X004634Y005104D02*
X004298Y005104D01*
X004186Y005182D02*
X004746Y005182D01*
X004770Y005271D02*
X004847Y005246D01*
X004926Y005233D01*
X004926Y005703D01*
X005006Y005703D01*
X005006Y005783D01*
X004926Y005783D01*
X004926Y005703D01*
X004456Y005703D01*
X004469Y005624D01*
X004493Y005547D01*
X004530Y005476D01*
X004577Y005411D01*
X004634Y005354D01*
X004699Y005307D01*
X004770Y005271D01*
X004800Y005261D02*
X004082Y005261D01*
X004255Y005339D02*
X004654Y005339D01*
X004572Y005418D02*
X004334Y005418D01*
X004394Y005496D02*
X004519Y005496D01*
X004484Y005575D02*
X004427Y005575D01*
X004456Y005653D02*
X004464Y005653D01*
X004456Y005703D02*
X004456Y005703D01*
X004456Y005732D02*
X004926Y005732D01*
X004926Y005783D02*
X004456Y005783D01*
X004456Y005783D01*
X004469Y005863D01*
X004493Y005939D01*
X004530Y006011D01*
X004577Y006075D01*
X004634Y006132D01*
X004699Y006179D01*
X004770Y006216D01*
X004847Y006241D01*
X004926Y006253D01*
X004926Y006253D01*
X004926Y005783D01*
X004926Y005810D02*
X005006Y005810D01*
X005006Y005889D02*
X004926Y005889D01*
X004926Y005967D02*
X005006Y005967D01*
X005006Y006046D02*
X004926Y006046D01*
X004926Y006124D02*
X005006Y006124D01*
X005006Y006203D02*
X004926Y006203D01*
X005006Y006253D02*
X005006Y006253D01*
X004745Y006203D02*
X004137Y006203D01*
X004278Y006124D02*
X004626Y006124D01*
X004555Y006046D02*
X004356Y006046D01*
X004404Y005967D02*
X004508Y005967D01*
X004477Y005889D02*
X004436Y005889D01*
X004456Y005810D02*
X004460Y005810D01*
X004926Y005653D02*
X005006Y005653D01*
X005006Y005575D02*
X004926Y005575D01*
X004926Y005496D02*
X005006Y005496D01*
X005006Y005418D02*
X004926Y005418D01*
X004926Y005339D02*
X005006Y005339D01*
X005006Y005261D02*
X004926Y005261D01*
X004926Y005233D02*
X004926Y005233D01*
X005468Y005653D02*
X005520Y005653D01*
X006266Y005773D02*
X010586Y005773D01*
X012506Y007693D01*
X012506Y007933D01*
X013706Y007933D01*
X014826Y009053D01*
X014186Y009373D02*
X019506Y009373D01*
X019786Y009653D01*
X019786Y010813D01*
X019946Y010973D01*
X020106Y010653D02*
X020106Y007603D01*
X020336Y007373D01*
X022186Y007373D01*
X022246Y007313D01*
X022789Y007616D02*
X024146Y007616D01*
X024146Y007694D02*
X022651Y007694D01*
X022866Y007537D02*
X024146Y007537D01*
X024146Y007459D02*
X022899Y007459D01*
X022926Y007380D02*
X024146Y007380D01*
X024146Y007302D02*
X022926Y007302D01*
X022922Y007223D02*
X024146Y007223D01*
X024146Y007145D02*
X022889Y007145D01*
X022845Y007066D02*
X024146Y007066D01*
X024146Y006988D02*
X022766Y006988D01*
X022986Y007053D02*
X022986Y011193D01*
X022726Y011453D01*
X015306Y011453D01*
X015306Y009853D01*
X015146Y009693D01*
X014850Y009971D02*
X019626Y009971D01*
X019626Y010049D02*
X014928Y010049D01*
X015007Y010128D02*
X019626Y010128D01*
X019626Y010206D02*
X015085Y010206D01*
X015164Y010285D02*
X019626Y010285D01*
X019626Y009892D02*
X014771Y009892D01*
X014693Y009814D02*
X019626Y009814D01*
X019626Y009735D02*
X014666Y009735D01*
X014666Y009657D02*
X019563Y009657D01*
X019485Y009578D02*
X014645Y009578D01*
X014346Y009693D02*
X015146Y010493D01*
X015146Y011133D01*
X015122Y011384D02*
X024146Y011384D01*
X024146Y011462D02*
X015043Y011462D01*
X014965Y011541D02*
X024146Y011541D01*
X024146Y011619D02*
X014886Y011619D01*
X014808Y011698D02*
X024146Y011698D01*
X024146Y011776D02*
X014729Y011776D01*
X014651Y011855D02*
X024146Y011855D01*
X024146Y011933D02*
X014572Y011933D01*
X014494Y012012D02*
X024146Y012012D01*
X024146Y012090D02*
X014415Y012090D01*
X014337Y012169D02*
X024146Y012169D01*
X024146Y012247D02*
X014258Y012247D01*
X013866Y011933D02*
X014826Y010973D01*
X014948Y010677D02*
X014986Y010677D01*
X014986Y010599D02*
X014391Y010599D01*
X014503Y010677D02*
X014704Y010677D01*
X014591Y010756D02*
X014555Y010756D01*
X014266Y010893D02*
X012346Y008973D01*
X012026Y008973D01*
X011735Y009107D02*
X011083Y009107D01*
X011132Y009186D02*
X011786Y009186D01*
X011893Y009264D02*
X011165Y009264D01*
X011005Y009029D02*
X011706Y009029D01*
X011706Y008950D02*
X010859Y008950D01*
X010869Y008872D02*
X011722Y008872D01*
X011754Y008793D02*
X011009Y008793D01*
X011087Y008715D02*
X011832Y008715D01*
X012026Y008493D02*
X011226Y008493D01*
X011226Y008173D01*
X010906Y007853D01*
X010984Y008008D02*
X011546Y008008D01*
X011550Y008087D02*
X011063Y008087D01*
X011124Y008165D02*
X011583Y008165D01*
X011644Y008244D02*
X011156Y008244D01*
X011186Y008322D02*
X011776Y008322D01*
X011956Y008322D02*
X012109Y008322D01*
X012187Y008401D02*
X011186Y008401D01*
X011186Y008479D02*
X012266Y008479D01*
X012344Y008558D02*
X011166Y008558D01*
X011134Y008636D02*
X012423Y008636D01*
X012501Y008715D02*
X012220Y008715D01*
X012298Y008793D02*
X012580Y008793D01*
X012658Y008872D02*
X012471Y008872D01*
X012549Y008950D02*
X012737Y008950D01*
X012815Y009029D02*
X012628Y009029D01*
X012706Y009107D02*
X012894Y009107D01*
X012972Y009186D02*
X012785Y009186D01*
X012863Y009264D02*
X012986Y009264D01*
X012986Y009343D02*
X012942Y009343D01*
X013020Y009421D02*
X013048Y009421D01*
X013099Y009500D02*
X013126Y009500D01*
X013177Y009578D02*
X013205Y009578D01*
X013256Y009657D02*
X014026Y009657D01*
X014026Y009735D02*
X013334Y009735D01*
X013413Y009814D02*
X014050Y009814D01*
X014093Y009892D02*
X013491Y009892D01*
X013570Y009971D02*
X014180Y009971D01*
X014476Y010049D02*
X013648Y010049D01*
X013727Y010128D02*
X014554Y010128D01*
X014633Y010206D02*
X013805Y010206D01*
X013884Y010285D02*
X014711Y010285D01*
X014790Y010363D02*
X013962Y010363D01*
X014041Y010442D02*
X014868Y010442D01*
X014947Y010520D02*
X014119Y010520D01*
X013745Y010599D02*
X013431Y010599D01*
X013543Y010677D02*
X013824Y010677D01*
X013902Y010756D02*
X013595Y010756D01*
X013626Y010834D02*
X013946Y010834D01*
X013946Y010913D02*
X013626Y010913D01*
X013612Y010991D02*
X013960Y010991D01*
X013993Y011070D02*
X013579Y011070D01*
X013503Y011148D02*
X013766Y011148D01*
X013640Y011227D02*
X012254Y011227D01*
X012266Y011148D02*
X013109Y011148D01*
X012986Y010913D02*
X012178Y010913D01*
X012061Y010834D02*
X012986Y010834D01*
X012942Y010756D02*
X011795Y010756D01*
X011716Y010677D02*
X012864Y010677D01*
X012785Y010599D02*
X011638Y010599D01*
X011559Y010520D02*
X012707Y010520D01*
X012628Y010442D02*
X011481Y010442D01*
X011402Y010363D02*
X012550Y010363D01*
X012471Y010285D02*
X011324Y010285D01*
X011245Y010206D02*
X012393Y010206D01*
X012314Y010128D02*
X011104Y010128D01*
X011025Y010049D02*
X012236Y010049D01*
X012157Y009971D02*
X010908Y009971D01*
X010820Y009892D02*
X012079Y009892D01*
X012000Y009814D02*
X010988Y009814D01*
X011067Y009735D02*
X011922Y009735D01*
X011843Y009657D02*
X011125Y009657D01*
X010746Y009453D02*
X010696Y009413D01*
X010746Y009453D02*
X011866Y009453D01*
X013306Y010893D01*
X013159Y010520D02*
X013667Y010520D01*
X013588Y010442D02*
X013081Y010442D01*
X013002Y010363D02*
X013510Y010363D01*
X013431Y010285D02*
X012924Y010285D01*
X012845Y010206D02*
X013353Y010206D01*
X013274Y010128D02*
X012767Y010128D01*
X012688Y010049D02*
X013196Y010049D01*
X013117Y009971D02*
X012610Y009971D01*
X012531Y009892D02*
X013039Y009892D01*
X012960Y009814D02*
X012453Y009814D01*
X012374Y009735D02*
X012882Y009735D01*
X012803Y009657D02*
X012296Y009657D01*
X012217Y009578D02*
X012725Y009578D01*
X012646Y009500D02*
X012139Y009500D01*
X012060Y009421D02*
X012568Y009421D01*
X012489Y009343D02*
X011982Y009343D01*
X012159Y009264D02*
X012411Y009264D01*
X012332Y009186D02*
X012266Y009186D01*
X013146Y009133D02*
X013146Y009293D01*
X013306Y009453D01*
X014106Y009453D01*
X014186Y009373D01*
X013466Y009133D02*
X011866Y007533D01*
X010746Y007533D01*
X010746Y007373D01*
X010522Y007145D02*
X005507Y007145D01*
X005581Y007066D02*
X010651Y007066D01*
X010583Y007930D02*
X009809Y007930D01*
X009793Y007923D02*
X009974Y007998D01*
X010111Y008136D01*
X010186Y008316D01*
X010186Y008511D01*
X010111Y008691D01*
X009974Y008829D01*
X009793Y008903D01*
X009599Y008903D01*
X009418Y008829D01*
X009281Y008691D01*
X009206Y008511D01*
X009206Y008316D01*
X009281Y008136D01*
X009418Y007998D01*
X009599Y007923D01*
X009793Y007923D01*
X009984Y008008D02*
X010408Y008008D01*
X010329Y008087D02*
X010063Y008087D01*
X010124Y008165D02*
X010268Y008165D01*
X010236Y008244D02*
X010156Y008244D01*
X010186Y008322D02*
X010206Y008322D01*
X010206Y008401D02*
X010186Y008401D01*
X010186Y008479D02*
X010206Y008479D01*
X010226Y008558D02*
X010166Y008558D01*
X010134Y008636D02*
X010258Y008636D01*
X010305Y008715D02*
X010087Y008715D01*
X010009Y008793D02*
X010383Y008793D01*
X010523Y008872D02*
X009869Y008872D01*
X009859Y008950D02*
X010533Y008950D01*
X010387Y009029D02*
X010005Y009029D01*
X009974Y008998D02*
X010111Y009136D01*
X010186Y009316D01*
X010186Y009511D01*
X010111Y009691D01*
X009974Y009829D01*
X009793Y009903D01*
X009599Y009903D01*
X009418Y009829D01*
X009281Y009691D01*
X009206Y009511D01*
X009206Y009316D01*
X009246Y009219D01*
X008671Y008644D01*
X008650Y008653D01*
X008522Y008653D01*
X008405Y008605D01*
X008315Y008515D01*
X008266Y008397D01*
X008266Y008270D01*
X008315Y008152D01*
X008405Y008062D01*
X008522Y008013D01*
X008650Y008013D01*
X008767Y008062D01*
X008857Y008152D01*
X008906Y008270D01*
X008906Y008397D01*
X008897Y008418D01*
X009460Y008981D01*
X009599Y008923D01*
X009793Y008923D01*
X009974Y008998D01*
X010083Y009107D02*
X010309Y009107D01*
X010260Y009186D02*
X010132Y009186D01*
X010165Y009264D02*
X010227Y009264D01*
X010206Y009343D02*
X010186Y009343D01*
X010186Y009421D02*
X010206Y009421D01*
X010206Y009500D02*
X010186Y009500D01*
X010158Y009578D02*
X010234Y009578D01*
X010267Y009657D02*
X010125Y009657D01*
X010067Y009735D02*
X010325Y009735D01*
X010404Y009814D02*
X009988Y009814D01*
X009908Y009971D02*
X010484Y009971D01*
X010572Y009892D02*
X009820Y009892D01*
X009793Y009923D02*
X009599Y009923D01*
X009418Y009998D01*
X009281Y010136D01*
X009206Y010316D01*
X009206Y010511D01*
X009281Y010691D01*
X009418Y010829D01*
X009599Y010903D01*
X009793Y010903D01*
X009918Y010852D01*
X010026Y010960D01*
X010026Y011023D01*
X009963Y010977D01*
X009892Y010941D01*
X009815Y010916D01*
X009736Y010903D01*
X009736Y010903D01*
X009736Y011373D01*
X009656Y011373D01*
X009656Y010903D01*
X009656Y010903D01*
X009577Y010916D01*
X009500Y010941D01*
X009429Y010977D01*
X009364Y011024D01*
X009307Y011081D01*
X009260Y011146D01*
X009223Y011217D01*
X009199Y011294D01*
X009186Y011373D01*
X009186Y011373D01*
X009656Y011373D01*
X009656Y011453D01*
X009186Y011453D01*
X009186Y011453D01*
X009199Y011533D01*
X009223Y011609D01*
X009260Y011681D01*
X009307Y011745D01*
X009364Y011802D01*
X009429Y011849D01*
X009500Y011886D01*
X009577Y011911D01*
X009656Y011923D01*
X009656Y011923D01*
X009656Y011453D01*
X009736Y011453D01*
X009736Y011923D01*
X009736Y011923D01*
X009815Y011911D01*
X009892Y011886D01*
X009963Y011849D01*
X010026Y011804D01*
X010026Y012030D01*
X010120Y012123D01*
X010286Y012289D01*
X000366Y012289D01*
X000366Y012247D02*
X010244Y012247D01*
X010165Y012169D02*
X000366Y012169D01*
X000366Y012090D02*
X010087Y012090D01*
X010026Y012012D02*
X000366Y012012D01*
X000366Y011933D02*
X010026Y011933D01*
X010026Y011855D02*
X009953Y011855D01*
X009736Y011855D02*
X009656Y011855D01*
X009656Y011776D02*
X009736Y011776D01*
X009736Y011698D02*
X009656Y011698D01*
X009656Y011619D02*
X009736Y011619D01*
X009736Y011541D02*
X009656Y011541D01*
X009656Y011462D02*
X009736Y011462D01*
X009696Y011413D02*
X009626Y011373D01*
X009146Y010893D01*
X009146Y010163D01*
X008836Y009853D01*
X007066Y009853D01*
X007066Y007853D01*
X007058Y007930D02*
X009583Y007930D01*
X009408Y008008D02*
X007066Y008008D01*
X007062Y008087D02*
X008380Y008087D01*
X008309Y008165D02*
X007029Y008165D01*
X006968Y008244D02*
X008277Y008244D01*
X008266Y008322D02*
X006836Y008322D01*
X006767Y008401D02*
X008268Y008401D01*
X008300Y008479D02*
X006845Y008479D01*
X006924Y008558D02*
X008358Y008558D01*
X008481Y008636D02*
X006996Y008636D01*
X006996Y008630D02*
X006709Y008343D01*
X006303Y008343D01*
X006016Y008630D01*
X006016Y009036D01*
X006303Y009323D01*
X006709Y009323D01*
X006996Y009036D01*
X006996Y008630D01*
X006996Y008715D02*
X008741Y008715D01*
X008820Y008793D02*
X006996Y008793D01*
X006996Y008872D02*
X008898Y008872D01*
X008977Y008950D02*
X006996Y008950D01*
X006996Y009029D02*
X009055Y009029D01*
X009134Y009107D02*
X006925Y009107D01*
X006846Y009186D02*
X009212Y009186D01*
X009227Y009264D02*
X006768Y009264D01*
X006717Y009323D02*
X006546Y009323D01*
X006546Y009793D01*
X006466Y009793D01*
X006466Y009323D01*
X006295Y009323D01*
X005996Y009622D01*
X005996Y009793D01*
X006466Y009793D01*
X006466Y009873D01*
X005996Y009873D01*
X005996Y010044D01*
X006295Y010343D01*
X006466Y010343D01*
X006466Y009873D01*
X006546Y009873D01*
X007016Y009873D01*
X007016Y010044D01*
X006717Y010343D01*
X006546Y010343D01*
X006546Y009873D01*
X006546Y009793D01*
X007016Y009793D01*
X007016Y009622D01*
X006717Y009323D01*
X006737Y009343D02*
X009206Y009343D01*
X009206Y009421D02*
X006815Y009421D01*
X006894Y009500D02*
X009206Y009500D01*
X009234Y009578D02*
X006972Y009578D01*
X007016Y009657D02*
X009267Y009657D01*
X009325Y009735D02*
X007016Y009735D01*
X007066Y009853D02*
X006506Y009853D01*
X006506Y009833D01*
X006546Y009814D02*
X009404Y009814D01*
X009484Y009971D02*
X007016Y009971D01*
X007011Y010049D02*
X009367Y010049D01*
X009288Y010128D02*
X006933Y010128D01*
X006854Y010206D02*
X009251Y010206D01*
X009219Y010285D02*
X006776Y010285D01*
X006546Y010285D02*
X006466Y010285D01*
X006466Y010206D02*
X006546Y010206D01*
X006546Y010128D02*
X006466Y010128D01*
X006466Y010049D02*
X006546Y010049D01*
X006546Y009971D02*
X006466Y009971D01*
X006466Y009892D02*
X006546Y009892D01*
X006466Y009814D02*
X005996Y009814D01*
X005996Y009892D02*
X005996Y009892D01*
X005996Y009971D02*
X005996Y009971D01*
X005996Y010036D02*
X005709Y010323D01*
X005303Y010323D01*
X005016Y010036D01*
X005016Y009630D01*
X005303Y009343D01*
X005709Y009343D01*
X005996Y009630D01*
X005996Y010036D01*
X006001Y010049D02*
X005983Y010049D01*
X005904Y010128D02*
X006079Y010128D01*
X006158Y010206D02*
X005826Y010206D01*
X005747Y010285D02*
X006236Y010285D01*
X007016Y009892D02*
X009572Y009892D01*
X009793Y009923D02*
X009974Y009998D01*
X010111Y010136D01*
X010186Y010316D01*
X010186Y010511D01*
X010186Y010442D02*
X010206Y010442D01*
X010206Y010363D02*
X010186Y010363D01*
X010173Y010285D02*
X010219Y010285D01*
X010251Y010206D02*
X010141Y010206D01*
X010104Y010128D02*
X010288Y010128D01*
X010367Y010049D02*
X010025Y010049D01*
X010696Y010413D02*
X010746Y010413D01*
X010746Y010333D01*
X011146Y010333D01*
X011946Y011133D01*
X011638Y011227D02*
X011149Y011227D01*
X010958Y010991D02*
X011578Y010991D01*
X011499Y010913D02*
X010346Y010913D01*
X010346Y010991D02*
X010434Y010991D01*
X010432Y010834D02*
X010346Y010834D01*
X010346Y010756D02*
X010275Y010756D01*
X010275Y010677D02*
X010196Y010677D01*
X009979Y010913D02*
X009797Y010913D01*
X009736Y010913D02*
X009656Y010913D01*
X009595Y010913D02*
X000366Y010913D01*
X000366Y010991D02*
X009409Y010991D01*
X009318Y011070D02*
X000366Y011070D01*
X000366Y011148D02*
X009259Y011148D01*
X009220Y011227D02*
X000366Y011227D01*
X000366Y011305D02*
X009197Y011305D01*
X009187Y011462D02*
X000366Y011462D01*
X000366Y011384D02*
X009656Y011384D01*
X009656Y011305D02*
X009736Y011305D01*
X009736Y011227D02*
X009656Y011227D01*
X009656Y011148D02*
X009736Y011148D01*
X009736Y011070D02*
X009656Y011070D01*
X009656Y010991D02*
X009736Y010991D01*
X009983Y010991D02*
X010026Y010991D01*
X009432Y010834D02*
X000366Y010834D01*
X000366Y010756D02*
X009346Y010756D01*
X009275Y010677D02*
X000366Y010677D01*
X000366Y010599D02*
X009242Y010599D01*
X009210Y010520D02*
X000366Y010520D01*
X000366Y010442D02*
X009206Y010442D01*
X009206Y010363D02*
X000366Y010363D01*
X000366Y010285D02*
X002265Y010285D01*
X002303Y010323D02*
X002016Y010036D01*
X002016Y009630D01*
X002303Y009343D01*
X002709Y009343D01*
X002996Y009630D01*
X002996Y010036D01*
X002709Y010323D01*
X002303Y010323D01*
X002186Y010206D02*
X000366Y010206D01*
X000366Y010128D02*
X002108Y010128D01*
X002029Y010049D02*
X000366Y010049D01*
X000366Y009971D02*
X002016Y009971D01*
X002016Y009892D02*
X000366Y009892D01*
X000366Y009814D02*
X002016Y009814D01*
X002016Y009735D02*
X000366Y009735D01*
X000366Y009657D02*
X002016Y009657D01*
X002068Y009578D02*
X000366Y009578D01*
X000366Y009500D02*
X002146Y009500D01*
X002225Y009421D02*
X000366Y009421D01*
X000366Y009343D02*
X006275Y009343D01*
X006244Y009264D02*
X005768Y009264D01*
X005709Y009323D02*
X005303Y009323D01*
X005016Y009036D01*
X005016Y008630D01*
X005303Y008343D01*
X005709Y008343D01*
X005996Y008630D01*
X005996Y009036D01*
X005709Y009323D01*
X005787Y009421D02*
X006197Y009421D01*
X006118Y009500D02*
X005866Y009500D01*
X005944Y009578D02*
X006040Y009578D01*
X005996Y009657D02*
X005996Y009657D01*
X005996Y009735D02*
X005996Y009735D01*
X006466Y009735D02*
X006546Y009735D01*
X006546Y009657D02*
X006466Y009657D01*
X006466Y009578D02*
X006546Y009578D01*
X006546Y009500D02*
X006466Y009500D01*
X006466Y009421D02*
X006546Y009421D01*
X006546Y009343D02*
X006466Y009343D01*
X006166Y009186D02*
X005846Y009186D01*
X005925Y009107D02*
X006087Y009107D01*
X006016Y009029D02*
X005996Y009029D01*
X005996Y008950D02*
X006016Y008950D01*
X006016Y008872D02*
X005996Y008872D01*
X005996Y008793D02*
X006016Y008793D01*
X006016Y008715D02*
X005996Y008715D01*
X005996Y008636D02*
X006016Y008636D01*
X006088Y008558D02*
X005924Y008558D01*
X005845Y008479D02*
X006167Y008479D01*
X006245Y008401D02*
X005767Y008401D01*
X005245Y008401D02*
X004767Y008401D01*
X004709Y008343D02*
X004996Y008630D01*
X004996Y009036D01*
X004709Y009323D01*
X004303Y009323D01*
X004016Y009036D01*
X004016Y008630D01*
X004303Y008343D01*
X004709Y008343D01*
X004845Y008479D02*
X005167Y008479D01*
X005088Y008558D02*
X004924Y008558D01*
X004996Y008636D02*
X005016Y008636D01*
X005016Y008715D02*
X004996Y008715D01*
X004996Y008793D02*
X005016Y008793D01*
X005016Y008872D02*
X004996Y008872D01*
X004996Y008950D02*
X005016Y008950D01*
X005016Y009029D02*
X004996Y009029D01*
X004925Y009107D02*
X005087Y009107D01*
X005166Y009186D02*
X004846Y009186D01*
X004768Y009264D02*
X005244Y009264D01*
X005225Y009421D02*
X004787Y009421D01*
X004709Y009343D02*
X004996Y009630D01*
X004996Y010036D01*
X004709Y010323D01*
X004303Y010323D01*
X004016Y010036D01*
X004016Y009630D01*
X004303Y009343D01*
X004709Y009343D01*
X004866Y009500D02*
X005146Y009500D01*
X005068Y009578D02*
X004944Y009578D01*
X004996Y009657D02*
X005016Y009657D01*
X005016Y009735D02*
X004996Y009735D01*
X004996Y009814D02*
X005016Y009814D01*
X005016Y009892D02*
X004996Y009892D01*
X004996Y009971D02*
X005016Y009971D01*
X005029Y010049D02*
X004983Y010049D01*
X004904Y010128D02*
X005108Y010128D01*
X005186Y010206D02*
X004826Y010206D01*
X004747Y010285D02*
X005265Y010285D01*
X004265Y010285D02*
X003747Y010285D01*
X003709Y010323D02*
X003303Y010323D01*
X003016Y010036D01*
X003016Y009630D01*
X003303Y009343D01*
X003709Y009343D01*
X003996Y009630D01*
X003996Y010036D01*
X003709Y010323D01*
X003826Y010206D02*
X004186Y010206D01*
X004108Y010128D02*
X003904Y010128D01*
X003983Y010049D02*
X004029Y010049D01*
X004016Y009971D02*
X003996Y009971D01*
X003996Y009892D02*
X004016Y009892D01*
X004016Y009814D02*
X003996Y009814D01*
X003996Y009735D02*
X004016Y009735D01*
X004016Y009657D02*
X003996Y009657D01*
X003944Y009578D02*
X004068Y009578D01*
X004146Y009500D02*
X003866Y009500D01*
X003787Y009421D02*
X004225Y009421D01*
X004244Y009264D02*
X003768Y009264D01*
X003709Y009323D02*
X003303Y009323D01*
X003016Y009036D01*
X003016Y008630D01*
X003303Y008343D01*
X003709Y008343D01*
X003996Y008630D01*
X003996Y009036D01*
X003709Y009323D01*
X003846Y009186D02*
X004166Y009186D01*
X004087Y009107D02*
X003925Y009107D01*
X003996Y009029D02*
X004016Y009029D01*
X004016Y008950D02*
X003996Y008950D01*
X003996Y008872D02*
X004016Y008872D01*
X004016Y008793D02*
X003996Y008793D01*
X003996Y008715D02*
X004016Y008715D01*
X004016Y008636D02*
X003996Y008636D01*
X003924Y008558D02*
X004088Y008558D01*
X004167Y008479D02*
X003845Y008479D01*
X003767Y008401D02*
X004245Y008401D01*
X003302Y008244D02*
X006524Y008244D01*
X006656Y008322D02*
X003223Y008322D01*
X003245Y008401D02*
X003145Y008401D01*
X003167Y008479D02*
X003066Y008479D01*
X003088Y008558D02*
X002988Y008558D01*
X002996Y008636D02*
X003016Y008636D01*
X003016Y008715D02*
X002996Y008715D01*
X002996Y008793D02*
X003016Y008793D01*
X003016Y008872D02*
X002996Y008872D01*
X002996Y008950D02*
X003016Y008950D01*
X003016Y009029D02*
X002996Y009029D01*
X002925Y009107D02*
X003087Y009107D01*
X003166Y009186D02*
X002846Y009186D01*
X002768Y009264D02*
X003244Y009264D01*
X003225Y009421D02*
X002787Y009421D01*
X002866Y009500D02*
X003146Y009500D01*
X003068Y009578D02*
X002944Y009578D01*
X002996Y009657D02*
X003016Y009657D01*
X003016Y009735D02*
X002996Y009735D01*
X002996Y009814D02*
X003016Y009814D01*
X003016Y009892D02*
X002996Y009892D01*
X002996Y009971D02*
X003016Y009971D01*
X003029Y010049D02*
X002983Y010049D01*
X002904Y010128D02*
X003108Y010128D01*
X003186Y010206D02*
X002826Y010206D01*
X002747Y010285D02*
X003265Y010285D01*
X002244Y009264D02*
X000366Y009264D01*
X000366Y009186D02*
X002166Y009186D01*
X002087Y009107D02*
X000366Y009107D01*
X000366Y009029D02*
X002016Y009029D01*
X002016Y008950D02*
X000366Y008950D01*
X000366Y008872D02*
X002016Y008872D01*
X002016Y008793D02*
X000366Y008793D01*
X000366Y008715D02*
X002016Y008715D01*
X002016Y008636D02*
X000366Y008636D01*
X000366Y008558D02*
X002088Y008558D01*
X002167Y008479D02*
X000366Y008479D01*
X000366Y008401D02*
X002245Y008401D01*
X002771Y008322D02*
X000366Y008322D01*
X000366Y008244D02*
X002849Y008244D01*
X002928Y008165D02*
X000366Y008165D01*
X000366Y008087D02*
X003006Y008087D01*
X003085Y008008D02*
X000366Y008008D01*
X000366Y007930D02*
X003163Y007930D01*
X003306Y008013D02*
X006746Y008013D01*
X006467Y007851D02*
X000366Y007851D01*
X000366Y007773D02*
X006534Y007773D01*
X005306Y006893D02*
X001636Y006893D01*
X001446Y006703D01*
X001446Y005413D01*
X001946Y004913D01*
X001946Y004813D01*
X001966Y004743D01*
X001850Y005261D02*
X001825Y005261D01*
X001606Y006595D02*
X005189Y006595D01*
X005073Y006674D02*
X001643Y006674D01*
X003306Y008013D02*
X002506Y008813D01*
X002506Y008833D01*
X000366Y011541D02*
X009201Y011541D01*
X009229Y011619D02*
X000366Y011619D01*
X000366Y011698D02*
X009272Y011698D01*
X009338Y011776D02*
X000366Y011776D01*
X000366Y011855D02*
X009439Y011855D01*
X010696Y011413D02*
X010746Y011453D01*
X013866Y011453D01*
X014151Y011305D02*
X014268Y011305D01*
X014346Y011227D02*
X014092Y011227D01*
X014069Y011148D02*
X013966Y011148D01*
X014184Y011384D02*
X014189Y011384D01*
X011421Y010834D02*
X010960Y010834D01*
X011046Y010756D02*
X011342Y010756D01*
X011264Y010677D02*
X011117Y010677D01*
X011150Y010599D02*
X011185Y010599D01*
X009696Y009413D02*
X009626Y009373D01*
X008586Y008333D01*
X008906Y008322D02*
X009206Y008322D01*
X009206Y008401D02*
X008904Y008401D01*
X008958Y008479D02*
X009206Y008479D01*
X009226Y008558D02*
X009037Y008558D01*
X009115Y008636D02*
X009258Y008636D01*
X009305Y008715D02*
X009194Y008715D01*
X009272Y008793D02*
X009383Y008793D01*
X009351Y008872D02*
X009523Y008872D01*
X009533Y008950D02*
X009429Y008950D01*
X009236Y008244D02*
X008895Y008244D01*
X008863Y008165D02*
X009268Y008165D01*
X009329Y008087D02*
X008792Y008087D01*
X011866Y008013D02*
X012106Y008013D01*
X012106Y008093D01*
X013146Y009133D01*
X014321Y008322D02*
X015163Y008322D01*
X015292Y008401D02*
X014400Y008401D01*
X014266Y008093D02*
X015386Y008093D01*
X015226Y007613D02*
X011946Y004333D01*
X011946Y003293D01*
X011146Y002493D01*
X005866Y002493D01*
X006103Y002278D02*
X008843Y002278D01*
X008826Y002199D02*
X005993Y002199D01*
X005739Y002199D02*
X004291Y002199D01*
X004285Y002191D02*
X004332Y002256D01*
X004369Y002327D01*
X004393Y002404D01*
X004406Y002483D01*
X004406Y002483D01*
X003936Y002483D01*
X003936Y002013D01*
X003936Y002013D01*
X004015Y002026D01*
X004092Y002051D01*
X004163Y002087D01*
X004228Y002134D01*
X004285Y002191D01*
X004210Y002121D02*
X008826Y002121D01*
X008854Y002042D02*
X004066Y002042D01*
X003936Y002042D02*
X003856Y002042D01*
X003856Y002013D02*
X003777Y002026D01*
X003700Y002051D01*
X003629Y002087D01*
X003564Y002134D01*
X003507Y002191D01*
X003460Y002256D01*
X003423Y002327D01*
X003399Y002404D01*
X003386Y002483D01*
X003386Y002483D01*
X003856Y002483D01*
X003936Y002483D01*
X003936Y002563D01*
X004406Y002563D01*
X004406Y002563D01*
X004393Y002643D01*
X004369Y002719D01*
X004332Y002791D01*
X004285Y002855D01*
X004228Y002912D01*
X004163Y002959D01*
X004092Y002996D01*
X004015Y003021D01*
X003936Y003033D01*
X003936Y002563D01*
X003856Y002563D01*
X003856Y002483D01*
X003856Y002013D01*
X003856Y002013D01*
X003856Y002121D02*
X003936Y002121D01*
X003936Y002199D02*
X003856Y002199D01*
X003856Y002278D02*
X003936Y002278D01*
X003936Y002356D02*
X003856Y002356D01*
X003856Y002435D02*
X003936Y002435D01*
X003936Y002513D02*
X005546Y002513D01*
X005546Y002435D02*
X004398Y002435D01*
X004378Y002356D02*
X005576Y002356D01*
X005629Y002278D02*
X004343Y002278D01*
X004401Y002592D02*
X005560Y002592D01*
X005593Y002670D02*
X004384Y002670D01*
X004353Y002749D02*
X005669Y002749D01*
X006063Y002749D02*
X011175Y002749D01*
X011097Y002670D02*
X006139Y002670D01*
X004305Y002827D02*
X011254Y002827D01*
X011332Y002906D02*
X004235Y002906D01*
X004115Y002984D02*
X011411Y002984D01*
X011489Y003063D02*
X000366Y003063D01*
X000366Y003141D02*
X011568Y003141D01*
X011646Y003220D02*
X000366Y003220D01*
X000366Y003298D02*
X011725Y003298D01*
X011786Y003377D02*
X000366Y003377D01*
X000366Y003455D02*
X011786Y003455D01*
X012106Y003293D02*
X012106Y003213D01*
X011066Y002173D01*
X009146Y002173D01*
X011226Y001853D02*
X002906Y001853D01*
X002906Y002493D01*
X002896Y002523D01*
X002459Y002749D02*
X000366Y002749D01*
X000366Y002827D02*
X002507Y002827D01*
X002586Y002906D02*
X000366Y002906D01*
X000366Y002984D02*
X002729Y002984D01*
X003063Y002984D02*
X003677Y002984D01*
X003700Y002996D02*
X003629Y002959D01*
X003564Y002912D01*
X003507Y002855D01*
X003460Y002791D01*
X003423Y002719D01*
X003399Y002643D01*
X003386Y002563D01*
X003856Y002563D01*
X003856Y003033D01*
X003856Y003033D01*
X003777Y003021D01*
X003700Y002996D01*
X003856Y002984D02*
X003936Y002984D01*
X003936Y003033D02*
X003936Y003033D01*
X003936Y002906D02*
X003856Y002906D01*
X003856Y002827D02*
X003936Y002827D01*
X003936Y002749D02*
X003856Y002749D01*
X003856Y002670D02*
X003936Y002670D01*
X003936Y002592D02*
X003856Y002592D01*
X003856Y002513D02*
X003386Y002513D01*
X003386Y002563D02*
X003386Y002563D01*
X003386Y002592D02*
X003390Y002592D01*
X003408Y002670D02*
X003365Y002670D01*
X003333Y002749D02*
X003439Y002749D01*
X003487Y002827D02*
X003285Y002827D01*
X003206Y002906D02*
X003557Y002906D01*
X003394Y002435D02*
X003386Y002435D01*
X003414Y002356D02*
X003357Y002356D01*
X003325Y002278D02*
X003449Y002278D01*
X003501Y002199D02*
X003265Y002199D01*
X003187Y002121D02*
X003582Y002121D01*
X003726Y002042D02*
X003066Y002042D01*
X002746Y002042D02*
X000366Y002042D01*
X000366Y001964D02*
X002746Y001964D01*
X002746Y001885D02*
X000366Y001885D01*
X000366Y001807D02*
X002746Y001807D01*
X002805Y001728D02*
X000366Y001728D01*
X000366Y001650D02*
X021814Y001650D01*
X021831Y001691D02*
X021756Y001511D01*
X021756Y001316D01*
X021831Y001136D01*
X021968Y000998D01*
X022149Y000923D01*
X022343Y000923D01*
X022524Y000998D01*
X022661Y001136D01*
X022736Y001316D01*
X022736Y001511D01*
X022661Y001691D01*
X022524Y001829D01*
X022343Y001903D01*
X022149Y001903D01*
X021968Y001829D01*
X021831Y001691D01*
X021868Y001728D02*
X011327Y001728D01*
X011406Y001807D02*
X021947Y001807D01*
X022105Y001885D02*
X011484Y001885D01*
X011563Y001964D02*
X022051Y001964D01*
X021968Y001998D02*
X022149Y001923D01*
X022343Y001923D01*
X022524Y001998D01*
X022661Y002136D01*
X022736Y002316D01*
X022736Y002511D01*
X022661Y002691D01*
X022524Y002829D01*
X022343Y002903D01*
X022149Y002903D01*
X021968Y002829D01*
X021831Y002691D01*
X021756Y002511D01*
X021756Y002316D01*
X021831Y002136D01*
X021968Y001998D01*
X021924Y002042D02*
X011641Y002042D01*
X011720Y002121D02*
X021845Y002121D01*
X021804Y002199D02*
X011798Y002199D01*
X011877Y002278D02*
X021772Y002278D01*
X021756Y002356D02*
X011955Y002356D01*
X012034Y002435D02*
X021756Y002435D01*
X021757Y002513D02*
X012112Y002513D01*
X012191Y002592D02*
X021790Y002592D01*
X021822Y002670D02*
X012269Y002670D01*
X012348Y002749D02*
X021889Y002749D01*
X021967Y002827D02*
X012426Y002827D01*
X012505Y002906D02*
X024146Y002906D01*
X024146Y002984D02*
X022491Y002984D01*
X022524Y002998D02*
X022661Y003136D01*
X022736Y003316D01*
X022736Y003511D01*
X022661Y003691D01*
X022524Y003829D01*
X022343Y003903D01*
X022149Y003903D01*
X021968Y003829D01*
X021831Y003691D01*
X021756Y003511D01*
X021756Y003316D01*
X021831Y003136D01*
X021968Y002998D01*
X022149Y002923D01*
X022343Y002923D01*
X022524Y002998D01*
X022589Y003063D02*
X024146Y003063D01*
X024146Y003141D02*
X022664Y003141D01*
X022696Y003220D02*
X024146Y003220D01*
X024146Y003298D02*
X022729Y003298D01*
X022736Y003377D02*
X024146Y003377D01*
X024146Y003455D02*
X022736Y003455D01*
X022726Y003534D02*
X024146Y003534D01*
X024146Y003612D02*
X022694Y003612D01*
X022661Y003691D02*
X024146Y003691D01*
X024146Y003769D02*
X022583Y003769D01*
X022477Y003848D02*
X024146Y003848D01*
X024146Y003926D02*
X022398Y003926D01*
X022365Y003916D02*
X022442Y003941D01*
X022513Y003977D01*
X022578Y004024D01*
X022635Y004081D01*
X022682Y004146D01*
X022719Y004217D01*
X022743Y004294D01*
X022756Y004373D01*
X022756Y004373D01*
X022286Y004373D01*
X022286Y003903D01*
X022286Y003903D01*
X022365Y003916D01*
X022286Y003926D02*
X022206Y003926D01*
X022206Y003903D02*
X022206Y004373D01*
X022286Y004373D01*
X022286Y004453D01*
X022756Y004453D01*
X022756Y004453D01*
X022743Y004533D01*
X022719Y004609D01*
X022682Y004681D01*
X022635Y004745D01*
X022578Y004802D01*
X022513Y004849D01*
X022442Y004886D01*
X022365Y004911D01*
X022286Y004923D01*
X022286Y004923D01*
X022286Y004453D01*
X022206Y004453D01*
X022206Y004373D01*
X021736Y004373D01*
X021749Y004294D01*
X021773Y004217D01*
X021810Y004146D01*
X021857Y004081D01*
X021914Y004024D01*
X021979Y003977D01*
X022050Y003941D01*
X022127Y003916D01*
X022206Y003903D01*
X022206Y003903D01*
X022206Y004005D02*
X022286Y004005D01*
X022286Y004083D02*
X022206Y004083D01*
X022206Y004162D02*
X022286Y004162D01*
X022286Y004240D02*
X022206Y004240D01*
X022206Y004319D02*
X022286Y004319D01*
X022286Y004397D02*
X024146Y004397D01*
X024146Y004319D02*
X022747Y004319D01*
X022726Y004240D02*
X024146Y004240D01*
X024146Y004162D02*
X022690Y004162D01*
X022637Y004083D02*
X024146Y004083D01*
X024146Y004005D02*
X022551Y004005D01*
X022094Y003926D02*
X013525Y003926D01*
X013447Y003848D02*
X022015Y003848D01*
X021909Y003769D02*
X013368Y003769D01*
X013290Y003691D02*
X021831Y003691D01*
X021798Y003612D02*
X013211Y003612D01*
X013133Y003534D02*
X021766Y003534D01*
X021756Y003455D02*
X013054Y003455D01*
X012976Y003377D02*
X021756Y003377D01*
X021763Y003298D02*
X012897Y003298D01*
X012819Y003220D02*
X021796Y003220D01*
X021828Y003141D02*
X012740Y003141D01*
X012662Y003063D02*
X021903Y003063D01*
X022001Y002984D02*
X012583Y002984D01*
X012106Y003293D02*
X015946Y007133D01*
X016175Y006909D02*
X024146Y006909D01*
X024146Y006831D02*
X016052Y006831D01*
X016059Y006752D02*
X024146Y006752D01*
X024146Y006674D02*
X022743Y006674D01*
X022746Y006672D02*
X022687Y006702D01*
X022624Y006723D01*
X022559Y006733D01*
X022286Y006733D01*
X022286Y006353D01*
X022945Y006353D01*
X022936Y006412D01*
X022915Y006474D01*
X022885Y006533D01*
X022846Y006587D01*
X022800Y006634D01*
X022746Y006672D01*
X022838Y006595D02*
X024146Y006595D01*
X024146Y006517D02*
X022894Y006517D01*
X022927Y006438D02*
X024146Y006438D01*
X024146Y006360D02*
X022944Y006360D01*
X022945Y006273D02*
X022936Y006215D01*
X022915Y006152D01*
X022885Y006093D01*
X022846Y006040D01*
X022800Y005993D01*
X022746Y005954D01*
X022687Y005924D01*
X022624Y005904D01*
X022559Y005893D01*
X022286Y005893D01*
X022286Y006273D01*
X022206Y006273D01*
X022206Y005893D01*
X021933Y005893D01*
X021868Y005904D01*
X021805Y005924D01*
X021746Y005954D01*
X021692Y005993D01*
X021646Y006040D01*
X021607Y006093D01*
X021577Y006152D01*
X021556Y006215D01*
X021547Y006273D01*
X022206Y006273D01*
X022206Y006353D01*
X021547Y006353D01*
X021556Y006412D01*
X021577Y006474D01*
X021607Y006533D01*
X021646Y006587D01*
X021692Y006634D01*
X021746Y006672D01*
X021805Y006702D01*
X021868Y006723D01*
X021933Y006733D01*
X022206Y006733D01*
X022206Y006353D01*
X022286Y006353D01*
X022286Y006273D01*
X022945Y006273D01*
X022932Y006203D02*
X024146Y006203D01*
X024146Y006281D02*
X022286Y006281D01*
X022246Y006313D02*
X022986Y007053D01*
X022286Y006674D02*
X022206Y006674D01*
X022206Y006595D02*
X022286Y006595D01*
X022286Y006517D02*
X022206Y006517D01*
X022206Y006438D02*
X022286Y006438D01*
X022286Y006360D02*
X022206Y006360D01*
X022206Y006281D02*
X016107Y006281D01*
X016157Y006360D02*
X021548Y006360D01*
X021565Y006438D02*
X016186Y006438D01*
X016186Y006517D02*
X021598Y006517D01*
X021654Y006595D02*
X016170Y006595D01*
X016138Y006674D02*
X021749Y006674D01*
X021726Y006988D02*
X016232Y006988D01*
X016265Y007066D02*
X021647Y007066D01*
X021603Y007145D02*
X016266Y007145D01*
X016255Y007223D02*
X020260Y007223D01*
X020181Y007302D02*
X016223Y007302D01*
X016151Y007380D02*
X020103Y007380D01*
X020320Y007616D02*
X021703Y007616D01*
X021626Y007537D02*
X020398Y007537D01*
X021064Y008322D02*
X021566Y008322D01*
X021569Y008401D02*
X021120Y008401D01*
X021198Y008479D02*
X021602Y008479D01*
X021645Y008558D02*
X021277Y008558D01*
X021355Y008636D02*
X021723Y008636D01*
X021512Y008793D02*
X024146Y008793D01*
X024146Y008715D02*
X021434Y008715D01*
X021591Y008872D02*
X024146Y008872D01*
X024146Y008950D02*
X021669Y008950D01*
X021748Y009029D02*
X024146Y009029D01*
X024146Y009107D02*
X021826Y009107D01*
X021905Y009186D02*
X024146Y009186D01*
X024146Y009264D02*
X021983Y009264D01*
X021706Y009213D02*
X022186Y009693D01*
X022246Y009763D01*
X022597Y009421D02*
X024146Y009421D01*
X024146Y009343D02*
X022511Y009343D01*
X022667Y009500D02*
X024146Y009500D01*
X024146Y009578D02*
X022700Y009578D01*
X022732Y009657D02*
X024146Y009657D01*
X024146Y009735D02*
X022736Y009735D01*
X022736Y009814D02*
X024146Y009814D01*
X024146Y009892D02*
X022723Y009892D01*
X022690Y009971D02*
X024146Y009971D01*
X024146Y010049D02*
X022653Y010049D01*
X022574Y010128D02*
X024146Y010128D01*
X024146Y010206D02*
X022457Y010206D01*
X021860Y011070D02*
X021836Y011070D01*
X022787Y008008D02*
X024146Y008008D01*
X024146Y007930D02*
X022646Y007930D01*
X022286Y006203D02*
X022206Y006203D01*
X022206Y006124D02*
X022286Y006124D01*
X022286Y006046D02*
X022206Y006046D01*
X022206Y005967D02*
X022286Y005967D01*
X022764Y005967D02*
X024146Y005967D01*
X024146Y005889D02*
X015488Y005889D01*
X015566Y005967D02*
X021728Y005967D01*
X021641Y006046D02*
X015645Y006046D01*
X015723Y006124D02*
X021591Y006124D01*
X021560Y006203D02*
X016001Y006203D01*
X015866Y006493D02*
X011226Y001853D01*
X013604Y004005D02*
X021941Y004005D01*
X021855Y004083D02*
X013682Y004083D01*
X013761Y004162D02*
X021802Y004162D01*
X021766Y004240D02*
X013839Y004240D01*
X013918Y004319D02*
X021745Y004319D01*
X021736Y004373D02*
X021736Y004373D01*
X021736Y004453D02*
X022206Y004453D01*
X022206Y004923D01*
X022206Y004923D01*
X022127Y004911D01*
X022050Y004886D01*
X021979Y004849D01*
X021914Y004802D01*
X021857Y004745D01*
X021810Y004681D01*
X021773Y004609D01*
X021749Y004533D01*
X021736Y004453D01*
X021736Y004453D01*
X021740Y004476D02*
X014075Y004476D01*
X014153Y004554D02*
X021756Y004554D01*
X021785Y004633D02*
X014232Y004633D01*
X014310Y004711D02*
X021832Y004711D01*
X021901Y004790D02*
X014389Y004790D01*
X014467Y004868D02*
X022016Y004868D01*
X022206Y004868D02*
X022286Y004868D01*
X022286Y004790D02*
X022206Y004790D01*
X022206Y004711D02*
X022286Y004711D01*
X022286Y004633D02*
X022206Y004633D01*
X022206Y004554D02*
X022286Y004554D01*
X022286Y004476D02*
X022206Y004476D01*
X022206Y004397D02*
X013996Y004397D01*
X014546Y004947D02*
X024146Y004947D01*
X024146Y005025D02*
X014624Y005025D01*
X014703Y005104D02*
X024146Y005104D01*
X024146Y005182D02*
X014781Y005182D01*
X014860Y005261D02*
X024146Y005261D01*
X024146Y005339D02*
X014938Y005339D01*
X015017Y005418D02*
X024146Y005418D01*
X024146Y005496D02*
X015095Y005496D01*
X015174Y005575D02*
X024146Y005575D01*
X024146Y005653D02*
X015252Y005653D01*
X015331Y005732D02*
X024146Y005732D01*
X024146Y005810D02*
X015409Y005810D01*
X014506Y006413D02*
X012986Y004893D01*
X012715Y004711D02*
X012550Y004711D01*
X012472Y004633D02*
X012794Y004633D01*
X012682Y004790D02*
X012629Y004790D01*
X011626Y004573D02*
X011226Y004173D01*
X012746Y006573D02*
X014266Y008093D01*
X022476Y004868D02*
X024146Y004868D01*
X024146Y004790D02*
X022591Y004790D01*
X022660Y004711D02*
X024146Y004711D01*
X024146Y004633D02*
X022707Y004633D01*
X022736Y004554D02*
X024146Y004554D01*
X024146Y004476D02*
X022752Y004476D01*
X022851Y006046D02*
X024146Y006046D01*
X024146Y006124D02*
X022901Y006124D01*
X022525Y002827D02*
X024146Y002827D01*
X024146Y002749D02*
X022603Y002749D01*
X022670Y002670D02*
X024146Y002670D01*
X024146Y002592D02*
X022702Y002592D01*
X022735Y002513D02*
X024146Y002513D01*
X024146Y002435D02*
X022736Y002435D01*
X022736Y002356D02*
X024146Y002356D01*
X024146Y002278D02*
X022720Y002278D01*
X022688Y002199D02*
X024146Y002199D01*
X024146Y002121D02*
X022647Y002121D01*
X022568Y002042D02*
X024146Y002042D01*
X024146Y001964D02*
X022441Y001964D01*
X022387Y001885D02*
X024146Y001885D01*
X024146Y001807D02*
X022545Y001807D01*
X022624Y001728D02*
X024146Y001728D01*
X024146Y001650D02*
X022678Y001650D01*
X022711Y001571D02*
X024146Y001571D01*
X024146Y001493D02*
X022736Y001493D01*
X022736Y001414D02*
X024146Y001414D01*
X024146Y001336D02*
X022736Y001336D01*
X022712Y001257D02*
X024146Y001257D01*
X024146Y001179D02*
X022679Y001179D01*
X022626Y001100D02*
X024146Y001100D01*
X024146Y001022D02*
X022548Y001022D01*
X022392Y000943D02*
X024146Y000943D01*
X024146Y000865D02*
X000366Y000865D01*
X000366Y000943D02*
X022100Y000943D01*
X021944Y001022D02*
X000366Y001022D01*
X000366Y001100D02*
X021866Y001100D01*
X021813Y001179D02*
X000366Y001179D01*
X000366Y001257D02*
X021780Y001257D01*
X021756Y001336D02*
X000366Y001336D01*
X000366Y001414D02*
X021756Y001414D01*
X021756Y001493D02*
X000366Y001493D01*
X000366Y001571D02*
X021781Y001571D01*
X024146Y000786D02*
X000366Y000786D01*
X000366Y000708D02*
X024146Y000708D01*
X002605Y002121D02*
X000366Y002121D01*
X000366Y002199D02*
X002527Y002199D01*
X002467Y002278D02*
X000366Y002278D01*
X000366Y002356D02*
X002435Y002356D01*
X002406Y002435D02*
X000366Y002435D01*
X000366Y002513D02*
X002406Y002513D01*
X002406Y002592D02*
X000366Y002592D01*
X000366Y002670D02*
X002427Y002670D01*
D14*
X005866Y002493D03*
X009146Y002173D03*
X011226Y004173D03*
X011946Y004893D03*
X010746Y005373D03*
X011626Y005693D03*
X012746Y006573D03*
X011546Y007213D03*
X010746Y007373D03*
X011866Y008013D03*
X012026Y008493D03*
X012026Y008973D03*
X013466Y009133D03*
X014346Y009693D03*
X015146Y009693D03*
X014826Y009053D03*
X015386Y008093D03*
X015226Y007613D03*
X015946Y007133D03*
X015866Y006493D03*
X014506Y006413D03*
X012986Y004893D03*
X009626Y005053D03*
X006266Y005773D03*
X005306Y006893D03*
X006746Y008013D03*
X008586Y008333D03*
X013306Y010893D03*
X014266Y010893D03*
X014826Y010973D03*
X015306Y011453D03*
X013866Y011453D03*
X013866Y011933D03*
X011946Y011133D03*
X020106Y010653D03*
X020746Y008253D03*
M02*
