G75*
%MOIN*%
%OFA0B0*%
%FSLAX24Y24*%
%IPPOS*%
%LPD*%
%AMOC8*
5,1,8,0,0,1.08239X$1,22.5*
%
%ADD10C,0.0640*%
%ADD11C,0.0820*%
%ADD12R,0.0356X0.0434*%
%ADD13R,0.0434X0.0356*%
%ADD14R,0.0660X0.0280*%
%ADD15R,0.0280X0.0660*%
%ADD16R,0.0631X0.1261*%
%ADD17R,0.0380X0.0680*%
%ADD18OC8,0.0820*%
%ADD19R,0.0560X0.0960*%
%ADD20R,0.1497X0.0946*%
D10*
X021966Y006313D02*
X022526Y006313D01*
X022526Y007313D02*
X021966Y007313D01*
X021966Y008313D02*
X022526Y008313D01*
D11*
X002896Y002523D03*
X003896Y002523D03*
X003966Y004743D03*
X004966Y004743D03*
X004966Y005743D03*
X003966Y005743D03*
X002966Y005743D03*
X001966Y005743D03*
X001966Y004743D03*
X002966Y004743D03*
X009696Y008413D03*
X010696Y008413D03*
X010696Y009413D03*
X009696Y009413D03*
X009696Y010413D03*
X010696Y010413D03*
X010696Y011413D03*
X009696Y011413D03*
X022246Y010763D03*
X022246Y009763D03*
X022246Y004413D03*
X022246Y003413D03*
X022246Y002413D03*
X022246Y001413D03*
D12*
X014362Y004973D03*
X013850Y004973D03*
X013850Y005853D03*
X014362Y005853D03*
X017060Y006513D03*
X017572Y006513D03*
X018980Y006513D03*
X019492Y006513D03*
X010952Y006223D03*
X010440Y006223D03*
X010440Y004843D03*
X010952Y004843D03*
X010952Y003713D03*
X010440Y003713D03*
X010440Y002463D03*
X010952Y002463D03*
X014340Y011463D03*
X014852Y011463D03*
X017660Y011463D03*
X018172Y011463D03*
D13*
X020596Y011129D03*
X020596Y010617D03*
X020596Y007559D03*
X020596Y007047D03*
D14*
X016066Y007563D03*
X016066Y007873D03*
X016066Y008193D03*
X016066Y008503D03*
X016066Y008823D03*
X016066Y009133D03*
X016066Y009453D03*
X016066Y009763D03*
X012826Y009763D03*
X012826Y009453D03*
X012826Y009133D03*
X012826Y008823D03*
X012826Y008503D03*
X012826Y008193D03*
X012826Y007873D03*
X012826Y007563D03*
D15*
X013346Y007043D03*
X013656Y007043D03*
X013976Y007043D03*
X014286Y007043D03*
X014606Y007043D03*
X014916Y007043D03*
X015236Y007043D03*
X015546Y007043D03*
X015546Y010283D03*
X015236Y010283D03*
X014916Y010283D03*
X014606Y010283D03*
X014286Y010283D03*
X013976Y010283D03*
X013656Y010283D03*
X013346Y010283D03*
D16*
X013596Y003658D03*
X013596Y001768D03*
D17*
X008226Y002413D03*
X006726Y002413D03*
X006726Y004613D03*
X008226Y004613D03*
D18*
X006506Y008833D03*
X005506Y008833D03*
X004506Y008833D03*
X003506Y008833D03*
X002506Y008833D03*
X002506Y009833D03*
X003506Y009833D03*
X004506Y009833D03*
X005506Y009833D03*
X006506Y009833D03*
D19*
X017476Y007623D03*
X018386Y007623D03*
X019296Y007623D03*
D20*
X018386Y010063D03*
M02*
