%
M48
M72
T01C0.0200
T02C0.0320
T03C0.0400
%
T01
X5866Y2493
X9146Y2173
X11226Y4173
X11946Y4893
X10746Y5373
X11626Y5693
X12746Y6573
X11546Y7213
X10746Y7373
X11866Y8013
X12026Y8493
X12026Y8973
X13466Y9133
X14346Y9693
X15146Y9693
X14826Y9053
X15386Y8093
X15226Y7613
X15946Y7133
X15866Y6493
X14506Y6413
X12986Y4893
X9626Y5053
X6266Y5773
X5306Y6893
X6746Y8013
X8586Y8333
X13306Y10893
X14266Y10893
X14826Y10973
X15306Y11453
X13866Y11453
X13866Y11933
X11946Y11133
X20106Y10653
X20746Y8253
T02
X22246Y8313
X22246Y7313
X22246Y6313
T03
X2896Y2523
X3896Y2523
X3966Y4743
X4966Y4743
X4966Y5743
X3966Y5743
X2966Y5743
X1966Y5743
X1966Y4743
X2966Y4743
X9696Y8413
X10696Y8413
X10696Y9413
X9696Y9413
X9696Y10413
X10696Y10413
X10696Y11413
X9696Y11413
X6506Y9833
X5506Y9833
X4506Y9833
X3506Y9833
X2506Y9833
X2506Y8833
X3506Y8833
X4506Y8833
X5506Y8833
X6506Y8833
X22246Y9763
X22246Y10763
X22246Y4413
X22246Y3413
X22246Y2413
X22246Y1413
M30
