G75*
%MOIN*%
%OFA0B0*%
%FSLAX24Y24*%
%IPPOS*%
%LPD*%
%AMOC8*
5,1,8,0,0,1.08239X$1,22.5*
%
%ADD10R,0.0276X0.0354*%
%ADD11R,0.0354X0.0276*%
%ADD12R,0.0580X0.0200*%
%ADD13R,0.0200X0.0580*%
%ADD14R,0.0551X0.1181*%
%ADD15R,0.0300X0.0600*%
%ADD16R,0.0480X0.0880*%
%ADD17R,0.1417X0.0866*%
D10*
X010440Y002463D03*
X010952Y002463D03*
X010952Y003713D03*
X010440Y003713D03*
X010440Y004843D03*
X010952Y004843D03*
X010952Y006223D03*
X010440Y006223D03*
X013850Y005853D03*
X014362Y005853D03*
X014362Y004973D03*
X013850Y004973D03*
X017060Y006513D03*
X017572Y006513D03*
X018980Y006513D03*
X019492Y006513D03*
X018172Y011463D03*
X017660Y011463D03*
X014852Y011463D03*
X014340Y011463D03*
D11*
X020596Y011129D03*
X020596Y010617D03*
X020596Y007559D03*
X020596Y007047D03*
D12*
X016066Y007563D03*
X016066Y007873D03*
X016066Y008193D03*
X016066Y008503D03*
X016066Y008823D03*
X016066Y009133D03*
X016066Y009453D03*
X016066Y009763D03*
X012826Y009763D03*
X012826Y009453D03*
X012826Y009133D03*
X012826Y008823D03*
X012826Y008503D03*
X012826Y008193D03*
X012826Y007873D03*
X012826Y007563D03*
D13*
X013346Y007043D03*
X013656Y007043D03*
X013976Y007043D03*
X014286Y007043D03*
X014606Y007043D03*
X014916Y007043D03*
X015236Y007043D03*
X015546Y007043D03*
X015546Y010283D03*
X015236Y010283D03*
X014916Y010283D03*
X014606Y010283D03*
X014286Y010283D03*
X013976Y010283D03*
X013656Y010283D03*
X013346Y010283D03*
D14*
X013596Y003658D03*
X013596Y001768D03*
D15*
X006726Y002413D03*
X008226Y002413D03*
X008226Y004613D03*
X006726Y004613D03*
D16*
X017476Y007623D03*
X018386Y007623D03*
X019296Y007623D03*
D17*
X018386Y010063D03*
M02*
