G75*
%MOIN*%
%OFA0B0*%
%FSLAX24Y24*%
%IPPOS*%
%LPD*%
%AMOC8*
5,1,8,0,0,1.08239X$1,22.5*
%
%ADD10C,0.0050*%
%ADD11C,0.0040*%
%ADD12C,0.0060*%
%ADD13C,0.0030*%
%ADD14C,0.0005*%
%ADD15C,0.0080*%
%ADD16C,0.0004*%
D10*
X002361Y001478D02*
X002511Y001328D01*
X002661Y001478D01*
X002661Y001779D01*
X002361Y001779D02*
X002361Y001478D01*
X003631Y001403D02*
X003706Y001328D01*
X003856Y001328D01*
X003931Y001403D01*
X003931Y001553D01*
X003781Y001553D01*
X003631Y001704D02*
X003631Y001403D01*
X003631Y001704D02*
X003706Y001779D01*
X003856Y001779D01*
X003931Y001704D01*
X004091Y001779D02*
X004392Y001328D01*
X004392Y001779D01*
X004552Y001779D02*
X004777Y001779D01*
X004852Y001704D01*
X004852Y001403D01*
X004777Y001328D01*
X004552Y001328D01*
X004552Y001779D01*
X004091Y001779D02*
X004091Y001328D01*
X022296Y006760D02*
X022296Y006866D01*
X022896Y006488D02*
X022896Y008138D01*
X022296Y007866D02*
X022296Y007760D01*
D11*
X014876Y003323D02*
X014206Y003993D01*
X013970Y003993D01*
X013222Y003993D02*
X012986Y003993D01*
X012316Y003323D01*
X012316Y001434D01*
X013222Y001434D01*
X013970Y001434D02*
X014876Y001434D01*
X014876Y003323D01*
X003148Y001478D02*
X003148Y001323D01*
X003148Y001478D02*
X003096Y001530D01*
X002941Y001530D01*
X002941Y001323D01*
X002829Y001323D02*
X002726Y001323D01*
X002778Y001323D02*
X002778Y001530D01*
X002726Y001530D01*
X002778Y001634D02*
X002778Y001685D01*
D12*
X006246Y001623D02*
X006516Y001623D01*
X006606Y001533D01*
X006606Y001443D01*
X006516Y001353D01*
X006246Y001353D01*
X006246Y001894D01*
X006516Y001894D01*
X006606Y001804D01*
X006606Y001714D01*
X006516Y001623D01*
X006798Y001714D02*
X006798Y001443D01*
X006889Y001353D01*
X007159Y001353D01*
X007159Y001714D01*
X007351Y001714D02*
X007531Y001714D01*
X007441Y001804D02*
X007441Y001443D01*
X007531Y001353D01*
X007809Y001443D02*
X007899Y001353D01*
X007809Y001443D02*
X007809Y001804D01*
X007719Y001714D02*
X007899Y001714D01*
X008088Y001623D02*
X008088Y001443D01*
X008178Y001353D01*
X008358Y001353D01*
X008448Y001443D01*
X008448Y001623D01*
X008358Y001714D01*
X008178Y001714D01*
X008088Y001623D01*
X008640Y001714D02*
X008640Y001353D01*
X009000Y001353D02*
X009000Y001623D01*
X008910Y001714D01*
X008640Y001714D01*
X009976Y001884D02*
X009976Y001343D01*
X010336Y001343D01*
X010528Y001343D02*
X010889Y001343D01*
X011081Y001343D02*
X011351Y001343D01*
X011441Y001433D01*
X011441Y001794D01*
X011351Y001884D01*
X011081Y001884D01*
X011081Y001343D01*
X010709Y001613D02*
X010528Y001613D01*
X010528Y001343D02*
X010528Y001884D01*
X010889Y001884D01*
X014916Y006213D02*
X014916Y006623D01*
X015496Y007453D02*
X015656Y007613D01*
X012406Y008813D02*
X012006Y008813D01*
X015236Y010703D02*
X015236Y011103D01*
X023226Y011018D02*
X023226Y010748D01*
X023766Y010748D01*
X023586Y010748D02*
X023586Y011018D01*
X023496Y011109D01*
X023316Y011109D01*
X023226Y011018D01*
X023586Y010928D02*
X023766Y011109D01*
X023676Y010556D02*
X023316Y010556D01*
X023226Y010466D01*
X023226Y010196D01*
X023766Y010196D01*
X023766Y010466D01*
X023676Y010556D01*
X023766Y010004D02*
X023766Y009643D01*
X023226Y009643D01*
X023496Y008311D02*
X023676Y008311D01*
X023766Y008221D01*
X023766Y007951D01*
X023946Y007951D02*
X023406Y007951D01*
X023406Y008221D01*
X023496Y008311D01*
X023496Y007759D02*
X023406Y007668D01*
X023496Y007578D01*
X023766Y007578D01*
X023766Y007759D02*
X023496Y007759D01*
X023496Y007578D02*
X023406Y007488D01*
X023406Y007398D01*
X023766Y007398D01*
X023586Y007206D02*
X023586Y006846D01*
X023676Y006846D02*
X023496Y006846D01*
X023406Y006936D01*
X023406Y007116D01*
X023496Y007206D01*
X023586Y007206D01*
X023766Y007116D02*
X023766Y006936D01*
X023676Y006846D01*
X023226Y006654D02*
X023226Y006293D01*
X023226Y006473D02*
X023766Y006473D01*
X023766Y004718D02*
X023766Y004448D01*
X023676Y004358D01*
X023406Y004358D01*
X023406Y004170D02*
X023406Y003990D01*
X023316Y004080D02*
X023676Y004080D01*
X023766Y004170D01*
X023766Y003802D02*
X023766Y003621D01*
X023766Y003712D02*
X023406Y003712D01*
X023406Y003621D01*
X023406Y003429D02*
X023406Y003159D01*
X023496Y003069D01*
X023676Y003069D01*
X023766Y003159D01*
X023766Y003429D01*
X023226Y003429D01*
X023226Y003712D02*
X023135Y003712D01*
X023135Y002791D02*
X023226Y002791D01*
X023406Y002791D02*
X023766Y002791D01*
X023766Y002701D02*
X023766Y002881D01*
X023406Y002791D02*
X023406Y002701D01*
X023496Y002509D02*
X023406Y002418D01*
X023496Y002328D01*
X023766Y002328D01*
X023766Y002148D02*
X023406Y002148D01*
X023406Y002238D01*
X023496Y002328D01*
X023496Y002509D02*
X023766Y002509D01*
X023766Y001956D02*
X023406Y001956D01*
X023766Y001956D02*
X023766Y001686D01*
X023676Y001596D01*
X023406Y001596D01*
X023496Y001404D02*
X023496Y001043D01*
X023766Y001043D02*
X023226Y001043D01*
X023226Y001404D02*
X023766Y001404D01*
X023946Y004538D02*
X023946Y004628D01*
X023856Y004718D01*
X023406Y004718D01*
X006846Y011333D02*
X006576Y011333D01*
X006486Y011423D01*
X006486Y011603D01*
X006576Y011693D01*
X006846Y011693D01*
X006846Y011873D02*
X006846Y011333D01*
X006294Y011513D02*
X006294Y011873D01*
X006294Y011693D02*
X006113Y011513D01*
X006023Y011513D01*
X005833Y011603D02*
X005833Y011783D01*
X005743Y011873D01*
X005563Y011873D01*
X005473Y011783D01*
X005473Y011603D01*
X005563Y011513D01*
X005743Y011513D01*
X005833Y011603D01*
X005281Y011603D02*
X005191Y011513D01*
X004920Y011513D01*
X004920Y011963D01*
X005010Y012053D01*
X005101Y012053D01*
X005191Y011873D02*
X004920Y011873D01*
X004728Y011873D02*
X004728Y011513D01*
X004548Y011513D02*
X004458Y011513D01*
X004548Y011513D02*
X004728Y011693D01*
X004268Y011783D02*
X004178Y011693D01*
X003907Y011693D01*
X003907Y011603D02*
X003907Y011873D01*
X004178Y011873D01*
X004268Y011783D01*
X003998Y011513D02*
X003907Y011603D01*
X003998Y011513D02*
X004178Y011513D01*
X003715Y011513D02*
X003625Y011513D01*
X003535Y011603D01*
X003445Y011513D01*
X003355Y011603D01*
X003355Y011873D01*
X003535Y011873D02*
X003535Y011603D01*
X003715Y011513D02*
X003715Y011873D01*
X003163Y011873D02*
X003163Y011513D01*
X003073Y011513D01*
X002983Y011603D01*
X002893Y011513D01*
X002803Y011603D01*
X002803Y011873D01*
X002983Y011873D02*
X002983Y011603D01*
X002610Y011603D02*
X002520Y011513D01*
X002340Y011513D01*
X002250Y011603D01*
X002250Y011693D01*
X002610Y011693D01*
X002610Y011783D02*
X002610Y011603D01*
X002610Y011783D02*
X002520Y011873D01*
X002340Y011873D01*
X002058Y011873D02*
X002058Y011513D01*
X002058Y011693D02*
X001878Y011513D01*
X001788Y011513D01*
X005191Y011873D02*
X005281Y011783D01*
X005281Y011603D01*
D13*
X005044Y006998D02*
X004898Y006998D01*
X004861Y006962D01*
X004861Y006888D01*
X004898Y006851D01*
X004971Y006851D01*
X004971Y006925D01*
X005044Y006998D02*
X005081Y006962D01*
X005081Y006888D01*
X005044Y006851D01*
X005081Y006768D02*
X004861Y006768D01*
X004861Y006621D02*
X005081Y006621D01*
X005081Y006538D02*
X005081Y006428D01*
X005044Y006391D01*
X004898Y006391D01*
X004861Y006428D01*
X004861Y006538D01*
X005081Y006538D01*
X005081Y006768D02*
X004861Y006621D01*
X004081Y006668D02*
X004044Y006631D01*
X003898Y006631D01*
X003861Y006668D01*
X003861Y006778D01*
X004081Y006778D01*
X004081Y006668D01*
X004081Y006548D02*
X004081Y006401D01*
X004044Y006401D01*
X003898Y006548D01*
X003861Y006548D01*
X003971Y006861D02*
X003934Y006898D01*
X003934Y007008D01*
X003861Y007008D02*
X004081Y007008D01*
X004081Y006898D01*
X004044Y006861D01*
X003971Y006861D01*
X003081Y006898D02*
X003044Y006861D01*
X002971Y006861D01*
X002934Y006898D01*
X002934Y007008D01*
X002861Y007008D02*
X003081Y007008D01*
X003081Y006898D01*
X003081Y006778D02*
X002861Y006778D01*
X002861Y006668D01*
X002898Y006631D01*
X003044Y006631D01*
X003081Y006668D01*
X003081Y006778D01*
X002971Y006548D02*
X002898Y006548D01*
X002861Y006511D01*
X002861Y006438D01*
X002898Y006401D01*
X002934Y006401D01*
X002971Y006438D01*
X002971Y006548D01*
X003044Y006474D01*
X003081Y006401D01*
X002081Y006438D02*
X002044Y006401D01*
X002008Y006401D01*
X001971Y006438D01*
X001934Y006401D01*
X001898Y006401D01*
X001861Y006438D01*
X001861Y006511D01*
X001898Y006548D01*
X001971Y006474D02*
X001971Y006438D01*
X002081Y006438D02*
X002081Y006511D01*
X002044Y006548D01*
X002008Y006631D02*
X001861Y006705D01*
X002008Y006778D01*
X002008Y006861D02*
X001971Y006898D01*
X001934Y006861D01*
X001898Y006861D01*
X001861Y006898D01*
X001861Y006972D01*
X001898Y007008D01*
X001971Y006935D02*
X001971Y006898D01*
X002008Y006861D02*
X002044Y006861D01*
X002081Y006898D01*
X002081Y006972D01*
X002044Y007008D01*
X002081Y004008D02*
X001861Y004008D01*
X001934Y004008D02*
X001934Y003898D01*
X001971Y003861D01*
X002044Y003861D01*
X002081Y003898D01*
X002081Y004008D01*
X002081Y003778D02*
X001861Y003778D01*
X001861Y003668D01*
X001898Y003631D01*
X001934Y003631D01*
X001971Y003668D01*
X001971Y003778D01*
X001971Y003668D02*
X002008Y003631D01*
X002044Y003631D01*
X002081Y003668D01*
X002081Y003778D01*
X002044Y003548D02*
X001898Y003548D01*
X002044Y003401D01*
X001898Y003401D01*
X001861Y003438D01*
X001861Y003511D01*
X001898Y003548D01*
X002044Y003548D02*
X002081Y003511D01*
X002081Y003438D01*
X002044Y003401D01*
X002861Y003438D02*
X002861Y003511D01*
X002898Y003548D01*
X003044Y003401D01*
X002898Y003401D01*
X002861Y003438D01*
X002898Y003548D02*
X003044Y003548D01*
X003081Y003511D01*
X003081Y003438D01*
X003044Y003401D01*
X003044Y003631D02*
X002898Y003631D01*
X002861Y003668D01*
X002861Y003778D01*
X003081Y003778D01*
X003081Y003668D01*
X003044Y003631D01*
X003044Y003861D02*
X002971Y003861D01*
X002934Y003898D01*
X002934Y004008D01*
X002861Y004008D02*
X003081Y004008D01*
X003081Y003898D01*
X003044Y003861D01*
X003861Y003778D02*
X003861Y003668D01*
X003898Y003631D01*
X004044Y003631D01*
X004081Y003668D01*
X004081Y003778D01*
X003861Y003778D01*
X003971Y003861D02*
X003934Y003898D01*
X003934Y004008D01*
X003861Y004008D02*
X004081Y004008D01*
X004081Y003898D01*
X004044Y003861D01*
X003971Y003861D01*
X004008Y003548D02*
X004081Y003474D01*
X003861Y003474D01*
X003861Y003401D02*
X003861Y003548D01*
X004861Y003538D02*
X004861Y003391D01*
X004861Y003464D02*
X005081Y003464D01*
X005008Y003538D01*
X005044Y003621D02*
X005081Y003658D01*
X005081Y003731D01*
X005044Y003768D01*
X004898Y003768D01*
X004861Y003731D01*
X004861Y003658D01*
X004898Y003621D01*
X004971Y003851D02*
X004934Y003888D01*
X004934Y003998D01*
X004861Y003998D02*
X005081Y003998D01*
X005081Y003888D01*
X005044Y003851D01*
X004971Y003851D01*
X016507Y007096D02*
X016821Y007410D01*
X016507Y007096D01*
X016507Y007253D02*
X016821Y007253D01*
X016507Y007253D01*
X016507Y007410D02*
X016821Y007096D01*
X016507Y007410D01*
X016664Y007410D02*
X016664Y007096D01*
X016664Y007410D01*
D14*
X022908Y008157D02*
X022880Y008121D01*
X022880Y008122D02*
X022832Y008157D01*
X022782Y008190D01*
X022730Y008220D01*
X022677Y008246D01*
X022695Y008287D01*
X022696Y008287D01*
X022752Y008259D01*
X022806Y008228D01*
X022858Y008194D01*
X022908Y008157D01*
X022906Y008154D01*
X022856Y008191D01*
X022804Y008225D01*
X022750Y008256D01*
X022694Y008284D01*
X022692Y008280D01*
X022748Y008252D01*
X022802Y008222D01*
X022853Y008188D01*
X022903Y008151D01*
X022901Y008148D01*
X022851Y008184D01*
X022799Y008218D01*
X022746Y008249D01*
X022691Y008276D01*
X022689Y008273D01*
X022744Y008245D01*
X022797Y008215D01*
X022849Y008181D01*
X022898Y008145D01*
X022896Y008141D01*
X022847Y008178D01*
X022795Y008211D01*
X022742Y008242D01*
X022687Y008269D01*
X022686Y008265D01*
X022740Y008238D01*
X022793Y008208D01*
X022844Y008175D01*
X022893Y008138D01*
X022891Y008135D01*
X022842Y008171D01*
X022791Y008205D01*
X022738Y008235D01*
X022684Y008262D01*
X022682Y008258D01*
X022736Y008231D01*
X022789Y008201D01*
X022840Y008168D01*
X022888Y008132D01*
X022886Y008129D01*
X022837Y008165D01*
X022787Y008198D01*
X022735Y008228D01*
X022681Y008255D01*
X022679Y008251D01*
X022733Y008224D01*
X022785Y008194D01*
X022835Y008161D01*
X022884Y008126D01*
X022881Y008123D01*
X022833Y008158D01*
X022783Y008191D01*
X022731Y008221D01*
X022677Y008247D01*
X021787Y008282D02*
X021806Y008242D01*
X021750Y008213D01*
X021696Y008182D01*
X021644Y008146D01*
X021595Y008108D01*
X021547Y008067D01*
X021503Y008023D01*
X021461Y007976D01*
X021422Y007927D01*
X021386Y007876D01*
X021353Y007822D01*
X021324Y007767D01*
X021298Y007710D01*
X021275Y007651D01*
X021256Y007592D01*
X021241Y007531D01*
X021230Y007469D01*
X021222Y007407D01*
X021218Y007344D01*
X021218Y007282D01*
X021222Y007219D01*
X021230Y007157D01*
X021241Y007095D01*
X021256Y007034D01*
X021275Y006975D01*
X021298Y006916D01*
X021324Y006859D01*
X021353Y006804D01*
X021386Y006750D01*
X021422Y006699D01*
X021461Y006650D01*
X021503Y006603D01*
X021547Y006559D01*
X021595Y006518D01*
X021644Y006480D01*
X021696Y006444D01*
X021750Y006413D01*
X021806Y006384D01*
X021787Y006344D01*
X021787Y006343D01*
X021728Y006373D01*
X021672Y006406D01*
X021618Y006443D01*
X021566Y006483D01*
X021517Y006526D01*
X021470Y006572D01*
X021426Y006621D01*
X021386Y006672D01*
X021348Y006725D01*
X021314Y006781D01*
X021283Y006839D01*
X021256Y006899D01*
X021233Y006960D01*
X021213Y007022D01*
X021197Y007086D01*
X021185Y007150D01*
X021177Y007215D01*
X021173Y007280D01*
X021173Y007346D01*
X021177Y007411D01*
X021185Y007476D01*
X021197Y007540D01*
X021213Y007604D01*
X021233Y007666D01*
X021256Y007727D01*
X021283Y007787D01*
X021314Y007845D01*
X021348Y007901D01*
X021386Y007954D01*
X021426Y008005D01*
X021470Y008054D01*
X021517Y008100D01*
X021566Y008143D01*
X021618Y008183D01*
X021672Y008220D01*
X021728Y008253D01*
X021787Y008283D01*
X021788Y008279D01*
X021730Y008249D01*
X021674Y008216D01*
X021620Y008180D01*
X021569Y008140D01*
X021519Y008097D01*
X021473Y008051D01*
X021429Y008003D01*
X021389Y007952D01*
X021352Y007898D01*
X021318Y007843D01*
X021287Y007785D01*
X021260Y007726D01*
X021237Y007665D01*
X021217Y007603D01*
X021201Y007539D01*
X021189Y007475D01*
X021181Y007411D01*
X021177Y007346D01*
X021177Y007280D01*
X021181Y007215D01*
X021189Y007151D01*
X021201Y007087D01*
X021217Y007023D01*
X021237Y006961D01*
X021260Y006900D01*
X021287Y006841D01*
X021318Y006783D01*
X021352Y006728D01*
X021389Y006674D01*
X021429Y006623D01*
X021473Y006575D01*
X021519Y006529D01*
X021569Y006486D01*
X021620Y006446D01*
X021674Y006410D01*
X021730Y006377D01*
X021788Y006347D01*
X021790Y006350D01*
X021732Y006380D01*
X021676Y006413D01*
X021623Y006450D01*
X021571Y006489D01*
X021522Y006532D01*
X021476Y006577D01*
X021432Y006626D01*
X021392Y006677D01*
X021355Y006730D01*
X021321Y006785D01*
X021291Y006843D01*
X021264Y006902D01*
X021240Y006962D01*
X021221Y007024D01*
X021205Y007087D01*
X021193Y007151D01*
X021185Y007216D01*
X021181Y007281D01*
X021181Y007345D01*
X021185Y007410D01*
X021193Y007475D01*
X021205Y007539D01*
X021221Y007602D01*
X021240Y007664D01*
X021264Y007724D01*
X021291Y007783D01*
X021321Y007841D01*
X021355Y007896D01*
X021392Y007949D01*
X021432Y008000D01*
X021476Y008049D01*
X021522Y008094D01*
X021571Y008137D01*
X021623Y008176D01*
X021676Y008213D01*
X021732Y008246D01*
X021790Y008276D01*
X021792Y008272D01*
X021734Y008242D01*
X021679Y008209D01*
X021625Y008173D01*
X021574Y008134D01*
X021525Y008091D01*
X021479Y008046D01*
X021436Y007998D01*
X021395Y007947D01*
X021358Y007894D01*
X021324Y007839D01*
X021294Y007782D01*
X021267Y007723D01*
X021244Y007662D01*
X021225Y007601D01*
X021209Y007538D01*
X021197Y007474D01*
X021189Y007410D01*
X021185Y007345D01*
X021185Y007281D01*
X021189Y007216D01*
X021197Y007152D01*
X021209Y007088D01*
X021225Y007025D01*
X021244Y006964D01*
X021267Y006903D01*
X021294Y006844D01*
X021324Y006787D01*
X021358Y006732D01*
X021395Y006679D01*
X021436Y006628D01*
X021479Y006580D01*
X021525Y006535D01*
X021574Y006492D01*
X021625Y006453D01*
X021679Y006417D01*
X021734Y006384D01*
X021792Y006354D01*
X021794Y006358D01*
X021736Y006387D01*
X021681Y006420D01*
X021627Y006456D01*
X021576Y006495D01*
X021528Y006538D01*
X021482Y006583D01*
X021439Y006631D01*
X021398Y006681D01*
X021362Y006734D01*
X021328Y006789D01*
X021298Y006846D01*
X021271Y006905D01*
X021248Y006965D01*
X021229Y007026D01*
X021213Y007089D01*
X021201Y007152D01*
X021193Y007216D01*
X021189Y007281D01*
X021189Y007345D01*
X021193Y007410D01*
X021201Y007474D01*
X021213Y007537D01*
X021229Y007600D01*
X021248Y007661D01*
X021271Y007721D01*
X021298Y007780D01*
X021328Y007837D01*
X021362Y007892D01*
X021398Y007945D01*
X021439Y007995D01*
X021482Y008043D01*
X021528Y008088D01*
X021576Y008131D01*
X021627Y008170D01*
X021681Y008206D01*
X021736Y008239D01*
X021794Y008268D01*
X021795Y008265D01*
X021738Y008235D01*
X021683Y008203D01*
X021630Y008167D01*
X021579Y008128D01*
X021530Y008085D01*
X021485Y008040D01*
X021442Y007993D01*
X021402Y007942D01*
X021365Y007890D01*
X021331Y007835D01*
X021301Y007778D01*
X021275Y007720D01*
X021252Y007660D01*
X021232Y007598D01*
X021217Y007536D01*
X021205Y007473D01*
X021197Y007409D01*
X021193Y007345D01*
X021193Y007281D01*
X021197Y007217D01*
X021205Y007153D01*
X021217Y007090D01*
X021232Y007028D01*
X021252Y006966D01*
X021275Y006906D01*
X021301Y006848D01*
X021331Y006791D01*
X021365Y006736D01*
X021402Y006684D01*
X021442Y006633D01*
X021485Y006586D01*
X021530Y006541D01*
X021579Y006498D01*
X021630Y006459D01*
X021683Y006423D01*
X021738Y006391D01*
X021795Y006361D01*
X021797Y006365D01*
X021740Y006394D01*
X021685Y006427D01*
X021632Y006463D01*
X021581Y006502D01*
X021533Y006544D01*
X021487Y006588D01*
X021445Y006636D01*
X021405Y006686D01*
X021368Y006739D01*
X021335Y006793D01*
X021305Y006850D01*
X021278Y006908D01*
X021255Y006968D01*
X021236Y007029D01*
X021221Y007091D01*
X021209Y007154D01*
X021201Y007217D01*
X021197Y007281D01*
X021197Y007345D01*
X021201Y007409D01*
X021209Y007472D01*
X021221Y007535D01*
X021236Y007597D01*
X021255Y007658D01*
X021278Y007718D01*
X021305Y007776D01*
X021335Y007833D01*
X021368Y007887D01*
X021405Y007940D01*
X021445Y007990D01*
X021487Y008038D01*
X021533Y008082D01*
X021581Y008124D01*
X021632Y008163D01*
X021685Y008199D01*
X021740Y008232D01*
X021797Y008261D01*
X021799Y008257D01*
X021742Y008228D01*
X021687Y008196D01*
X021634Y008160D01*
X021584Y008121D01*
X021536Y008080D01*
X021490Y008035D01*
X021448Y007987D01*
X021408Y007937D01*
X021372Y007885D01*
X021338Y007831D01*
X021308Y007775D01*
X021282Y007717D01*
X021259Y007657D01*
X021240Y007596D01*
X021225Y007534D01*
X021213Y007472D01*
X021205Y007408D01*
X021201Y007345D01*
X021201Y007281D01*
X021205Y007218D01*
X021213Y007154D01*
X021225Y007092D01*
X021240Y007030D01*
X021259Y006969D01*
X021282Y006909D01*
X021308Y006851D01*
X021338Y006795D01*
X021372Y006741D01*
X021408Y006689D01*
X021448Y006639D01*
X021490Y006591D01*
X021536Y006546D01*
X021584Y006505D01*
X021634Y006466D01*
X021687Y006430D01*
X021742Y006398D01*
X021799Y006369D01*
X021800Y006372D01*
X021744Y006401D01*
X021689Y006433D01*
X021637Y006469D01*
X021586Y006508D01*
X021538Y006549D01*
X021493Y006594D01*
X021451Y006641D01*
X021411Y006691D01*
X021375Y006743D01*
X021342Y006797D01*
X021312Y006853D01*
X021286Y006911D01*
X021263Y006970D01*
X021244Y007031D01*
X021229Y007092D01*
X021217Y007155D01*
X021209Y007218D01*
X021205Y007281D01*
X021205Y007345D01*
X021209Y007408D01*
X021217Y007471D01*
X021229Y007534D01*
X021244Y007595D01*
X021263Y007656D01*
X021286Y007715D01*
X021312Y007773D01*
X021342Y007829D01*
X021375Y007883D01*
X021411Y007935D01*
X021451Y007985D01*
X021493Y008032D01*
X021538Y008077D01*
X021586Y008118D01*
X021637Y008157D01*
X021689Y008193D01*
X021744Y008225D01*
X021800Y008254D01*
X021802Y008250D01*
X021746Y008221D01*
X021691Y008189D01*
X021639Y008154D01*
X021589Y008115D01*
X021541Y008074D01*
X021496Y008029D01*
X021454Y007982D01*
X021415Y007933D01*
X021378Y007881D01*
X021345Y007827D01*
X021316Y007771D01*
X021289Y007713D01*
X021267Y007654D01*
X021248Y007594D01*
X021233Y007533D01*
X021221Y007471D01*
X021213Y007408D01*
X021209Y007345D01*
X021209Y007281D01*
X021213Y007218D01*
X021221Y007155D01*
X021233Y007093D01*
X021248Y007032D01*
X021267Y006972D01*
X021289Y006913D01*
X021316Y006855D01*
X021345Y006799D01*
X021378Y006745D01*
X021415Y006693D01*
X021454Y006644D01*
X021496Y006597D01*
X021541Y006552D01*
X021589Y006511D01*
X021639Y006472D01*
X021691Y006437D01*
X021746Y006405D01*
X021802Y006376D01*
X021804Y006379D01*
X021748Y006408D01*
X021693Y006440D01*
X021641Y006476D01*
X021591Y006514D01*
X021544Y006555D01*
X021499Y006600D01*
X021457Y006646D01*
X021418Y006696D01*
X021382Y006747D01*
X021349Y006801D01*
X021319Y006857D01*
X021293Y006914D01*
X021271Y006973D01*
X021252Y007033D01*
X021236Y007094D01*
X021225Y007156D01*
X021217Y007219D01*
X021213Y007282D01*
X021213Y007344D01*
X021217Y007407D01*
X021225Y007470D01*
X021236Y007532D01*
X021252Y007593D01*
X021271Y007653D01*
X021293Y007712D01*
X021319Y007769D01*
X021349Y007825D01*
X021382Y007879D01*
X021418Y007930D01*
X021457Y007980D01*
X021499Y008026D01*
X021544Y008071D01*
X021591Y008112D01*
X021641Y008150D01*
X021693Y008186D01*
X021748Y008218D01*
X021804Y008247D01*
X021805Y008243D01*
X021750Y008214D01*
X021696Y008182D01*
X021644Y008147D01*
X021594Y008109D01*
X021547Y008068D01*
X021502Y008024D01*
X021460Y007977D01*
X021421Y007928D01*
X021385Y007876D01*
X021352Y007823D01*
X021323Y007767D01*
X021297Y007710D01*
X021274Y007652D01*
X021256Y007592D01*
X021240Y007531D01*
X021229Y007469D01*
X021221Y007407D01*
X021217Y007344D01*
X021217Y007282D01*
X021221Y007219D01*
X021229Y007157D01*
X021240Y007095D01*
X021256Y007034D01*
X021274Y006974D01*
X021297Y006916D01*
X021323Y006859D01*
X021352Y006803D01*
X021385Y006750D01*
X021421Y006698D01*
X021460Y006649D01*
X021502Y006602D01*
X021547Y006558D01*
X021594Y006517D01*
X021644Y006479D01*
X021696Y006444D01*
X021750Y006412D01*
X021805Y006383D01*
X022705Y006344D02*
X022686Y006384D01*
X022737Y006410D01*
X022787Y006439D01*
X022834Y006470D01*
X022880Y006504D01*
X022908Y006469D01*
X022860Y006433D01*
X022810Y006400D01*
X022759Y006370D01*
X022705Y006343D01*
X022704Y006347D01*
X022757Y006374D01*
X022808Y006404D01*
X022858Y006436D01*
X022906Y006472D01*
X022903Y006475D01*
X022856Y006440D01*
X022806Y006407D01*
X022755Y006377D01*
X022702Y006351D01*
X022700Y006354D01*
X022753Y006381D01*
X022804Y006411D01*
X022853Y006443D01*
X022901Y006478D01*
X022898Y006481D01*
X022851Y006446D01*
X022802Y006414D01*
X022751Y006384D01*
X022698Y006358D01*
X022697Y006361D01*
X022749Y006388D01*
X022800Y006417D01*
X022849Y006450D01*
X022896Y006485D01*
X022893Y006488D01*
X022846Y006453D01*
X022798Y006421D01*
X022747Y006391D01*
X022695Y006365D01*
X022693Y006369D01*
X022745Y006395D01*
X022796Y006424D01*
X022844Y006456D01*
X022891Y006491D01*
X022888Y006494D01*
X022842Y006459D01*
X022793Y006428D01*
X022743Y006398D01*
X022692Y006372D01*
X022690Y006376D01*
X022741Y006402D01*
X022791Y006431D01*
X022840Y006463D01*
X022886Y006497D01*
X022884Y006500D01*
X022837Y006466D01*
X022789Y006434D01*
X022740Y006406D01*
X022688Y006379D01*
X022687Y006383D01*
X022738Y006409D01*
X022787Y006438D01*
X022835Y006469D01*
X022881Y006503D01*
D15*
X022496Y004913D02*
X021996Y004913D01*
X021746Y004663D01*
X021746Y004163D01*
X021996Y003913D01*
X021746Y003663D01*
X021746Y003163D01*
X021996Y002913D01*
X021746Y002663D01*
X021746Y002163D01*
X021996Y001913D01*
X021746Y001663D01*
X021746Y001163D01*
X021996Y000913D01*
X022496Y000913D01*
X022746Y001163D01*
X022746Y001663D01*
X022496Y001913D01*
X022746Y002163D01*
X022746Y002663D01*
X022496Y002913D01*
X022746Y003163D01*
X022746Y003663D01*
X022496Y003913D01*
X022746Y004163D01*
X022746Y004663D01*
X022496Y004913D01*
X019676Y008193D02*
X017096Y008193D01*
X017096Y009493D01*
X019676Y009493D01*
X019676Y008193D01*
X021746Y009513D02*
X021746Y010013D01*
X021996Y010263D01*
X021746Y010513D01*
X021746Y011013D01*
X021996Y011263D01*
X022496Y011263D01*
X022746Y011013D01*
X022746Y010513D01*
X022496Y010263D01*
X022746Y010013D01*
X022746Y009513D01*
X022496Y009263D01*
X021996Y009263D01*
X021746Y009513D01*
X011296Y008663D02*
X011296Y008163D01*
X011196Y008163D02*
X010946Y007913D01*
X009446Y007913D01*
X009196Y008163D01*
X009196Y008663D01*
X009446Y008913D01*
X009196Y009163D01*
X009196Y009663D01*
X009446Y009913D01*
X009196Y010163D01*
X009196Y010663D01*
X009446Y010913D01*
X009196Y011163D01*
X009196Y011663D01*
X009446Y011913D01*
X010946Y011913D01*
X011196Y011663D01*
X011196Y011163D01*
X010946Y010913D01*
X011196Y010663D01*
X011196Y010163D01*
X010946Y009913D01*
X011196Y009663D01*
X011196Y009163D01*
X010946Y008913D01*
X011196Y008663D01*
X011196Y008163D01*
X010946Y007913D01*
X009446Y007913D01*
X009196Y008163D01*
X005466Y005993D02*
X005216Y006243D01*
X004716Y006243D01*
X004466Y005993D01*
X004216Y006243D01*
X003716Y006243D01*
X003466Y005993D01*
X003216Y006243D01*
X002716Y006243D01*
X002466Y005993D01*
X002216Y006243D01*
X001716Y006243D01*
X001466Y005993D01*
X001466Y004493D01*
X001716Y004243D01*
X002216Y004243D01*
X002466Y004493D01*
X002716Y004243D01*
X003216Y004243D01*
X003466Y004493D01*
X003716Y004243D01*
X004216Y004243D01*
X004466Y004493D01*
X004716Y004243D01*
X005216Y004243D01*
X005466Y004493D01*
X005466Y005993D01*
X006988Y004513D02*
X007976Y004513D01*
X008476Y004120D02*
X008476Y002907D01*
X007964Y002513D02*
X006988Y002513D01*
X006476Y002907D02*
X006476Y004120D01*
X006976Y003513D02*
X006978Y003557D01*
X006984Y003601D01*
X006994Y003644D01*
X007007Y003686D01*
X007024Y003727D01*
X007045Y003766D01*
X007069Y003803D01*
X007096Y003838D01*
X007126Y003870D01*
X007159Y003900D01*
X007195Y003926D01*
X007232Y003950D01*
X007272Y003969D01*
X007313Y003986D01*
X007356Y003998D01*
X007399Y004007D01*
X007443Y004012D01*
X007487Y004013D01*
X007531Y004010D01*
X007575Y004003D01*
X007618Y003992D01*
X007660Y003978D01*
X007700Y003960D01*
X007739Y003938D01*
X007775Y003914D01*
X007809Y003886D01*
X007841Y003855D01*
X007870Y003821D01*
X007896Y003785D01*
X007918Y003747D01*
X007937Y003707D01*
X007952Y003665D01*
X007964Y003623D01*
X007972Y003579D01*
X007976Y003535D01*
X007976Y003491D01*
X007972Y003447D01*
X007964Y003403D01*
X007952Y003361D01*
X007937Y003319D01*
X007918Y003279D01*
X007896Y003241D01*
X007870Y003205D01*
X007841Y003171D01*
X007809Y003140D01*
X007775Y003112D01*
X007739Y003088D01*
X007700Y003066D01*
X007660Y003048D01*
X007618Y003034D01*
X007575Y003023D01*
X007531Y003016D01*
X007487Y003013D01*
X007443Y003014D01*
X007399Y003019D01*
X007356Y003028D01*
X007313Y003040D01*
X007272Y003057D01*
X007232Y003076D01*
X007195Y003100D01*
X007159Y003126D01*
X007126Y003156D01*
X007096Y003188D01*
X007069Y003223D01*
X007045Y003260D01*
X007024Y003299D01*
X007007Y003340D01*
X006994Y003382D01*
X006984Y003425D01*
X006978Y003469D01*
X006976Y003513D01*
X004396Y002773D02*
X004396Y002273D01*
X004146Y002023D01*
X003646Y002023D01*
X003396Y002273D01*
X003146Y002023D01*
X002646Y002023D01*
X002396Y002273D01*
X002396Y002773D01*
X002646Y003023D01*
X003146Y003023D01*
X003396Y002773D01*
X003646Y003023D01*
X004146Y003023D01*
X004396Y002773D01*
X002216Y004143D02*
X001716Y004143D01*
X001716Y004243D02*
X001466Y004493D01*
X001466Y005993D01*
X001716Y006243D01*
X002256Y008241D02*
X002756Y008241D01*
D16*
X013977Y001536D02*
X013966Y001570D01*
X013966Y001569D02*
X014031Y001593D01*
X014094Y001619D01*
X014156Y001649D01*
X014216Y001683D01*
X014274Y001720D01*
X014329Y001761D01*
X014383Y001804D01*
X014433Y001851D01*
X014481Y001900D01*
X014526Y001952D01*
X014568Y002006D01*
X014607Y002063D01*
X014642Y002122D01*
X014674Y002182D01*
X014703Y002245D01*
X014728Y002309D01*
X014749Y002374D01*
X014767Y002441D01*
X014780Y002508D01*
X014790Y002576D01*
X014796Y002644D01*
X014798Y002713D01*
X014796Y002782D01*
X014790Y002850D01*
X014780Y002918D01*
X014767Y002985D01*
X014749Y003052D01*
X014728Y003117D01*
X014703Y003181D01*
X014674Y003244D01*
X014642Y003304D01*
X014607Y003363D01*
X014568Y003420D01*
X014526Y003474D01*
X014481Y003526D01*
X014433Y003575D01*
X014383Y003622D01*
X014329Y003665D01*
X014274Y003706D01*
X014216Y003743D01*
X014156Y003777D01*
X014094Y003807D01*
X014031Y003833D01*
X013966Y003857D01*
X013977Y003890D01*
X013977Y003891D01*
X014043Y003868D01*
X014106Y003841D01*
X014169Y003811D01*
X014229Y003777D01*
X014287Y003740D01*
X014344Y003700D01*
X014398Y003656D01*
X014449Y003610D01*
X014498Y003561D01*
X014544Y003509D01*
X014587Y003455D01*
X014627Y003399D01*
X014664Y003340D01*
X014697Y003279D01*
X014727Y003217D01*
X014753Y003153D01*
X014776Y003088D01*
X014795Y003021D01*
X014810Y002954D01*
X014822Y002885D01*
X014830Y002817D01*
X014834Y002748D01*
X014834Y002678D01*
X014830Y002609D01*
X014822Y002541D01*
X014810Y002472D01*
X014795Y002405D01*
X014776Y002338D01*
X014753Y002273D01*
X014727Y002209D01*
X014697Y002147D01*
X014664Y002086D01*
X014627Y002027D01*
X014587Y001971D01*
X014544Y001917D01*
X014498Y001865D01*
X014449Y001816D01*
X014398Y001770D01*
X014344Y001726D01*
X014287Y001686D01*
X014229Y001649D01*
X014169Y001615D01*
X014106Y001585D01*
X014043Y001558D01*
X013977Y001535D01*
X013976Y001538D01*
X014042Y001561D01*
X014105Y001588D01*
X014167Y001618D01*
X014228Y001652D01*
X014286Y001689D01*
X014342Y001729D01*
X014396Y001772D01*
X014447Y001818D01*
X014496Y001867D01*
X014542Y001919D01*
X014585Y001973D01*
X014624Y002029D01*
X014661Y002088D01*
X014694Y002148D01*
X014724Y002210D01*
X014750Y002274D01*
X014773Y002339D01*
X014792Y002406D01*
X014807Y002473D01*
X014819Y002541D01*
X014827Y002610D01*
X014831Y002678D01*
X014831Y002748D01*
X014827Y002816D01*
X014819Y002885D01*
X014807Y002953D01*
X014792Y003020D01*
X014773Y003087D01*
X014750Y003152D01*
X014724Y003216D01*
X014694Y003278D01*
X014661Y003338D01*
X014624Y003397D01*
X014585Y003453D01*
X014542Y003507D01*
X014496Y003559D01*
X014447Y003608D01*
X014396Y003654D01*
X014342Y003697D01*
X014286Y003737D01*
X014228Y003774D01*
X014167Y003808D01*
X014105Y003838D01*
X014042Y003865D01*
X013976Y003888D01*
X013976Y003885D01*
X014040Y003862D01*
X014104Y003835D01*
X014166Y003805D01*
X014226Y003772D01*
X014284Y003735D01*
X014340Y003695D01*
X014394Y003652D01*
X014445Y003606D01*
X014494Y003557D01*
X014539Y003505D01*
X014582Y003451D01*
X014622Y003395D01*
X014658Y003337D01*
X014692Y003277D01*
X014721Y003214D01*
X014748Y003151D01*
X014770Y003086D01*
X014789Y003020D01*
X014804Y002952D01*
X014816Y002885D01*
X014824Y002816D01*
X014828Y002747D01*
X014828Y002679D01*
X014824Y002610D01*
X014816Y002541D01*
X014804Y002474D01*
X014789Y002406D01*
X014770Y002340D01*
X014748Y002275D01*
X014721Y002212D01*
X014692Y002149D01*
X014658Y002089D01*
X014622Y002031D01*
X014582Y001975D01*
X014539Y001921D01*
X014494Y001869D01*
X014445Y001820D01*
X014394Y001774D01*
X014340Y001731D01*
X014284Y001691D01*
X014226Y001654D01*
X014166Y001621D01*
X014104Y001591D01*
X014040Y001564D01*
X013976Y001541D01*
X013975Y001544D01*
X014039Y001567D01*
X014103Y001593D01*
X014164Y001623D01*
X014224Y001657D01*
X014282Y001694D01*
X014338Y001734D01*
X014392Y001777D01*
X014443Y001822D01*
X014491Y001871D01*
X014537Y001922D01*
X014580Y001976D01*
X014619Y002032D01*
X014656Y002091D01*
X014689Y002151D01*
X014719Y002213D01*
X014745Y002276D01*
X014767Y002341D01*
X014786Y002407D01*
X014802Y002474D01*
X014813Y002542D01*
X014821Y002610D01*
X014825Y002679D01*
X014825Y002747D01*
X014821Y002816D01*
X014813Y002884D01*
X014802Y002952D01*
X014786Y003019D01*
X014767Y003085D01*
X014745Y003150D01*
X014719Y003213D01*
X014689Y003275D01*
X014656Y003335D01*
X014619Y003394D01*
X014580Y003450D01*
X014537Y003504D01*
X014491Y003555D01*
X014443Y003604D01*
X014392Y003649D01*
X014338Y003692D01*
X014282Y003732D01*
X014224Y003769D01*
X014164Y003803D01*
X014103Y003833D01*
X014039Y003859D01*
X013975Y003882D01*
X013974Y003879D01*
X014038Y003856D01*
X014101Y003830D01*
X014163Y003800D01*
X014223Y003767D01*
X014281Y003730D01*
X014337Y003690D01*
X014390Y003647D01*
X014441Y003601D01*
X014489Y003553D01*
X014535Y003502D01*
X014577Y003448D01*
X014617Y003392D01*
X014653Y003334D01*
X014686Y003274D01*
X014716Y003212D01*
X014742Y003149D01*
X014765Y003084D01*
X014783Y003018D01*
X014799Y002951D01*
X014810Y002884D01*
X014818Y002816D01*
X014822Y002747D01*
X014822Y002679D01*
X014818Y002610D01*
X014810Y002542D01*
X014799Y002475D01*
X014783Y002408D01*
X014765Y002342D01*
X014742Y002277D01*
X014716Y002214D01*
X014686Y002152D01*
X014653Y002092D01*
X014617Y002034D01*
X014577Y001978D01*
X014535Y001924D01*
X014489Y001873D01*
X014441Y001825D01*
X014390Y001779D01*
X014337Y001736D01*
X014281Y001696D01*
X014223Y001659D01*
X014163Y001626D01*
X014101Y001596D01*
X014038Y001570D01*
X013974Y001547D01*
X013973Y001549D01*
X014037Y001572D01*
X014100Y001599D01*
X014162Y001629D01*
X014221Y001662D01*
X014279Y001699D01*
X014335Y001738D01*
X014388Y001781D01*
X014439Y001827D01*
X014487Y001875D01*
X014532Y001926D01*
X014575Y001980D01*
X014614Y002036D01*
X014651Y002094D01*
X014684Y002154D01*
X014713Y002215D01*
X014739Y002278D01*
X014762Y002343D01*
X014781Y002409D01*
X014796Y002475D01*
X014807Y002543D01*
X014815Y002611D01*
X014819Y002679D01*
X014819Y002747D01*
X014815Y002815D01*
X014807Y002883D01*
X014796Y002951D01*
X014781Y003017D01*
X014762Y003083D01*
X014739Y003148D01*
X014713Y003211D01*
X014684Y003272D01*
X014651Y003332D01*
X014614Y003390D01*
X014575Y003446D01*
X014532Y003500D01*
X014487Y003551D01*
X014439Y003599D01*
X014388Y003645D01*
X014335Y003688D01*
X014279Y003727D01*
X014221Y003764D01*
X014162Y003797D01*
X014100Y003827D01*
X014037Y003854D01*
X013973Y003877D01*
X013972Y003874D01*
X014036Y003851D01*
X014099Y003824D01*
X014160Y003795D01*
X014220Y003761D01*
X014277Y003725D01*
X014333Y003685D01*
X014386Y003643D01*
X014437Y003597D01*
X014485Y003549D01*
X014530Y003498D01*
X014573Y003444D01*
X014612Y003389D01*
X014648Y003331D01*
X014681Y003271D01*
X014710Y003210D01*
X014736Y003147D01*
X014759Y003082D01*
X014778Y003017D01*
X014793Y002950D01*
X014804Y002883D01*
X014812Y002815D01*
X014816Y002747D01*
X014816Y002679D01*
X014812Y002611D01*
X014804Y002543D01*
X014793Y002476D01*
X014778Y002409D01*
X014759Y002344D01*
X014736Y002279D01*
X014710Y002216D01*
X014681Y002155D01*
X014648Y002095D01*
X014612Y002037D01*
X014573Y001982D01*
X014530Y001928D01*
X014485Y001877D01*
X014437Y001829D01*
X014386Y001783D01*
X014333Y001741D01*
X014277Y001701D01*
X014220Y001665D01*
X014160Y001631D01*
X014099Y001602D01*
X014036Y001575D01*
X013972Y001552D01*
X013971Y001555D01*
X014035Y001578D01*
X014098Y001604D01*
X014159Y001634D01*
X014218Y001667D01*
X014276Y001704D01*
X014331Y001743D01*
X014384Y001786D01*
X014435Y001831D01*
X014483Y001879D01*
X014528Y001930D01*
X014570Y001984D01*
X014609Y002039D01*
X014645Y002097D01*
X014678Y002156D01*
X014708Y002218D01*
X014734Y002281D01*
X014756Y002345D01*
X014775Y002410D01*
X014790Y002476D01*
X014801Y002543D01*
X014809Y002611D01*
X014813Y002679D01*
X014813Y002747D01*
X014809Y002815D01*
X014801Y002883D01*
X014790Y002950D01*
X014775Y003016D01*
X014756Y003081D01*
X014734Y003145D01*
X014708Y003208D01*
X014678Y003270D01*
X014645Y003329D01*
X014609Y003387D01*
X014570Y003442D01*
X014528Y003496D01*
X014483Y003547D01*
X014435Y003595D01*
X014384Y003640D01*
X014331Y003683D01*
X014276Y003722D01*
X014218Y003759D01*
X014159Y003792D01*
X014098Y003822D01*
X014035Y003848D01*
X013971Y003871D01*
X013970Y003868D01*
X014034Y003845D01*
X014097Y003819D01*
X014158Y003789D01*
X014217Y003756D01*
X014274Y003720D01*
X014329Y003681D01*
X014382Y003638D01*
X014433Y003593D01*
X014480Y003545D01*
X014526Y003494D01*
X014568Y003441D01*
X014607Y003385D01*
X014643Y003328D01*
X014676Y003268D01*
X014705Y003207D01*
X014731Y003144D01*
X014753Y003080D01*
X014772Y003015D01*
X014787Y002949D01*
X014798Y002882D01*
X014806Y002815D01*
X014810Y002747D01*
X014810Y002679D01*
X014806Y002611D01*
X014798Y002544D01*
X014787Y002477D01*
X014772Y002411D01*
X014753Y002346D01*
X014731Y002282D01*
X014705Y002219D01*
X014676Y002158D01*
X014643Y002098D01*
X014607Y002041D01*
X014568Y001985D01*
X014526Y001932D01*
X014480Y001881D01*
X014433Y001833D01*
X014382Y001788D01*
X014329Y001745D01*
X014274Y001706D01*
X014217Y001670D01*
X014158Y001637D01*
X014097Y001607D01*
X014034Y001581D01*
X013970Y001558D01*
X013969Y001561D01*
X014033Y001584D01*
X014095Y001610D01*
X014156Y001639D01*
X014215Y001672D01*
X014272Y001709D01*
X014327Y001748D01*
X014380Y001790D01*
X014431Y001836D01*
X014478Y001884D01*
X014523Y001934D01*
X014565Y001987D01*
X014604Y002042D01*
X014640Y002100D01*
X014673Y002159D01*
X014702Y002220D01*
X014728Y002283D01*
X014750Y002347D01*
X014769Y002412D01*
X014784Y002478D01*
X014795Y002544D01*
X014803Y002612D01*
X014807Y002679D01*
X014807Y002747D01*
X014803Y002814D01*
X014795Y002882D01*
X014784Y002948D01*
X014769Y003014D01*
X014750Y003079D01*
X014728Y003143D01*
X014702Y003206D01*
X014673Y003267D01*
X014640Y003326D01*
X014604Y003384D01*
X014565Y003439D01*
X014523Y003492D01*
X014478Y003542D01*
X014431Y003590D01*
X014380Y003636D01*
X014327Y003678D01*
X014272Y003717D01*
X014215Y003754D01*
X014156Y003787D01*
X014095Y003816D01*
X014033Y003842D01*
X013969Y003865D01*
X013968Y003862D01*
X014032Y003840D01*
X014094Y003814D01*
X014155Y003784D01*
X014214Y003751D01*
X014271Y003715D01*
X014326Y003676D01*
X014378Y003633D01*
X014429Y003588D01*
X014476Y003540D01*
X014521Y003490D01*
X014563Y003437D01*
X014602Y003382D01*
X014638Y003325D01*
X014670Y003266D01*
X014699Y003205D01*
X014725Y003142D01*
X014747Y003079D01*
X014766Y003014D01*
X014781Y002948D01*
X014792Y002881D01*
X014800Y002814D01*
X014804Y002747D01*
X014804Y002679D01*
X014800Y002612D01*
X014792Y002545D01*
X014781Y002478D01*
X014766Y002412D01*
X014747Y002347D01*
X014725Y002284D01*
X014699Y002221D01*
X014670Y002160D01*
X014638Y002101D01*
X014602Y002044D01*
X014563Y001989D01*
X014521Y001936D01*
X014476Y001886D01*
X014429Y001838D01*
X014378Y001793D01*
X014326Y001750D01*
X014271Y001711D01*
X014214Y001675D01*
X014155Y001642D01*
X014094Y001612D01*
X014032Y001586D01*
X013968Y001564D01*
X013967Y001567D01*
X014031Y001589D01*
X014093Y001615D01*
X014153Y001645D01*
X014212Y001677D01*
X014269Y001714D01*
X014324Y001753D01*
X014376Y001795D01*
X014426Y001840D01*
X014474Y001888D01*
X014519Y001938D01*
X014561Y001991D01*
X014599Y002046D01*
X014635Y002103D01*
X014668Y002162D01*
X014697Y002223D01*
X014722Y002285D01*
X014745Y002348D01*
X014763Y002413D01*
X014778Y002479D01*
X014789Y002545D01*
X014797Y002612D01*
X014801Y002679D01*
X014801Y002747D01*
X014797Y002814D01*
X014789Y002881D01*
X014778Y002947D01*
X014763Y003013D01*
X014745Y003078D01*
X014722Y003141D01*
X014697Y003203D01*
X014668Y003264D01*
X014635Y003323D01*
X014599Y003380D01*
X014561Y003435D01*
X014519Y003488D01*
X014474Y003538D01*
X014426Y003586D01*
X014376Y003631D01*
X014324Y003673D01*
X014269Y003712D01*
X014212Y003749D01*
X014153Y003781D01*
X014093Y003811D01*
X014031Y003837D01*
X013967Y003859D01*
X013215Y003890D02*
X013226Y003856D01*
X013226Y003857D02*
X013161Y003833D01*
X013098Y003807D01*
X013036Y003777D01*
X012976Y003743D01*
X012918Y003706D01*
X012863Y003665D01*
X012809Y003622D01*
X012759Y003575D01*
X012711Y003526D01*
X012666Y003474D01*
X012624Y003420D01*
X012585Y003363D01*
X012550Y003304D01*
X012518Y003244D01*
X012489Y003181D01*
X012464Y003117D01*
X012443Y003052D01*
X012425Y002985D01*
X012412Y002918D01*
X012402Y002850D01*
X012396Y002782D01*
X012394Y002713D01*
X012396Y002644D01*
X012402Y002576D01*
X012412Y002508D01*
X012425Y002441D01*
X012443Y002374D01*
X012464Y002309D01*
X012489Y002245D01*
X012518Y002182D01*
X012550Y002122D01*
X012585Y002063D01*
X012624Y002006D01*
X012666Y001952D01*
X012711Y001900D01*
X012759Y001851D01*
X012809Y001804D01*
X012863Y001761D01*
X012918Y001720D01*
X012976Y001683D01*
X013036Y001649D01*
X013098Y001619D01*
X013161Y001593D01*
X013226Y001569D01*
X013215Y001536D01*
X013215Y001535D01*
X013149Y001558D01*
X013086Y001585D01*
X013023Y001615D01*
X012963Y001649D01*
X012905Y001686D01*
X012848Y001726D01*
X012794Y001770D01*
X012743Y001816D01*
X012694Y001865D01*
X012648Y001917D01*
X012605Y001971D01*
X012565Y002027D01*
X012528Y002086D01*
X012495Y002147D01*
X012465Y002209D01*
X012439Y002273D01*
X012416Y002338D01*
X012397Y002405D01*
X012382Y002472D01*
X012370Y002541D01*
X012362Y002609D01*
X012358Y002678D01*
X012358Y002748D01*
X012362Y002817D01*
X012370Y002885D01*
X012382Y002954D01*
X012397Y003021D01*
X012416Y003088D01*
X012439Y003153D01*
X012465Y003217D01*
X012495Y003279D01*
X012528Y003340D01*
X012565Y003399D01*
X012605Y003455D01*
X012648Y003509D01*
X012694Y003561D01*
X012743Y003610D01*
X012794Y003656D01*
X012848Y003700D01*
X012905Y003740D01*
X012963Y003777D01*
X013023Y003811D01*
X013086Y003841D01*
X013149Y003868D01*
X013215Y003891D01*
X013216Y003888D01*
X013150Y003865D01*
X013087Y003838D01*
X013025Y003808D01*
X012964Y003774D01*
X012906Y003737D01*
X012850Y003697D01*
X012796Y003654D01*
X012745Y003608D01*
X012696Y003559D01*
X012650Y003507D01*
X012607Y003453D01*
X012568Y003397D01*
X012531Y003338D01*
X012498Y003278D01*
X012468Y003216D01*
X012442Y003152D01*
X012419Y003087D01*
X012400Y003020D01*
X012385Y002953D01*
X012373Y002885D01*
X012365Y002816D01*
X012361Y002748D01*
X012361Y002678D01*
X012365Y002610D01*
X012373Y002541D01*
X012385Y002473D01*
X012400Y002406D01*
X012419Y002339D01*
X012442Y002274D01*
X012468Y002210D01*
X012498Y002148D01*
X012531Y002088D01*
X012568Y002029D01*
X012607Y001973D01*
X012650Y001919D01*
X012696Y001867D01*
X012745Y001818D01*
X012796Y001772D01*
X012850Y001729D01*
X012906Y001689D01*
X012964Y001652D01*
X013025Y001618D01*
X013087Y001588D01*
X013150Y001561D01*
X013216Y001538D01*
X013216Y001541D01*
X013152Y001564D01*
X013088Y001591D01*
X013026Y001621D01*
X012966Y001654D01*
X012908Y001691D01*
X012852Y001731D01*
X012798Y001774D01*
X012747Y001820D01*
X012698Y001869D01*
X012653Y001921D01*
X012610Y001975D01*
X012570Y002031D01*
X012534Y002089D01*
X012500Y002149D01*
X012471Y002212D01*
X012444Y002275D01*
X012422Y002340D01*
X012403Y002406D01*
X012388Y002474D01*
X012376Y002541D01*
X012368Y002610D01*
X012364Y002679D01*
X012364Y002747D01*
X012368Y002816D01*
X012376Y002885D01*
X012388Y002952D01*
X012403Y003020D01*
X012422Y003086D01*
X012444Y003151D01*
X012471Y003214D01*
X012500Y003277D01*
X012534Y003337D01*
X012570Y003395D01*
X012610Y003451D01*
X012653Y003505D01*
X012698Y003557D01*
X012747Y003606D01*
X012798Y003652D01*
X012852Y003695D01*
X012908Y003735D01*
X012966Y003772D01*
X013026Y003805D01*
X013088Y003835D01*
X013152Y003862D01*
X013216Y003885D01*
X013217Y003882D01*
X013153Y003859D01*
X013089Y003833D01*
X013028Y003803D01*
X012968Y003769D01*
X012910Y003732D01*
X012854Y003692D01*
X012800Y003649D01*
X012749Y003604D01*
X012701Y003555D01*
X012655Y003504D01*
X012612Y003450D01*
X012573Y003394D01*
X012536Y003335D01*
X012503Y003275D01*
X012473Y003213D01*
X012447Y003150D01*
X012425Y003085D01*
X012406Y003019D01*
X012390Y002952D01*
X012379Y002884D01*
X012371Y002816D01*
X012367Y002747D01*
X012367Y002679D01*
X012371Y002610D01*
X012379Y002542D01*
X012390Y002474D01*
X012406Y002407D01*
X012425Y002341D01*
X012447Y002276D01*
X012473Y002213D01*
X012503Y002151D01*
X012536Y002091D01*
X012573Y002032D01*
X012612Y001976D01*
X012655Y001922D01*
X012701Y001871D01*
X012749Y001822D01*
X012800Y001777D01*
X012854Y001734D01*
X012910Y001694D01*
X012968Y001657D01*
X013028Y001623D01*
X013089Y001593D01*
X013153Y001567D01*
X013217Y001544D01*
X013218Y001547D01*
X013154Y001570D01*
X013091Y001596D01*
X013029Y001626D01*
X012969Y001659D01*
X012911Y001696D01*
X012855Y001736D01*
X012802Y001779D01*
X012751Y001825D01*
X012703Y001873D01*
X012657Y001924D01*
X012615Y001978D01*
X012575Y002034D01*
X012539Y002092D01*
X012506Y002152D01*
X012476Y002214D01*
X012450Y002277D01*
X012427Y002342D01*
X012409Y002408D01*
X012393Y002475D01*
X012382Y002542D01*
X012374Y002610D01*
X012370Y002679D01*
X012370Y002747D01*
X012374Y002816D01*
X012382Y002884D01*
X012393Y002951D01*
X012409Y003018D01*
X012427Y003084D01*
X012450Y003149D01*
X012476Y003212D01*
X012506Y003274D01*
X012539Y003334D01*
X012575Y003392D01*
X012615Y003448D01*
X012657Y003502D01*
X012703Y003553D01*
X012751Y003601D01*
X012802Y003647D01*
X012855Y003690D01*
X012911Y003730D01*
X012969Y003767D01*
X013029Y003800D01*
X013091Y003830D01*
X013154Y003856D01*
X013218Y003879D01*
X013219Y003877D01*
X013155Y003854D01*
X013092Y003827D01*
X013030Y003797D01*
X012971Y003764D01*
X012913Y003727D01*
X012857Y003688D01*
X012804Y003645D01*
X012753Y003599D01*
X012705Y003551D01*
X012660Y003500D01*
X012617Y003446D01*
X012578Y003390D01*
X012541Y003332D01*
X012508Y003272D01*
X012479Y003211D01*
X012453Y003148D01*
X012430Y003083D01*
X012411Y003017D01*
X012396Y002951D01*
X012385Y002883D01*
X012377Y002815D01*
X012373Y002747D01*
X012373Y002679D01*
X012377Y002611D01*
X012385Y002543D01*
X012396Y002475D01*
X012411Y002409D01*
X012430Y002343D01*
X012453Y002278D01*
X012479Y002215D01*
X012508Y002154D01*
X012541Y002094D01*
X012578Y002036D01*
X012617Y001980D01*
X012660Y001926D01*
X012705Y001875D01*
X012753Y001827D01*
X012804Y001781D01*
X012857Y001738D01*
X012913Y001699D01*
X012971Y001662D01*
X013030Y001629D01*
X013092Y001599D01*
X013155Y001572D01*
X013219Y001549D01*
X013220Y001552D01*
X013156Y001575D01*
X013093Y001602D01*
X013032Y001631D01*
X012972Y001665D01*
X012915Y001701D01*
X012859Y001741D01*
X012806Y001783D01*
X012755Y001829D01*
X012707Y001877D01*
X012662Y001928D01*
X012619Y001982D01*
X012580Y002037D01*
X012544Y002095D01*
X012511Y002155D01*
X012482Y002216D01*
X012456Y002279D01*
X012433Y002344D01*
X012414Y002409D01*
X012399Y002476D01*
X012388Y002543D01*
X012380Y002611D01*
X012376Y002679D01*
X012376Y002747D01*
X012380Y002815D01*
X012388Y002883D01*
X012399Y002950D01*
X012414Y003017D01*
X012433Y003082D01*
X012456Y003147D01*
X012482Y003210D01*
X012511Y003271D01*
X012544Y003331D01*
X012580Y003389D01*
X012619Y003444D01*
X012662Y003498D01*
X012707Y003549D01*
X012755Y003597D01*
X012806Y003643D01*
X012859Y003685D01*
X012915Y003725D01*
X012972Y003761D01*
X013032Y003795D01*
X013093Y003824D01*
X013156Y003851D01*
X013220Y003874D01*
X013221Y003871D01*
X013157Y003848D01*
X013094Y003822D01*
X013033Y003792D01*
X012974Y003759D01*
X012916Y003722D01*
X012861Y003683D01*
X012808Y003640D01*
X012757Y003595D01*
X012709Y003547D01*
X012664Y003496D01*
X012622Y003442D01*
X012583Y003387D01*
X012547Y003329D01*
X012514Y003270D01*
X012484Y003208D01*
X012458Y003145D01*
X012436Y003081D01*
X012417Y003016D01*
X012402Y002950D01*
X012391Y002883D01*
X012383Y002815D01*
X012379Y002747D01*
X012379Y002679D01*
X012383Y002611D01*
X012391Y002543D01*
X012402Y002476D01*
X012417Y002410D01*
X012436Y002345D01*
X012458Y002281D01*
X012484Y002218D01*
X012514Y002156D01*
X012547Y002097D01*
X012583Y002039D01*
X012622Y001984D01*
X012664Y001930D01*
X012709Y001879D01*
X012757Y001831D01*
X012808Y001786D01*
X012861Y001743D01*
X012916Y001704D01*
X012974Y001667D01*
X013033Y001634D01*
X013094Y001604D01*
X013157Y001578D01*
X013221Y001555D01*
X013222Y001558D01*
X013158Y001581D01*
X013095Y001607D01*
X013034Y001637D01*
X012975Y001670D01*
X012918Y001706D01*
X012863Y001745D01*
X012810Y001788D01*
X012759Y001833D01*
X012712Y001881D01*
X012666Y001932D01*
X012624Y001985D01*
X012585Y002041D01*
X012549Y002098D01*
X012516Y002158D01*
X012487Y002219D01*
X012461Y002282D01*
X012439Y002346D01*
X012420Y002411D01*
X012405Y002477D01*
X012394Y002544D01*
X012386Y002611D01*
X012382Y002679D01*
X012382Y002747D01*
X012386Y002815D01*
X012394Y002882D01*
X012405Y002949D01*
X012420Y003015D01*
X012439Y003080D01*
X012461Y003144D01*
X012487Y003207D01*
X012516Y003268D01*
X012549Y003328D01*
X012585Y003385D01*
X012624Y003441D01*
X012666Y003494D01*
X012712Y003545D01*
X012759Y003593D01*
X012810Y003638D01*
X012863Y003681D01*
X012918Y003720D01*
X012975Y003756D01*
X013034Y003789D01*
X013095Y003819D01*
X013158Y003845D01*
X013222Y003868D01*
X013223Y003865D01*
X013159Y003842D01*
X013097Y003816D01*
X013036Y003787D01*
X012977Y003754D01*
X012920Y003717D01*
X012865Y003678D01*
X012812Y003636D01*
X012761Y003590D01*
X012714Y003542D01*
X012669Y003492D01*
X012627Y003439D01*
X012588Y003384D01*
X012552Y003326D01*
X012519Y003267D01*
X012490Y003206D01*
X012464Y003143D01*
X012442Y003079D01*
X012423Y003014D01*
X012408Y002948D01*
X012397Y002882D01*
X012389Y002814D01*
X012385Y002747D01*
X012385Y002679D01*
X012389Y002612D01*
X012397Y002544D01*
X012408Y002478D01*
X012423Y002412D01*
X012442Y002347D01*
X012464Y002283D01*
X012490Y002220D01*
X012519Y002159D01*
X012552Y002100D01*
X012588Y002042D01*
X012627Y001987D01*
X012669Y001934D01*
X012714Y001884D01*
X012761Y001836D01*
X012812Y001790D01*
X012865Y001748D01*
X012920Y001709D01*
X012977Y001672D01*
X013036Y001639D01*
X013097Y001610D01*
X013159Y001584D01*
X013223Y001561D01*
X013224Y001564D01*
X013160Y001586D01*
X013098Y001612D01*
X013037Y001642D01*
X012978Y001675D01*
X012921Y001711D01*
X012866Y001750D01*
X012814Y001793D01*
X012763Y001838D01*
X012716Y001886D01*
X012671Y001936D01*
X012629Y001989D01*
X012590Y002044D01*
X012554Y002101D01*
X012522Y002160D01*
X012493Y002221D01*
X012467Y002284D01*
X012445Y002347D01*
X012426Y002412D01*
X012411Y002478D01*
X012400Y002545D01*
X012392Y002612D01*
X012388Y002679D01*
X012388Y002747D01*
X012392Y002814D01*
X012400Y002881D01*
X012411Y002948D01*
X012426Y003014D01*
X012445Y003079D01*
X012467Y003142D01*
X012493Y003205D01*
X012522Y003266D01*
X012554Y003325D01*
X012590Y003382D01*
X012629Y003437D01*
X012671Y003490D01*
X012716Y003540D01*
X012763Y003588D01*
X012814Y003633D01*
X012866Y003676D01*
X012921Y003715D01*
X012978Y003751D01*
X013037Y003784D01*
X013098Y003814D01*
X013160Y003840D01*
X013224Y003862D01*
X013225Y003859D01*
X013161Y003837D01*
X013099Y003811D01*
X013039Y003781D01*
X012980Y003749D01*
X012923Y003712D01*
X012868Y003673D01*
X012816Y003631D01*
X012766Y003586D01*
X012718Y003538D01*
X012673Y003488D01*
X012631Y003435D01*
X012593Y003380D01*
X012557Y003323D01*
X012524Y003264D01*
X012495Y003203D01*
X012470Y003141D01*
X012447Y003078D01*
X012429Y003013D01*
X012414Y002947D01*
X012403Y002881D01*
X012395Y002814D01*
X012391Y002747D01*
X012391Y002679D01*
X012395Y002612D01*
X012403Y002545D01*
X012414Y002479D01*
X012429Y002413D01*
X012447Y002348D01*
X012470Y002285D01*
X012495Y002223D01*
X012524Y002162D01*
X012557Y002103D01*
X012593Y002046D01*
X012631Y001991D01*
X012673Y001938D01*
X012718Y001888D01*
X012766Y001840D01*
X012816Y001795D01*
X012868Y001753D01*
X012923Y001714D01*
X012980Y001677D01*
X013039Y001645D01*
X013099Y001615D01*
X013161Y001589D01*
X013225Y001567D01*
M02*
