%
M48
M72
T01C0.0200
T02C0.0320
T03C0.0400
%
T01
X10049Y7933
X8049Y9213
X8049Y9693
X7249Y10413
X8369Y10893
X6209Y11453
X13409Y7133
X15329Y8253
T02
X16829Y8313
X16829Y7313
X16829Y6313
T03
X1979Y6273
X1979Y7273
X4279Y8413
X5279Y8413
X5279Y9413
X4279Y9413
X4279Y10413
X5279Y10413
X5279Y11413
X4279Y11413
X1979Y11163
X1979Y10163
X1979Y9163
X16829Y9763
X16829Y10763
X16829Y4413
X16829Y3413
X16829Y2413
X16829Y1413
M30
