G75*
%MOIN*%
%OFA0B0*%
%FSLAX24Y24*%
%IPPOS*%
%LPD*%
%AMOC8*
5,1,8,0,0,1.08239X$1,22.5*
%
%ADD10C,0.0050*%
%ADD11C,0.0040*%
%ADD12C,0.0060*%
%ADD13C,0.0030*%
%ADD14C,0.0005*%
%ADD15C,0.0080*%
%ADD16C,0.0004*%
D10*
X000879Y005267D02*
X001179Y005267D01*
X001254Y005342D01*
X001254Y005567D01*
X000804Y005567D01*
X000804Y005342D01*
X000879Y005267D01*
X000804Y005728D02*
X001254Y005728D01*
X001254Y006028D02*
X000804Y006028D01*
X000879Y006188D02*
X001029Y006188D01*
X001029Y006338D01*
X001179Y006188D02*
X001254Y006263D01*
X001254Y006413D01*
X001179Y006488D01*
X000879Y006488D01*
X000804Y006413D01*
X000804Y006263D01*
X000879Y006188D01*
X001254Y006028D02*
X000804Y005728D01*
X000954Y007788D02*
X001254Y007788D01*
X000954Y007788D02*
X000804Y007938D01*
X000954Y008088D01*
X001254Y008088D01*
X016879Y007866D02*
X016879Y007760D01*
X017479Y008138D02*
X017479Y006488D01*
X016879Y006760D02*
X016879Y006866D01*
D11*
X009458Y003323D02*
X009458Y001434D01*
X008553Y001434D01*
X007805Y001434D02*
X006899Y001434D01*
X006899Y003323D01*
X007568Y003993D01*
X007805Y003993D01*
X008553Y003993D02*
X008789Y003993D01*
X009458Y003323D01*
X001161Y007542D02*
X001109Y007542D01*
X001005Y007542D02*
X000799Y007542D01*
X000799Y007593D02*
X000799Y007490D01*
X000799Y007378D02*
X001005Y007378D01*
X001005Y007223D01*
X000954Y007172D01*
X000799Y007172D01*
X001005Y007542D02*
X001005Y007593D01*
D12*
X001099Y001353D02*
X000829Y001353D01*
X000829Y001894D01*
X001099Y001894D01*
X001189Y001804D01*
X001189Y001714D01*
X001099Y001623D01*
X000829Y001623D01*
X001099Y001623D02*
X001189Y001533D01*
X001189Y001443D01*
X001099Y001353D01*
X001381Y001443D02*
X001381Y001714D01*
X001381Y001443D02*
X001471Y001353D01*
X001741Y001353D01*
X001741Y001714D01*
X001934Y001714D02*
X002114Y001714D01*
X002024Y001804D02*
X002024Y001443D01*
X002114Y001353D01*
X002392Y001443D02*
X002482Y001353D01*
X002392Y001443D02*
X002392Y001804D01*
X002302Y001714D02*
X002482Y001714D01*
X002670Y001623D02*
X002670Y001443D01*
X002760Y001353D01*
X002940Y001353D01*
X003030Y001443D01*
X003030Y001623D01*
X002940Y001714D01*
X002760Y001714D01*
X002670Y001623D01*
X003223Y001714D02*
X003223Y001353D01*
X003583Y001353D02*
X003583Y001623D01*
X003493Y001714D01*
X003223Y001714D01*
X004559Y001884D02*
X004559Y001343D01*
X004919Y001343D01*
X005111Y001343D02*
X005471Y001343D01*
X005664Y001343D02*
X005934Y001343D01*
X006024Y001433D01*
X006024Y001794D01*
X005934Y001884D01*
X005664Y001884D01*
X005664Y001343D01*
X005291Y001613D02*
X005111Y001613D01*
X005111Y001343D02*
X005111Y001884D01*
X005471Y001884D01*
X009499Y006213D02*
X009499Y006623D01*
X010079Y007453D02*
X010239Y007613D01*
X011799Y008274D02*
X011799Y009652D01*
X012366Y009652D01*
X013791Y009652D02*
X014358Y009652D01*
X014358Y008274D01*
X014244Y008274D01*
X013724Y008274D02*
X013338Y008274D01*
X012819Y008274D02*
X012433Y008274D01*
X011913Y008274D02*
X011799Y008274D01*
X009819Y010703D02*
X009819Y011103D01*
X006989Y008813D02*
X006589Y008813D01*
X017808Y009643D02*
X018349Y009643D01*
X018349Y010004D01*
X018349Y010196D02*
X018349Y010466D01*
X018259Y010556D01*
X017898Y010556D01*
X017808Y010466D01*
X017808Y010196D01*
X018349Y010196D01*
X018349Y010748D02*
X017808Y010748D01*
X017808Y011018D01*
X017898Y011109D01*
X018078Y011109D01*
X018168Y011018D01*
X018168Y010748D01*
X018168Y010928D02*
X018349Y011109D01*
X018259Y008311D02*
X018078Y008311D01*
X017988Y008221D01*
X017988Y007951D01*
X018529Y007951D01*
X018349Y007951D02*
X018349Y008221D01*
X018259Y008311D01*
X018349Y007759D02*
X018078Y007759D01*
X017988Y007668D01*
X018078Y007578D01*
X018349Y007578D01*
X018349Y007398D02*
X017988Y007398D01*
X017988Y007488D01*
X018078Y007578D01*
X018078Y007206D02*
X018168Y007206D01*
X018168Y006846D01*
X018078Y006846D02*
X017988Y006936D01*
X017988Y007116D01*
X018078Y007206D01*
X018349Y007116D02*
X018349Y006936D01*
X018259Y006846D01*
X018078Y006846D01*
X017808Y006654D02*
X017808Y006293D01*
X017808Y006473D02*
X018349Y006473D01*
X018349Y004718D02*
X018349Y004448D01*
X018259Y004358D01*
X017988Y004358D01*
X017988Y004170D02*
X017988Y003990D01*
X017898Y004080D02*
X018259Y004080D01*
X018349Y004170D01*
X018529Y004538D02*
X018529Y004628D01*
X018439Y004718D01*
X017988Y004718D01*
X018349Y003802D02*
X018349Y003621D01*
X018349Y003712D02*
X017988Y003712D01*
X017988Y003621D01*
X017988Y003429D02*
X017988Y003159D01*
X018078Y003069D01*
X018259Y003069D01*
X018349Y003159D01*
X018349Y003429D01*
X017808Y003429D01*
X017808Y003712D02*
X017718Y003712D01*
X018349Y002881D02*
X018349Y002701D01*
X018349Y002791D02*
X017988Y002791D01*
X017988Y002701D01*
X017808Y002791D02*
X017718Y002791D01*
X018078Y002509D02*
X018349Y002509D01*
X018349Y002328D02*
X018078Y002328D01*
X017988Y002418D01*
X018078Y002509D01*
X018078Y002328D02*
X017988Y002238D01*
X017988Y002148D01*
X018349Y002148D01*
X018349Y001956D02*
X017988Y001956D01*
X018349Y001956D02*
X018349Y001686D01*
X018259Y001596D01*
X017988Y001596D01*
X018078Y001404D02*
X018078Y001043D01*
X017808Y001043D02*
X018349Y001043D01*
X018349Y001404D02*
X017808Y001404D01*
D13*
X011404Y007096D02*
X011090Y007410D01*
X011404Y007096D01*
X011404Y007253D02*
X011090Y007253D01*
X011404Y007253D01*
X011247Y007410D02*
X011247Y007096D01*
X011247Y007410D01*
X011404Y007410D02*
X011090Y007096D01*
X011404Y007410D01*
X001014Y008978D02*
X000977Y008941D01*
X000940Y008941D01*
X000904Y008978D01*
X000867Y008941D01*
X000830Y008941D01*
X000794Y008978D01*
X000794Y009051D01*
X000830Y009088D01*
X000904Y009014D02*
X000904Y008978D01*
X001014Y008978D02*
X001014Y009051D01*
X000977Y009088D01*
X000940Y009171D02*
X000794Y009245D01*
X000940Y009318D01*
X000940Y009401D02*
X000904Y009438D01*
X000867Y009401D01*
X000830Y009401D01*
X000794Y009438D01*
X000794Y009512D01*
X000830Y009548D01*
X000904Y009475D02*
X000904Y009438D01*
X000940Y009401D02*
X000977Y009401D01*
X001014Y009438D01*
X001014Y009512D01*
X000977Y009548D01*
X000904Y009838D02*
X000794Y009838D01*
X000794Y009948D01*
X000830Y009984D01*
X000867Y009948D01*
X000867Y009838D01*
X000904Y009838D02*
X000940Y009874D01*
X000940Y009948D01*
X000940Y010064D02*
X000940Y010138D01*
X000977Y010101D02*
X000830Y010101D01*
X000794Y010064D01*
X000794Y010221D02*
X000794Y010331D01*
X000830Y010368D01*
X000867Y010331D01*
X000867Y010221D01*
X000904Y010221D02*
X000794Y010221D01*
X000904Y010221D02*
X000940Y010258D01*
X000940Y010331D01*
X000977Y010451D02*
X000830Y010451D01*
X000794Y010488D01*
X000794Y010598D01*
X001014Y010598D01*
X001014Y010488D01*
X000977Y010451D01*
X000977Y010891D02*
X000830Y010891D01*
X000794Y010928D01*
X000794Y011038D01*
X001014Y011038D01*
X001014Y010928D01*
X000977Y010891D01*
X001014Y011121D02*
X000794Y011121D01*
X001014Y011268D01*
X000794Y011268D01*
X000830Y011351D02*
X000904Y011351D01*
X000904Y011425D01*
X000977Y011498D02*
X000830Y011498D01*
X000794Y011462D01*
X000794Y011388D01*
X000830Y011351D01*
X000977Y011351D02*
X001014Y011388D01*
X001014Y011462D01*
X000977Y011498D01*
D14*
X017491Y008157D02*
X017463Y008121D01*
X017463Y008122D02*
X017415Y008157D01*
X017365Y008190D01*
X017313Y008220D01*
X017260Y008246D01*
X017278Y008287D01*
X017279Y008287D01*
X017335Y008259D01*
X017389Y008228D01*
X017441Y008194D01*
X017491Y008157D01*
X017489Y008154D01*
X017439Y008191D01*
X017387Y008225D01*
X017333Y008256D01*
X017277Y008284D01*
X017275Y008280D01*
X017331Y008252D01*
X017385Y008222D01*
X017436Y008188D01*
X017486Y008151D01*
X017484Y008148D01*
X017434Y008184D01*
X017382Y008218D01*
X017329Y008249D01*
X017274Y008276D01*
X017272Y008273D01*
X017327Y008245D01*
X017380Y008215D01*
X017432Y008181D01*
X017481Y008145D01*
X017479Y008141D01*
X017430Y008178D01*
X017378Y008211D01*
X017325Y008242D01*
X017270Y008269D01*
X017269Y008265D01*
X017323Y008238D01*
X017376Y008208D01*
X017427Y008175D01*
X017476Y008138D01*
X017474Y008135D01*
X017425Y008171D01*
X017374Y008205D01*
X017321Y008235D01*
X017267Y008262D01*
X017265Y008258D01*
X017319Y008231D01*
X017372Y008201D01*
X017423Y008168D01*
X017471Y008132D01*
X017469Y008129D01*
X017420Y008165D01*
X017370Y008198D01*
X017318Y008228D01*
X017264Y008255D01*
X017262Y008251D01*
X017316Y008224D01*
X017368Y008194D01*
X017418Y008161D01*
X017467Y008126D01*
X017464Y008123D01*
X017416Y008158D01*
X017366Y008191D01*
X017314Y008221D01*
X017260Y008247D01*
X016370Y008282D02*
X016389Y008242D01*
X016333Y008213D01*
X016279Y008182D01*
X016227Y008146D01*
X016178Y008108D01*
X016130Y008067D01*
X016086Y008023D01*
X016044Y007976D01*
X016005Y007927D01*
X015969Y007876D01*
X015936Y007822D01*
X015907Y007767D01*
X015881Y007710D01*
X015858Y007651D01*
X015839Y007592D01*
X015824Y007531D01*
X015813Y007469D01*
X015805Y007407D01*
X015801Y007344D01*
X015801Y007282D01*
X015805Y007219D01*
X015813Y007157D01*
X015824Y007095D01*
X015839Y007034D01*
X015858Y006975D01*
X015881Y006916D01*
X015907Y006859D01*
X015936Y006804D01*
X015969Y006750D01*
X016005Y006699D01*
X016044Y006650D01*
X016086Y006603D01*
X016130Y006559D01*
X016178Y006518D01*
X016227Y006480D01*
X016279Y006444D01*
X016333Y006413D01*
X016389Y006384D01*
X016370Y006344D01*
X016370Y006343D01*
X016311Y006373D01*
X016255Y006406D01*
X016201Y006443D01*
X016149Y006483D01*
X016100Y006526D01*
X016053Y006572D01*
X016009Y006621D01*
X015969Y006672D01*
X015931Y006725D01*
X015897Y006781D01*
X015866Y006839D01*
X015839Y006899D01*
X015816Y006960D01*
X015796Y007022D01*
X015780Y007086D01*
X015768Y007150D01*
X015760Y007215D01*
X015756Y007280D01*
X015756Y007346D01*
X015760Y007411D01*
X015768Y007476D01*
X015780Y007540D01*
X015796Y007604D01*
X015816Y007666D01*
X015839Y007727D01*
X015866Y007787D01*
X015897Y007845D01*
X015931Y007901D01*
X015969Y007954D01*
X016009Y008005D01*
X016053Y008054D01*
X016100Y008100D01*
X016149Y008143D01*
X016201Y008183D01*
X016255Y008220D01*
X016311Y008253D01*
X016370Y008283D01*
X016371Y008279D01*
X016313Y008249D01*
X016257Y008216D01*
X016203Y008180D01*
X016152Y008140D01*
X016102Y008097D01*
X016056Y008051D01*
X016012Y008003D01*
X015972Y007952D01*
X015935Y007898D01*
X015901Y007843D01*
X015870Y007785D01*
X015843Y007726D01*
X015820Y007665D01*
X015800Y007603D01*
X015784Y007539D01*
X015772Y007475D01*
X015764Y007411D01*
X015760Y007346D01*
X015760Y007280D01*
X015764Y007215D01*
X015772Y007151D01*
X015784Y007087D01*
X015800Y007023D01*
X015820Y006961D01*
X015843Y006900D01*
X015870Y006841D01*
X015901Y006783D01*
X015935Y006728D01*
X015972Y006674D01*
X016012Y006623D01*
X016056Y006575D01*
X016102Y006529D01*
X016152Y006486D01*
X016203Y006446D01*
X016257Y006410D01*
X016313Y006377D01*
X016371Y006347D01*
X016373Y006350D01*
X016315Y006380D01*
X016259Y006413D01*
X016206Y006450D01*
X016154Y006489D01*
X016105Y006532D01*
X016059Y006577D01*
X016015Y006626D01*
X015975Y006677D01*
X015938Y006730D01*
X015904Y006785D01*
X015874Y006843D01*
X015847Y006902D01*
X015823Y006962D01*
X015804Y007024D01*
X015788Y007087D01*
X015776Y007151D01*
X015768Y007216D01*
X015764Y007281D01*
X015764Y007345D01*
X015768Y007410D01*
X015776Y007475D01*
X015788Y007539D01*
X015804Y007602D01*
X015823Y007664D01*
X015847Y007724D01*
X015874Y007783D01*
X015904Y007841D01*
X015938Y007896D01*
X015975Y007949D01*
X016015Y008000D01*
X016059Y008049D01*
X016105Y008094D01*
X016154Y008137D01*
X016206Y008176D01*
X016259Y008213D01*
X016315Y008246D01*
X016373Y008276D01*
X016375Y008272D01*
X016317Y008242D01*
X016262Y008209D01*
X016208Y008173D01*
X016157Y008134D01*
X016108Y008091D01*
X016062Y008046D01*
X016019Y007998D01*
X015978Y007947D01*
X015941Y007894D01*
X015907Y007839D01*
X015877Y007782D01*
X015850Y007723D01*
X015827Y007662D01*
X015808Y007601D01*
X015792Y007538D01*
X015780Y007474D01*
X015772Y007410D01*
X015768Y007345D01*
X015768Y007281D01*
X015772Y007216D01*
X015780Y007152D01*
X015792Y007088D01*
X015808Y007025D01*
X015827Y006964D01*
X015850Y006903D01*
X015877Y006844D01*
X015907Y006787D01*
X015941Y006732D01*
X015978Y006679D01*
X016019Y006628D01*
X016062Y006580D01*
X016108Y006535D01*
X016157Y006492D01*
X016208Y006453D01*
X016262Y006417D01*
X016317Y006384D01*
X016375Y006354D01*
X016377Y006358D01*
X016319Y006387D01*
X016264Y006420D01*
X016210Y006456D01*
X016159Y006495D01*
X016111Y006538D01*
X016065Y006583D01*
X016022Y006631D01*
X015981Y006681D01*
X015945Y006734D01*
X015911Y006789D01*
X015881Y006846D01*
X015854Y006905D01*
X015831Y006965D01*
X015812Y007026D01*
X015796Y007089D01*
X015784Y007152D01*
X015776Y007216D01*
X015772Y007281D01*
X015772Y007345D01*
X015776Y007410D01*
X015784Y007474D01*
X015796Y007537D01*
X015812Y007600D01*
X015831Y007661D01*
X015854Y007721D01*
X015881Y007780D01*
X015911Y007837D01*
X015945Y007892D01*
X015981Y007945D01*
X016022Y007995D01*
X016065Y008043D01*
X016111Y008088D01*
X016159Y008131D01*
X016210Y008170D01*
X016264Y008206D01*
X016319Y008239D01*
X016377Y008268D01*
X016378Y008265D01*
X016321Y008235D01*
X016266Y008203D01*
X016213Y008167D01*
X016162Y008128D01*
X016113Y008085D01*
X016068Y008040D01*
X016025Y007993D01*
X015985Y007942D01*
X015948Y007890D01*
X015914Y007835D01*
X015884Y007778D01*
X015858Y007720D01*
X015835Y007660D01*
X015815Y007598D01*
X015800Y007536D01*
X015788Y007473D01*
X015780Y007409D01*
X015776Y007345D01*
X015776Y007281D01*
X015780Y007217D01*
X015788Y007153D01*
X015800Y007090D01*
X015815Y007028D01*
X015835Y006966D01*
X015858Y006906D01*
X015884Y006848D01*
X015914Y006791D01*
X015948Y006736D01*
X015985Y006684D01*
X016025Y006633D01*
X016068Y006586D01*
X016113Y006541D01*
X016162Y006498D01*
X016213Y006459D01*
X016266Y006423D01*
X016321Y006391D01*
X016378Y006361D01*
X016380Y006365D01*
X016323Y006394D01*
X016268Y006427D01*
X016215Y006463D01*
X016164Y006502D01*
X016116Y006544D01*
X016070Y006588D01*
X016028Y006636D01*
X015988Y006686D01*
X015951Y006739D01*
X015918Y006793D01*
X015888Y006850D01*
X015861Y006908D01*
X015838Y006968D01*
X015819Y007029D01*
X015804Y007091D01*
X015792Y007154D01*
X015784Y007217D01*
X015780Y007281D01*
X015780Y007345D01*
X015784Y007409D01*
X015792Y007472D01*
X015804Y007535D01*
X015819Y007597D01*
X015838Y007658D01*
X015861Y007718D01*
X015888Y007776D01*
X015918Y007833D01*
X015951Y007887D01*
X015988Y007940D01*
X016028Y007990D01*
X016070Y008038D01*
X016116Y008082D01*
X016164Y008124D01*
X016215Y008163D01*
X016268Y008199D01*
X016323Y008232D01*
X016380Y008261D01*
X016382Y008257D01*
X016325Y008228D01*
X016270Y008196D01*
X016217Y008160D01*
X016167Y008121D01*
X016119Y008080D01*
X016073Y008035D01*
X016031Y007987D01*
X015991Y007937D01*
X015955Y007885D01*
X015921Y007831D01*
X015891Y007775D01*
X015865Y007717D01*
X015842Y007657D01*
X015823Y007596D01*
X015808Y007534D01*
X015796Y007472D01*
X015788Y007408D01*
X015784Y007345D01*
X015784Y007281D01*
X015788Y007218D01*
X015796Y007154D01*
X015808Y007092D01*
X015823Y007030D01*
X015842Y006969D01*
X015865Y006909D01*
X015891Y006851D01*
X015921Y006795D01*
X015955Y006741D01*
X015991Y006689D01*
X016031Y006639D01*
X016073Y006591D01*
X016119Y006546D01*
X016167Y006505D01*
X016217Y006466D01*
X016270Y006430D01*
X016325Y006398D01*
X016382Y006369D01*
X016383Y006372D01*
X016327Y006401D01*
X016272Y006433D01*
X016220Y006469D01*
X016169Y006508D01*
X016121Y006549D01*
X016076Y006594D01*
X016034Y006641D01*
X015994Y006691D01*
X015958Y006743D01*
X015925Y006797D01*
X015895Y006853D01*
X015869Y006911D01*
X015846Y006970D01*
X015827Y007031D01*
X015812Y007092D01*
X015800Y007155D01*
X015792Y007218D01*
X015788Y007281D01*
X015788Y007345D01*
X015792Y007408D01*
X015800Y007471D01*
X015812Y007534D01*
X015827Y007595D01*
X015846Y007656D01*
X015869Y007715D01*
X015895Y007773D01*
X015925Y007829D01*
X015958Y007883D01*
X015994Y007935D01*
X016034Y007985D01*
X016076Y008032D01*
X016121Y008077D01*
X016169Y008118D01*
X016220Y008157D01*
X016272Y008193D01*
X016327Y008225D01*
X016383Y008254D01*
X016385Y008250D01*
X016329Y008221D01*
X016274Y008189D01*
X016222Y008154D01*
X016172Y008115D01*
X016124Y008074D01*
X016079Y008029D01*
X016037Y007982D01*
X015998Y007933D01*
X015961Y007881D01*
X015928Y007827D01*
X015899Y007771D01*
X015872Y007713D01*
X015850Y007654D01*
X015831Y007594D01*
X015816Y007533D01*
X015804Y007471D01*
X015796Y007408D01*
X015792Y007345D01*
X015792Y007281D01*
X015796Y007218D01*
X015804Y007155D01*
X015816Y007093D01*
X015831Y007032D01*
X015850Y006972D01*
X015872Y006913D01*
X015899Y006855D01*
X015928Y006799D01*
X015961Y006745D01*
X015998Y006693D01*
X016037Y006644D01*
X016079Y006597D01*
X016124Y006552D01*
X016172Y006511D01*
X016222Y006472D01*
X016274Y006437D01*
X016329Y006405D01*
X016385Y006376D01*
X016387Y006379D01*
X016331Y006408D01*
X016276Y006440D01*
X016224Y006476D01*
X016174Y006514D01*
X016127Y006555D01*
X016082Y006600D01*
X016040Y006646D01*
X016001Y006696D01*
X015965Y006747D01*
X015932Y006801D01*
X015902Y006857D01*
X015876Y006914D01*
X015854Y006973D01*
X015835Y007033D01*
X015819Y007094D01*
X015808Y007156D01*
X015800Y007219D01*
X015796Y007282D01*
X015796Y007344D01*
X015800Y007407D01*
X015808Y007470D01*
X015819Y007532D01*
X015835Y007593D01*
X015854Y007653D01*
X015876Y007712D01*
X015902Y007769D01*
X015932Y007825D01*
X015965Y007879D01*
X016001Y007930D01*
X016040Y007980D01*
X016082Y008026D01*
X016127Y008071D01*
X016174Y008112D01*
X016224Y008150D01*
X016276Y008186D01*
X016331Y008218D01*
X016387Y008247D01*
X016388Y008243D01*
X016333Y008214D01*
X016279Y008182D01*
X016227Y008147D01*
X016177Y008109D01*
X016130Y008068D01*
X016085Y008024D01*
X016043Y007977D01*
X016004Y007928D01*
X015968Y007876D01*
X015935Y007823D01*
X015906Y007767D01*
X015880Y007710D01*
X015857Y007652D01*
X015839Y007592D01*
X015823Y007531D01*
X015812Y007469D01*
X015804Y007407D01*
X015800Y007344D01*
X015800Y007282D01*
X015804Y007219D01*
X015812Y007157D01*
X015823Y007095D01*
X015839Y007034D01*
X015857Y006974D01*
X015880Y006916D01*
X015906Y006859D01*
X015935Y006803D01*
X015968Y006750D01*
X016004Y006698D01*
X016043Y006649D01*
X016085Y006602D01*
X016130Y006558D01*
X016177Y006517D01*
X016227Y006479D01*
X016279Y006444D01*
X016333Y006412D01*
X016388Y006383D01*
X017288Y006344D02*
X017269Y006384D01*
X017320Y006410D01*
X017370Y006439D01*
X017417Y006470D01*
X017463Y006504D01*
X017491Y006469D01*
X017443Y006433D01*
X017393Y006400D01*
X017342Y006370D01*
X017288Y006343D01*
X017287Y006347D01*
X017340Y006374D01*
X017391Y006404D01*
X017441Y006436D01*
X017489Y006472D01*
X017486Y006475D01*
X017439Y006440D01*
X017389Y006407D01*
X017338Y006377D01*
X017285Y006351D01*
X017283Y006354D01*
X017336Y006381D01*
X017387Y006411D01*
X017436Y006443D01*
X017484Y006478D01*
X017481Y006481D01*
X017434Y006446D01*
X017385Y006414D01*
X017334Y006384D01*
X017281Y006358D01*
X017280Y006361D01*
X017332Y006388D01*
X017383Y006417D01*
X017432Y006450D01*
X017479Y006485D01*
X017476Y006488D01*
X017429Y006453D01*
X017381Y006421D01*
X017330Y006391D01*
X017278Y006365D01*
X017276Y006369D01*
X017328Y006395D01*
X017379Y006424D01*
X017427Y006456D01*
X017474Y006491D01*
X017471Y006494D01*
X017425Y006459D01*
X017376Y006428D01*
X017326Y006398D01*
X017275Y006372D01*
X017273Y006376D01*
X017324Y006402D01*
X017374Y006431D01*
X017423Y006463D01*
X017469Y006497D01*
X017467Y006500D01*
X017420Y006466D01*
X017372Y006434D01*
X017323Y006406D01*
X017271Y006379D01*
X017270Y006383D01*
X017321Y006409D01*
X017370Y006438D01*
X017418Y006469D01*
X017464Y006503D01*
D15*
X017079Y004913D02*
X016579Y004913D01*
X016329Y004663D01*
X016329Y004163D01*
X016579Y003913D01*
X016329Y003663D01*
X016329Y003163D01*
X016579Y002913D01*
X016329Y002663D01*
X016329Y002163D01*
X016579Y001913D01*
X016329Y001663D01*
X016329Y001163D01*
X016579Y000913D01*
X017079Y000913D01*
X017329Y001163D01*
X017329Y001663D01*
X017079Y001913D01*
X017329Y002163D01*
X017329Y002663D01*
X017079Y002913D01*
X017329Y003163D01*
X017329Y003663D01*
X017079Y003913D01*
X017329Y004163D01*
X017329Y004663D01*
X017079Y004913D01*
X017079Y009263D02*
X016579Y009263D01*
X016329Y009513D01*
X016329Y010013D01*
X016579Y010263D01*
X016329Y010513D01*
X016329Y011013D01*
X016579Y011263D01*
X017079Y011263D01*
X017329Y011013D01*
X017329Y010513D01*
X017079Y010263D01*
X017329Y010013D01*
X017329Y009513D01*
X017079Y009263D01*
X005879Y008663D02*
X005879Y008163D01*
X005779Y008163D02*
X005529Y007913D01*
X004029Y007913D01*
X003779Y008163D01*
X003779Y008663D01*
X004029Y008913D01*
X003779Y009163D01*
X003779Y009663D01*
X004029Y009913D01*
X003779Y010163D01*
X003779Y010663D01*
X004029Y010913D01*
X003779Y011163D01*
X003779Y011663D01*
X004029Y011913D01*
X005529Y011913D01*
X005779Y011663D01*
X005779Y011163D01*
X005529Y010913D01*
X005779Y010663D01*
X005779Y010163D01*
X005529Y009913D01*
X005779Y009663D01*
X005779Y009163D01*
X005529Y008913D01*
X005779Y008663D01*
X005779Y008163D01*
X005529Y007913D01*
X004029Y007913D01*
X003779Y008163D01*
X002479Y007523D02*
X002479Y007023D01*
X002229Y006773D01*
X002479Y006523D01*
X002479Y006023D01*
X002229Y005773D01*
X001729Y005773D01*
X001479Y006023D01*
X001479Y006523D01*
X001729Y006773D01*
X001479Y007023D01*
X001479Y007523D01*
X001729Y007773D01*
X002229Y007773D01*
X002479Y007523D01*
X002229Y008663D02*
X001729Y008663D01*
X001479Y008913D01*
X001479Y009413D01*
X001729Y009663D01*
X001479Y009913D01*
X001479Y010413D01*
X001729Y010663D01*
X001479Y010913D01*
X001479Y011413D01*
X001729Y011663D01*
X002229Y011663D01*
X002479Y011413D01*
X002479Y010913D01*
X002229Y010663D01*
X002479Y010413D01*
X002479Y009913D01*
X002229Y009663D01*
X002479Y009413D01*
X002479Y008913D01*
X002229Y008663D01*
X002559Y004513D02*
X001570Y004513D01*
X001059Y004120D02*
X001059Y002907D01*
X001570Y002513D02*
X002547Y002513D01*
X003059Y002907D02*
X003059Y004120D01*
X001559Y003513D02*
X001561Y003557D01*
X001567Y003601D01*
X001577Y003644D01*
X001590Y003686D01*
X001607Y003727D01*
X001628Y003766D01*
X001652Y003803D01*
X001679Y003838D01*
X001709Y003870D01*
X001742Y003900D01*
X001778Y003926D01*
X001815Y003950D01*
X001855Y003969D01*
X001896Y003986D01*
X001939Y003998D01*
X001982Y004007D01*
X002026Y004012D01*
X002070Y004013D01*
X002114Y004010D01*
X002158Y004003D01*
X002201Y003992D01*
X002243Y003978D01*
X002283Y003960D01*
X002322Y003938D01*
X002358Y003914D01*
X002392Y003886D01*
X002424Y003855D01*
X002453Y003821D01*
X002479Y003785D01*
X002501Y003747D01*
X002520Y003707D01*
X002535Y003665D01*
X002547Y003623D01*
X002555Y003579D01*
X002559Y003535D01*
X002559Y003491D01*
X002555Y003447D01*
X002547Y003403D01*
X002535Y003361D01*
X002520Y003319D01*
X002501Y003279D01*
X002479Y003241D01*
X002453Y003205D01*
X002424Y003171D01*
X002392Y003140D01*
X002358Y003112D01*
X002322Y003088D01*
X002283Y003066D01*
X002243Y003048D01*
X002201Y003034D01*
X002158Y003023D01*
X002114Y003016D01*
X002070Y003013D01*
X002026Y003014D01*
X001982Y003019D01*
X001939Y003028D01*
X001896Y003040D01*
X001855Y003057D01*
X001815Y003076D01*
X001778Y003100D01*
X001742Y003126D01*
X001709Y003156D01*
X001679Y003188D01*
X001652Y003223D01*
X001628Y003260D01*
X001607Y003299D01*
X001590Y003340D01*
X001577Y003382D01*
X001567Y003425D01*
X001561Y003469D01*
X001559Y003513D01*
D16*
X008560Y001536D02*
X008549Y001570D01*
X008549Y001569D02*
X008614Y001593D01*
X008677Y001619D01*
X008739Y001649D01*
X008799Y001683D01*
X008857Y001720D01*
X008912Y001761D01*
X008966Y001804D01*
X009016Y001851D01*
X009064Y001900D01*
X009109Y001952D01*
X009151Y002006D01*
X009190Y002063D01*
X009225Y002122D01*
X009257Y002182D01*
X009286Y002245D01*
X009311Y002309D01*
X009332Y002374D01*
X009350Y002441D01*
X009363Y002508D01*
X009373Y002576D01*
X009379Y002644D01*
X009381Y002713D01*
X009379Y002782D01*
X009373Y002850D01*
X009363Y002918D01*
X009350Y002985D01*
X009332Y003052D01*
X009311Y003117D01*
X009286Y003181D01*
X009257Y003244D01*
X009225Y003304D01*
X009190Y003363D01*
X009151Y003420D01*
X009109Y003474D01*
X009064Y003526D01*
X009016Y003575D01*
X008966Y003622D01*
X008912Y003665D01*
X008857Y003706D01*
X008799Y003743D01*
X008739Y003777D01*
X008677Y003807D01*
X008614Y003833D01*
X008549Y003857D01*
X008560Y003890D01*
X008560Y003891D01*
X008626Y003868D01*
X008689Y003841D01*
X008752Y003811D01*
X008812Y003777D01*
X008870Y003740D01*
X008927Y003700D01*
X008981Y003656D01*
X009032Y003610D01*
X009081Y003561D01*
X009127Y003509D01*
X009170Y003455D01*
X009210Y003399D01*
X009247Y003340D01*
X009280Y003279D01*
X009310Y003217D01*
X009336Y003153D01*
X009359Y003088D01*
X009378Y003021D01*
X009393Y002954D01*
X009405Y002885D01*
X009413Y002817D01*
X009417Y002748D01*
X009417Y002678D01*
X009413Y002609D01*
X009405Y002541D01*
X009393Y002472D01*
X009378Y002405D01*
X009359Y002338D01*
X009336Y002273D01*
X009310Y002209D01*
X009280Y002147D01*
X009247Y002086D01*
X009210Y002027D01*
X009170Y001971D01*
X009127Y001917D01*
X009081Y001865D01*
X009032Y001816D01*
X008981Y001770D01*
X008927Y001726D01*
X008870Y001686D01*
X008812Y001649D01*
X008752Y001615D01*
X008689Y001585D01*
X008626Y001558D01*
X008560Y001535D01*
X008559Y001538D01*
X008625Y001561D01*
X008688Y001588D01*
X008750Y001618D01*
X008811Y001652D01*
X008869Y001689D01*
X008925Y001729D01*
X008979Y001772D01*
X009030Y001818D01*
X009079Y001867D01*
X009125Y001919D01*
X009168Y001973D01*
X009207Y002029D01*
X009244Y002088D01*
X009277Y002148D01*
X009307Y002210D01*
X009333Y002274D01*
X009356Y002339D01*
X009375Y002406D01*
X009390Y002473D01*
X009402Y002541D01*
X009410Y002610D01*
X009414Y002678D01*
X009414Y002748D01*
X009410Y002816D01*
X009402Y002885D01*
X009390Y002953D01*
X009375Y003020D01*
X009356Y003087D01*
X009333Y003152D01*
X009307Y003216D01*
X009277Y003278D01*
X009244Y003338D01*
X009207Y003397D01*
X009168Y003453D01*
X009125Y003507D01*
X009079Y003559D01*
X009030Y003608D01*
X008979Y003654D01*
X008925Y003697D01*
X008869Y003737D01*
X008811Y003774D01*
X008750Y003808D01*
X008688Y003838D01*
X008625Y003865D01*
X008559Y003888D01*
X008559Y003885D01*
X008623Y003862D01*
X008687Y003835D01*
X008749Y003805D01*
X008809Y003772D01*
X008867Y003735D01*
X008923Y003695D01*
X008977Y003652D01*
X009028Y003606D01*
X009077Y003557D01*
X009122Y003505D01*
X009165Y003451D01*
X009205Y003395D01*
X009241Y003337D01*
X009275Y003277D01*
X009304Y003214D01*
X009331Y003151D01*
X009353Y003086D01*
X009372Y003020D01*
X009387Y002952D01*
X009399Y002885D01*
X009407Y002816D01*
X009411Y002747D01*
X009411Y002679D01*
X009407Y002610D01*
X009399Y002541D01*
X009387Y002474D01*
X009372Y002406D01*
X009353Y002340D01*
X009331Y002275D01*
X009304Y002212D01*
X009275Y002149D01*
X009241Y002089D01*
X009205Y002031D01*
X009165Y001975D01*
X009122Y001921D01*
X009077Y001869D01*
X009028Y001820D01*
X008977Y001774D01*
X008923Y001731D01*
X008867Y001691D01*
X008809Y001654D01*
X008749Y001621D01*
X008687Y001591D01*
X008623Y001564D01*
X008559Y001541D01*
X008558Y001544D01*
X008622Y001567D01*
X008686Y001593D01*
X008747Y001623D01*
X008807Y001657D01*
X008865Y001694D01*
X008921Y001734D01*
X008975Y001777D01*
X009026Y001822D01*
X009074Y001871D01*
X009120Y001922D01*
X009163Y001976D01*
X009202Y002032D01*
X009239Y002091D01*
X009272Y002151D01*
X009302Y002213D01*
X009328Y002276D01*
X009350Y002341D01*
X009369Y002407D01*
X009385Y002474D01*
X009396Y002542D01*
X009404Y002610D01*
X009408Y002679D01*
X009408Y002747D01*
X009404Y002816D01*
X009396Y002884D01*
X009385Y002952D01*
X009369Y003019D01*
X009350Y003085D01*
X009328Y003150D01*
X009302Y003213D01*
X009272Y003275D01*
X009239Y003335D01*
X009202Y003394D01*
X009163Y003450D01*
X009120Y003504D01*
X009074Y003555D01*
X009026Y003604D01*
X008975Y003649D01*
X008921Y003692D01*
X008865Y003732D01*
X008807Y003769D01*
X008747Y003803D01*
X008686Y003833D01*
X008622Y003859D01*
X008558Y003882D01*
X008557Y003879D01*
X008621Y003856D01*
X008684Y003830D01*
X008746Y003800D01*
X008806Y003767D01*
X008864Y003730D01*
X008920Y003690D01*
X008973Y003647D01*
X009024Y003601D01*
X009072Y003553D01*
X009118Y003502D01*
X009160Y003448D01*
X009200Y003392D01*
X009236Y003334D01*
X009269Y003274D01*
X009299Y003212D01*
X009325Y003149D01*
X009348Y003084D01*
X009366Y003018D01*
X009382Y002951D01*
X009393Y002884D01*
X009401Y002816D01*
X009405Y002747D01*
X009405Y002679D01*
X009401Y002610D01*
X009393Y002542D01*
X009382Y002475D01*
X009366Y002408D01*
X009348Y002342D01*
X009325Y002277D01*
X009299Y002214D01*
X009269Y002152D01*
X009236Y002092D01*
X009200Y002034D01*
X009160Y001978D01*
X009118Y001924D01*
X009072Y001873D01*
X009024Y001825D01*
X008973Y001779D01*
X008920Y001736D01*
X008864Y001696D01*
X008806Y001659D01*
X008746Y001626D01*
X008684Y001596D01*
X008621Y001570D01*
X008557Y001547D01*
X008556Y001549D01*
X008620Y001572D01*
X008683Y001599D01*
X008745Y001629D01*
X008804Y001662D01*
X008862Y001699D01*
X008918Y001738D01*
X008971Y001781D01*
X009022Y001827D01*
X009070Y001875D01*
X009115Y001926D01*
X009158Y001980D01*
X009197Y002036D01*
X009234Y002094D01*
X009267Y002154D01*
X009296Y002215D01*
X009322Y002278D01*
X009345Y002343D01*
X009364Y002409D01*
X009379Y002475D01*
X009390Y002543D01*
X009398Y002611D01*
X009402Y002679D01*
X009402Y002747D01*
X009398Y002815D01*
X009390Y002883D01*
X009379Y002951D01*
X009364Y003017D01*
X009345Y003083D01*
X009322Y003148D01*
X009296Y003211D01*
X009267Y003272D01*
X009234Y003332D01*
X009197Y003390D01*
X009158Y003446D01*
X009115Y003500D01*
X009070Y003551D01*
X009022Y003599D01*
X008971Y003645D01*
X008918Y003688D01*
X008862Y003727D01*
X008804Y003764D01*
X008745Y003797D01*
X008683Y003827D01*
X008620Y003854D01*
X008556Y003877D01*
X008555Y003874D01*
X008619Y003851D01*
X008682Y003824D01*
X008743Y003795D01*
X008803Y003761D01*
X008860Y003725D01*
X008916Y003685D01*
X008969Y003643D01*
X009020Y003597D01*
X009068Y003549D01*
X009113Y003498D01*
X009156Y003444D01*
X009195Y003389D01*
X009231Y003331D01*
X009264Y003271D01*
X009293Y003210D01*
X009319Y003147D01*
X009342Y003082D01*
X009361Y003017D01*
X009376Y002950D01*
X009387Y002883D01*
X009395Y002815D01*
X009399Y002747D01*
X009399Y002679D01*
X009395Y002611D01*
X009387Y002543D01*
X009376Y002476D01*
X009361Y002409D01*
X009342Y002344D01*
X009319Y002279D01*
X009293Y002216D01*
X009264Y002155D01*
X009231Y002095D01*
X009195Y002037D01*
X009156Y001982D01*
X009113Y001928D01*
X009068Y001877D01*
X009020Y001829D01*
X008969Y001783D01*
X008916Y001741D01*
X008860Y001701D01*
X008803Y001665D01*
X008743Y001631D01*
X008682Y001602D01*
X008619Y001575D01*
X008555Y001552D01*
X008554Y001555D01*
X008618Y001578D01*
X008681Y001604D01*
X008742Y001634D01*
X008801Y001667D01*
X008859Y001704D01*
X008914Y001743D01*
X008967Y001786D01*
X009018Y001831D01*
X009066Y001879D01*
X009111Y001930D01*
X009153Y001984D01*
X009192Y002039D01*
X009228Y002097D01*
X009261Y002156D01*
X009291Y002218D01*
X009317Y002281D01*
X009339Y002345D01*
X009358Y002410D01*
X009373Y002476D01*
X009384Y002543D01*
X009392Y002611D01*
X009396Y002679D01*
X009396Y002747D01*
X009392Y002815D01*
X009384Y002883D01*
X009373Y002950D01*
X009358Y003016D01*
X009339Y003081D01*
X009317Y003145D01*
X009291Y003208D01*
X009261Y003270D01*
X009228Y003329D01*
X009192Y003387D01*
X009153Y003442D01*
X009111Y003496D01*
X009066Y003547D01*
X009018Y003595D01*
X008967Y003640D01*
X008914Y003683D01*
X008859Y003722D01*
X008801Y003759D01*
X008742Y003792D01*
X008681Y003822D01*
X008618Y003848D01*
X008554Y003871D01*
X008553Y003868D01*
X008617Y003845D01*
X008680Y003819D01*
X008741Y003789D01*
X008800Y003756D01*
X008857Y003720D01*
X008912Y003681D01*
X008965Y003638D01*
X009016Y003593D01*
X009063Y003545D01*
X009109Y003494D01*
X009151Y003441D01*
X009190Y003385D01*
X009226Y003328D01*
X009259Y003268D01*
X009288Y003207D01*
X009314Y003144D01*
X009336Y003080D01*
X009355Y003015D01*
X009370Y002949D01*
X009381Y002882D01*
X009389Y002815D01*
X009393Y002747D01*
X009393Y002679D01*
X009389Y002611D01*
X009381Y002544D01*
X009370Y002477D01*
X009355Y002411D01*
X009336Y002346D01*
X009314Y002282D01*
X009288Y002219D01*
X009259Y002158D01*
X009226Y002098D01*
X009190Y002041D01*
X009151Y001985D01*
X009109Y001932D01*
X009063Y001881D01*
X009016Y001833D01*
X008965Y001788D01*
X008912Y001745D01*
X008857Y001706D01*
X008800Y001670D01*
X008741Y001637D01*
X008680Y001607D01*
X008617Y001581D01*
X008553Y001558D01*
X008552Y001561D01*
X008616Y001584D01*
X008678Y001610D01*
X008739Y001639D01*
X008798Y001672D01*
X008855Y001709D01*
X008910Y001748D01*
X008963Y001790D01*
X009014Y001836D01*
X009061Y001884D01*
X009106Y001934D01*
X009148Y001987D01*
X009187Y002042D01*
X009223Y002100D01*
X009256Y002159D01*
X009285Y002220D01*
X009311Y002283D01*
X009333Y002347D01*
X009352Y002412D01*
X009367Y002478D01*
X009378Y002544D01*
X009386Y002612D01*
X009390Y002679D01*
X009390Y002747D01*
X009386Y002814D01*
X009378Y002882D01*
X009367Y002948D01*
X009352Y003014D01*
X009333Y003079D01*
X009311Y003143D01*
X009285Y003206D01*
X009256Y003267D01*
X009223Y003326D01*
X009187Y003384D01*
X009148Y003439D01*
X009106Y003492D01*
X009061Y003542D01*
X009014Y003590D01*
X008963Y003636D01*
X008910Y003678D01*
X008855Y003717D01*
X008798Y003754D01*
X008739Y003787D01*
X008678Y003816D01*
X008616Y003842D01*
X008552Y003865D01*
X008551Y003862D01*
X008615Y003840D01*
X008677Y003814D01*
X008738Y003784D01*
X008797Y003751D01*
X008854Y003715D01*
X008909Y003676D01*
X008961Y003633D01*
X009012Y003588D01*
X009059Y003540D01*
X009104Y003490D01*
X009146Y003437D01*
X009185Y003382D01*
X009221Y003325D01*
X009253Y003266D01*
X009282Y003205D01*
X009308Y003142D01*
X009330Y003079D01*
X009349Y003014D01*
X009364Y002948D01*
X009375Y002881D01*
X009383Y002814D01*
X009387Y002747D01*
X009387Y002679D01*
X009383Y002612D01*
X009375Y002545D01*
X009364Y002478D01*
X009349Y002412D01*
X009330Y002347D01*
X009308Y002284D01*
X009282Y002221D01*
X009253Y002160D01*
X009221Y002101D01*
X009185Y002044D01*
X009146Y001989D01*
X009104Y001936D01*
X009059Y001886D01*
X009012Y001838D01*
X008961Y001793D01*
X008909Y001750D01*
X008854Y001711D01*
X008797Y001675D01*
X008738Y001642D01*
X008677Y001612D01*
X008615Y001586D01*
X008551Y001564D01*
X008550Y001567D01*
X008614Y001589D01*
X008676Y001615D01*
X008736Y001645D01*
X008795Y001677D01*
X008852Y001714D01*
X008907Y001753D01*
X008959Y001795D01*
X009009Y001840D01*
X009057Y001888D01*
X009102Y001938D01*
X009144Y001991D01*
X009182Y002046D01*
X009218Y002103D01*
X009251Y002162D01*
X009280Y002223D01*
X009305Y002285D01*
X009328Y002348D01*
X009346Y002413D01*
X009361Y002479D01*
X009372Y002545D01*
X009380Y002612D01*
X009384Y002679D01*
X009384Y002747D01*
X009380Y002814D01*
X009372Y002881D01*
X009361Y002947D01*
X009346Y003013D01*
X009328Y003078D01*
X009305Y003141D01*
X009280Y003203D01*
X009251Y003264D01*
X009218Y003323D01*
X009182Y003380D01*
X009144Y003435D01*
X009102Y003488D01*
X009057Y003538D01*
X009009Y003586D01*
X008959Y003631D01*
X008907Y003673D01*
X008852Y003712D01*
X008795Y003749D01*
X008736Y003781D01*
X008676Y003811D01*
X008614Y003837D01*
X008550Y003859D01*
X007798Y003890D02*
X007809Y003856D01*
X007809Y003857D02*
X007744Y003833D01*
X007681Y003807D01*
X007619Y003777D01*
X007559Y003743D01*
X007501Y003706D01*
X007446Y003665D01*
X007392Y003622D01*
X007342Y003575D01*
X007294Y003526D01*
X007249Y003474D01*
X007207Y003420D01*
X007168Y003363D01*
X007133Y003304D01*
X007101Y003244D01*
X007072Y003181D01*
X007047Y003117D01*
X007026Y003052D01*
X007008Y002985D01*
X006995Y002918D01*
X006985Y002850D01*
X006979Y002782D01*
X006977Y002713D01*
X006979Y002644D01*
X006985Y002576D01*
X006995Y002508D01*
X007008Y002441D01*
X007026Y002374D01*
X007047Y002309D01*
X007072Y002245D01*
X007101Y002182D01*
X007133Y002122D01*
X007168Y002063D01*
X007207Y002006D01*
X007249Y001952D01*
X007294Y001900D01*
X007342Y001851D01*
X007392Y001804D01*
X007446Y001761D01*
X007501Y001720D01*
X007559Y001683D01*
X007619Y001649D01*
X007681Y001619D01*
X007744Y001593D01*
X007809Y001569D01*
X007798Y001536D01*
X007798Y001535D01*
X007732Y001558D01*
X007669Y001585D01*
X007606Y001615D01*
X007546Y001649D01*
X007488Y001686D01*
X007431Y001726D01*
X007377Y001770D01*
X007326Y001816D01*
X007277Y001865D01*
X007231Y001917D01*
X007188Y001971D01*
X007148Y002027D01*
X007111Y002086D01*
X007078Y002147D01*
X007048Y002209D01*
X007022Y002273D01*
X006999Y002338D01*
X006980Y002405D01*
X006965Y002472D01*
X006953Y002541D01*
X006945Y002609D01*
X006941Y002678D01*
X006941Y002748D01*
X006945Y002817D01*
X006953Y002885D01*
X006965Y002954D01*
X006980Y003021D01*
X006999Y003088D01*
X007022Y003153D01*
X007048Y003217D01*
X007078Y003279D01*
X007111Y003340D01*
X007148Y003399D01*
X007188Y003455D01*
X007231Y003509D01*
X007277Y003561D01*
X007326Y003610D01*
X007377Y003656D01*
X007431Y003700D01*
X007488Y003740D01*
X007546Y003777D01*
X007606Y003811D01*
X007669Y003841D01*
X007732Y003868D01*
X007798Y003891D01*
X007799Y003888D01*
X007733Y003865D01*
X007670Y003838D01*
X007608Y003808D01*
X007547Y003774D01*
X007489Y003737D01*
X007433Y003697D01*
X007379Y003654D01*
X007328Y003608D01*
X007279Y003559D01*
X007233Y003507D01*
X007190Y003453D01*
X007151Y003397D01*
X007114Y003338D01*
X007081Y003278D01*
X007051Y003216D01*
X007025Y003152D01*
X007002Y003087D01*
X006983Y003020D01*
X006968Y002953D01*
X006956Y002885D01*
X006948Y002816D01*
X006944Y002748D01*
X006944Y002678D01*
X006948Y002610D01*
X006956Y002541D01*
X006968Y002473D01*
X006983Y002406D01*
X007002Y002339D01*
X007025Y002274D01*
X007051Y002210D01*
X007081Y002148D01*
X007114Y002088D01*
X007151Y002029D01*
X007190Y001973D01*
X007233Y001919D01*
X007279Y001867D01*
X007328Y001818D01*
X007379Y001772D01*
X007433Y001729D01*
X007489Y001689D01*
X007547Y001652D01*
X007608Y001618D01*
X007670Y001588D01*
X007733Y001561D01*
X007799Y001538D01*
X007799Y001541D01*
X007735Y001564D01*
X007671Y001591D01*
X007609Y001621D01*
X007549Y001654D01*
X007491Y001691D01*
X007435Y001731D01*
X007381Y001774D01*
X007330Y001820D01*
X007281Y001869D01*
X007236Y001921D01*
X007193Y001975D01*
X007153Y002031D01*
X007117Y002089D01*
X007083Y002149D01*
X007054Y002212D01*
X007027Y002275D01*
X007005Y002340D01*
X006986Y002406D01*
X006971Y002474D01*
X006959Y002541D01*
X006951Y002610D01*
X006947Y002679D01*
X006947Y002747D01*
X006951Y002816D01*
X006959Y002885D01*
X006971Y002952D01*
X006986Y003020D01*
X007005Y003086D01*
X007027Y003151D01*
X007054Y003214D01*
X007083Y003277D01*
X007117Y003337D01*
X007153Y003395D01*
X007193Y003451D01*
X007236Y003505D01*
X007281Y003557D01*
X007330Y003606D01*
X007381Y003652D01*
X007435Y003695D01*
X007491Y003735D01*
X007549Y003772D01*
X007609Y003805D01*
X007671Y003835D01*
X007735Y003862D01*
X007799Y003885D01*
X007800Y003882D01*
X007736Y003859D01*
X007672Y003833D01*
X007611Y003803D01*
X007551Y003769D01*
X007493Y003732D01*
X007437Y003692D01*
X007383Y003649D01*
X007332Y003604D01*
X007284Y003555D01*
X007238Y003504D01*
X007195Y003450D01*
X007156Y003394D01*
X007119Y003335D01*
X007086Y003275D01*
X007056Y003213D01*
X007030Y003150D01*
X007008Y003085D01*
X006989Y003019D01*
X006973Y002952D01*
X006962Y002884D01*
X006954Y002816D01*
X006950Y002747D01*
X006950Y002679D01*
X006954Y002610D01*
X006962Y002542D01*
X006973Y002474D01*
X006989Y002407D01*
X007008Y002341D01*
X007030Y002276D01*
X007056Y002213D01*
X007086Y002151D01*
X007119Y002091D01*
X007156Y002032D01*
X007195Y001976D01*
X007238Y001922D01*
X007284Y001871D01*
X007332Y001822D01*
X007383Y001777D01*
X007437Y001734D01*
X007493Y001694D01*
X007551Y001657D01*
X007611Y001623D01*
X007672Y001593D01*
X007736Y001567D01*
X007800Y001544D01*
X007801Y001547D01*
X007737Y001570D01*
X007674Y001596D01*
X007612Y001626D01*
X007552Y001659D01*
X007494Y001696D01*
X007438Y001736D01*
X007385Y001779D01*
X007334Y001825D01*
X007286Y001873D01*
X007240Y001924D01*
X007198Y001978D01*
X007158Y002034D01*
X007122Y002092D01*
X007089Y002152D01*
X007059Y002214D01*
X007033Y002277D01*
X007010Y002342D01*
X006992Y002408D01*
X006976Y002475D01*
X006965Y002542D01*
X006957Y002610D01*
X006953Y002679D01*
X006953Y002747D01*
X006957Y002816D01*
X006965Y002884D01*
X006976Y002951D01*
X006992Y003018D01*
X007010Y003084D01*
X007033Y003149D01*
X007059Y003212D01*
X007089Y003274D01*
X007122Y003334D01*
X007158Y003392D01*
X007198Y003448D01*
X007240Y003502D01*
X007286Y003553D01*
X007334Y003601D01*
X007385Y003647D01*
X007438Y003690D01*
X007494Y003730D01*
X007552Y003767D01*
X007612Y003800D01*
X007674Y003830D01*
X007737Y003856D01*
X007801Y003879D01*
X007802Y003877D01*
X007738Y003854D01*
X007675Y003827D01*
X007613Y003797D01*
X007554Y003764D01*
X007496Y003727D01*
X007440Y003688D01*
X007387Y003645D01*
X007336Y003599D01*
X007288Y003551D01*
X007243Y003500D01*
X007200Y003446D01*
X007161Y003390D01*
X007124Y003332D01*
X007091Y003272D01*
X007062Y003211D01*
X007036Y003148D01*
X007013Y003083D01*
X006994Y003017D01*
X006979Y002951D01*
X006968Y002883D01*
X006960Y002815D01*
X006956Y002747D01*
X006956Y002679D01*
X006960Y002611D01*
X006968Y002543D01*
X006979Y002475D01*
X006994Y002409D01*
X007013Y002343D01*
X007036Y002278D01*
X007062Y002215D01*
X007091Y002154D01*
X007124Y002094D01*
X007161Y002036D01*
X007200Y001980D01*
X007243Y001926D01*
X007288Y001875D01*
X007336Y001827D01*
X007387Y001781D01*
X007440Y001738D01*
X007496Y001699D01*
X007554Y001662D01*
X007613Y001629D01*
X007675Y001599D01*
X007738Y001572D01*
X007802Y001549D01*
X007803Y001552D01*
X007739Y001575D01*
X007676Y001602D01*
X007615Y001631D01*
X007555Y001665D01*
X007498Y001701D01*
X007442Y001741D01*
X007389Y001783D01*
X007338Y001829D01*
X007290Y001877D01*
X007245Y001928D01*
X007202Y001982D01*
X007163Y002037D01*
X007127Y002095D01*
X007094Y002155D01*
X007065Y002216D01*
X007039Y002279D01*
X007016Y002344D01*
X006997Y002409D01*
X006982Y002476D01*
X006971Y002543D01*
X006963Y002611D01*
X006959Y002679D01*
X006959Y002747D01*
X006963Y002815D01*
X006971Y002883D01*
X006982Y002950D01*
X006997Y003017D01*
X007016Y003082D01*
X007039Y003147D01*
X007065Y003210D01*
X007094Y003271D01*
X007127Y003331D01*
X007163Y003389D01*
X007202Y003444D01*
X007245Y003498D01*
X007290Y003549D01*
X007338Y003597D01*
X007389Y003643D01*
X007442Y003685D01*
X007498Y003725D01*
X007555Y003761D01*
X007615Y003795D01*
X007676Y003824D01*
X007739Y003851D01*
X007803Y003874D01*
X007804Y003871D01*
X007740Y003848D01*
X007677Y003822D01*
X007616Y003792D01*
X007557Y003759D01*
X007499Y003722D01*
X007444Y003683D01*
X007391Y003640D01*
X007340Y003595D01*
X007292Y003547D01*
X007247Y003496D01*
X007205Y003442D01*
X007166Y003387D01*
X007130Y003329D01*
X007097Y003270D01*
X007067Y003208D01*
X007041Y003145D01*
X007019Y003081D01*
X007000Y003016D01*
X006985Y002950D01*
X006974Y002883D01*
X006966Y002815D01*
X006962Y002747D01*
X006962Y002679D01*
X006966Y002611D01*
X006974Y002543D01*
X006985Y002476D01*
X007000Y002410D01*
X007019Y002345D01*
X007041Y002281D01*
X007067Y002218D01*
X007097Y002156D01*
X007130Y002097D01*
X007166Y002039D01*
X007205Y001984D01*
X007247Y001930D01*
X007292Y001879D01*
X007340Y001831D01*
X007391Y001786D01*
X007444Y001743D01*
X007499Y001704D01*
X007557Y001667D01*
X007616Y001634D01*
X007677Y001604D01*
X007740Y001578D01*
X007804Y001555D01*
X007805Y001558D01*
X007741Y001581D01*
X007678Y001607D01*
X007617Y001637D01*
X007558Y001670D01*
X007501Y001706D01*
X007446Y001745D01*
X007393Y001788D01*
X007342Y001833D01*
X007295Y001881D01*
X007249Y001932D01*
X007207Y001985D01*
X007168Y002041D01*
X007132Y002098D01*
X007099Y002158D01*
X007070Y002219D01*
X007044Y002282D01*
X007022Y002346D01*
X007003Y002411D01*
X006988Y002477D01*
X006977Y002544D01*
X006969Y002611D01*
X006965Y002679D01*
X006965Y002747D01*
X006969Y002815D01*
X006977Y002882D01*
X006988Y002949D01*
X007003Y003015D01*
X007022Y003080D01*
X007044Y003144D01*
X007070Y003207D01*
X007099Y003268D01*
X007132Y003328D01*
X007168Y003385D01*
X007207Y003441D01*
X007249Y003494D01*
X007295Y003545D01*
X007342Y003593D01*
X007393Y003638D01*
X007446Y003681D01*
X007501Y003720D01*
X007558Y003756D01*
X007617Y003789D01*
X007678Y003819D01*
X007741Y003845D01*
X007805Y003868D01*
X007806Y003865D01*
X007742Y003842D01*
X007680Y003816D01*
X007619Y003787D01*
X007560Y003754D01*
X007503Y003717D01*
X007448Y003678D01*
X007395Y003636D01*
X007344Y003590D01*
X007297Y003542D01*
X007252Y003492D01*
X007210Y003439D01*
X007171Y003384D01*
X007135Y003326D01*
X007102Y003267D01*
X007073Y003206D01*
X007047Y003143D01*
X007025Y003079D01*
X007006Y003014D01*
X006991Y002948D01*
X006980Y002882D01*
X006972Y002814D01*
X006968Y002747D01*
X006968Y002679D01*
X006972Y002612D01*
X006980Y002544D01*
X006991Y002478D01*
X007006Y002412D01*
X007025Y002347D01*
X007047Y002283D01*
X007073Y002220D01*
X007102Y002159D01*
X007135Y002100D01*
X007171Y002042D01*
X007210Y001987D01*
X007252Y001934D01*
X007297Y001884D01*
X007344Y001836D01*
X007395Y001790D01*
X007448Y001748D01*
X007503Y001709D01*
X007560Y001672D01*
X007619Y001639D01*
X007680Y001610D01*
X007742Y001584D01*
X007806Y001561D01*
X007807Y001564D01*
X007743Y001586D01*
X007681Y001612D01*
X007620Y001642D01*
X007561Y001675D01*
X007504Y001711D01*
X007449Y001750D01*
X007397Y001793D01*
X007346Y001838D01*
X007299Y001886D01*
X007254Y001936D01*
X007212Y001989D01*
X007173Y002044D01*
X007137Y002101D01*
X007105Y002160D01*
X007076Y002221D01*
X007050Y002284D01*
X007028Y002347D01*
X007009Y002412D01*
X006994Y002478D01*
X006983Y002545D01*
X006975Y002612D01*
X006971Y002679D01*
X006971Y002747D01*
X006975Y002814D01*
X006983Y002881D01*
X006994Y002948D01*
X007009Y003014D01*
X007028Y003079D01*
X007050Y003142D01*
X007076Y003205D01*
X007105Y003266D01*
X007137Y003325D01*
X007173Y003382D01*
X007212Y003437D01*
X007254Y003490D01*
X007299Y003540D01*
X007346Y003588D01*
X007397Y003633D01*
X007449Y003676D01*
X007504Y003715D01*
X007561Y003751D01*
X007620Y003784D01*
X007681Y003814D01*
X007743Y003840D01*
X007807Y003862D01*
X007808Y003859D01*
X007744Y003837D01*
X007682Y003811D01*
X007622Y003781D01*
X007563Y003749D01*
X007506Y003712D01*
X007451Y003673D01*
X007399Y003631D01*
X007349Y003586D01*
X007301Y003538D01*
X007256Y003488D01*
X007214Y003435D01*
X007176Y003380D01*
X007140Y003323D01*
X007107Y003264D01*
X007078Y003203D01*
X007053Y003141D01*
X007030Y003078D01*
X007012Y003013D01*
X006997Y002947D01*
X006986Y002881D01*
X006978Y002814D01*
X006974Y002747D01*
X006974Y002679D01*
X006978Y002612D01*
X006986Y002545D01*
X006997Y002479D01*
X007012Y002413D01*
X007030Y002348D01*
X007053Y002285D01*
X007078Y002223D01*
X007107Y002162D01*
X007140Y002103D01*
X007176Y002046D01*
X007214Y001991D01*
X007256Y001938D01*
X007301Y001888D01*
X007349Y001840D01*
X007399Y001795D01*
X007451Y001753D01*
X007506Y001714D01*
X007563Y001677D01*
X007622Y001645D01*
X007682Y001615D01*
X007744Y001589D01*
X007808Y001567D01*
M02*
