G75*
%MOIN*%
%OFA0B0*%
%FSLAX24Y24*%
%IPPOS*%
%LPD*%
%AMOC8*
5,1,8,0,0,1.08239X$1,22.5*
%
%ADD10C,0.0560*%
%ADD11C,0.0740*%
%ADD12C,0.0080*%
%ADD13C,0.0400*%
D10*
X016549Y006313D02*
X017109Y006313D01*
X017109Y007313D02*
X016549Y007313D01*
X016549Y008313D02*
X017109Y008313D01*
D11*
X016829Y009763D03*
X016829Y010763D03*
X016829Y004413D03*
X016829Y003413D03*
X016829Y002413D03*
X016829Y001413D03*
X005279Y008413D03*
X004279Y008413D03*
X004279Y009413D03*
X005279Y009413D03*
X005279Y010413D03*
X004279Y010413D03*
X004279Y011413D03*
X005279Y011413D03*
X001979Y011163D03*
X001979Y010163D03*
X001979Y009163D03*
X001979Y007273D03*
X001979Y006273D03*
D12*
X000699Y000683D02*
X000699Y012289D01*
X018729Y012289D01*
X018729Y000683D01*
X000699Y000683D01*
X000699Y000708D02*
X018729Y000708D01*
X018729Y000786D02*
X000699Y000786D01*
X000699Y000865D02*
X018729Y000865D01*
X018729Y000943D02*
X016974Y000943D01*
X016926Y000923D02*
X016731Y000923D01*
X016551Y000998D01*
X016413Y001136D01*
X016339Y001316D01*
X016339Y001511D01*
X016381Y001614D01*
X015969Y002027D01*
X015969Y007680D01*
X016062Y007773D01*
X010328Y007773D01*
X010329Y007773D02*
X015262Y007773D01*
X015395Y007773D01*
X015489Y007867D01*
X015489Y007973D01*
X015510Y007982D01*
X015600Y008072D01*
X015649Y008190D01*
X015649Y008317D01*
X015640Y008338D01*
X016621Y009319D01*
X016731Y009273D01*
X016926Y009273D01*
X017106Y009348D01*
X017244Y009486D01*
X017319Y009666D01*
X017319Y009861D01*
X017244Y010041D01*
X017106Y010179D01*
X016926Y010253D01*
X016731Y010253D01*
X016551Y010179D01*
X016413Y010041D01*
X016339Y009861D01*
X016339Y009666D01*
X016390Y009541D01*
X015414Y008564D01*
X015392Y008573D01*
X015265Y008573D01*
X015147Y008525D01*
X015057Y008435D01*
X015009Y008317D01*
X015009Y008190D01*
X015048Y008093D01*
X010329Y008093D01*
X010320Y008115D01*
X010230Y008205D01*
X010112Y008253D01*
X009985Y008253D01*
X009867Y008205D01*
X009777Y008115D01*
X009729Y007997D01*
X009729Y007870D01*
X009777Y007752D01*
X009867Y007662D01*
X009985Y007613D01*
X010112Y007613D01*
X010230Y007662D01*
X010320Y007752D01*
X010329Y007773D01*
X010262Y007694D02*
X015983Y007694D01*
X015969Y007616D02*
X010118Y007616D01*
X009979Y007616D02*
X006437Y007616D01*
X006449Y007627D02*
X007815Y008994D01*
X007867Y008942D01*
X007985Y008893D01*
X008112Y008893D01*
X008230Y008942D01*
X008320Y009032D01*
X008369Y009150D01*
X008369Y009277D01*
X008320Y009395D01*
X008261Y009453D01*
X008320Y009512D01*
X008369Y009630D01*
X008369Y009757D01*
X008320Y009875D01*
X008230Y009965D01*
X008112Y010013D01*
X007985Y010013D01*
X007867Y009965D01*
X007777Y009875D01*
X007729Y009757D01*
X007729Y009630D01*
X007737Y009608D01*
X006142Y008013D01*
X005572Y008013D01*
X005694Y008136D01*
X005769Y008316D01*
X005769Y008511D01*
X005694Y008691D01*
X005556Y008829D01*
X005376Y008903D01*
X005181Y008903D01*
X005001Y008829D01*
X004863Y008691D01*
X004789Y008511D01*
X004789Y008316D01*
X004863Y008136D01*
X004986Y008013D01*
X004572Y008013D01*
X004694Y008136D01*
X004769Y008316D01*
X004769Y008511D01*
X004694Y008691D01*
X004556Y008829D01*
X004376Y008903D01*
X004181Y008903D01*
X004001Y008829D01*
X003889Y008716D01*
X003889Y009110D01*
X004001Y008998D01*
X004181Y008923D01*
X004376Y008923D01*
X004556Y008998D01*
X004694Y009136D01*
X004769Y009316D01*
X004769Y009511D01*
X004694Y009691D01*
X004556Y009829D01*
X004376Y009903D01*
X004181Y009903D01*
X004001Y009829D01*
X003889Y009716D01*
X003889Y009867D01*
X004014Y009992D01*
X004181Y009923D01*
X004376Y009923D01*
X004556Y009998D01*
X004694Y010136D01*
X004769Y010316D01*
X004769Y010511D01*
X004694Y010691D01*
X004556Y010829D01*
X004376Y010903D01*
X004181Y010903D01*
X004001Y010829D01*
X003863Y010691D01*
X003789Y010511D01*
X003789Y010316D01*
X003817Y010248D01*
X003569Y010000D01*
X003569Y007627D01*
X003662Y007533D01*
X006355Y007533D01*
X006449Y007627D01*
X006516Y007694D02*
X009835Y007694D01*
X009769Y007773D02*
X006594Y007773D01*
X006673Y007851D02*
X009736Y007851D01*
X009729Y007930D02*
X006751Y007930D01*
X006830Y008008D02*
X009733Y008008D01*
X009766Y008087D02*
X006908Y008087D01*
X006987Y008165D02*
X009828Y008165D01*
X009962Y008244D02*
X007065Y008244D01*
X007144Y008322D02*
X015011Y008322D01*
X015009Y008244D02*
X010135Y008244D01*
X010269Y008165D02*
X015019Y008165D01*
X015329Y008253D02*
X015329Y007933D01*
X010049Y007933D01*
X008317Y009029D02*
X015878Y009029D01*
X015956Y009107D02*
X008351Y009107D01*
X008369Y009186D02*
X016035Y009186D01*
X016113Y009264D02*
X008369Y009264D01*
X008341Y009343D02*
X016192Y009343D01*
X016270Y009421D02*
X008293Y009421D01*
X008308Y009500D02*
X016349Y009500D01*
X016375Y009578D02*
X008347Y009578D01*
X008369Y009657D02*
X016342Y009657D01*
X016339Y009735D02*
X008369Y009735D01*
X008345Y009814D02*
X016339Y009814D01*
X016352Y009892D02*
X008302Y009892D01*
X008215Y009971D02*
X016384Y009971D01*
X016422Y010049D02*
X005969Y010049D01*
X005969Y009971D02*
X007883Y009971D01*
X007795Y009892D02*
X005969Y009892D01*
X005969Y009867D02*
X005969Y010253D01*
X006968Y010253D01*
X006977Y010232D01*
X007067Y010142D01*
X007185Y010093D01*
X007312Y010093D01*
X007430Y010142D01*
X007520Y010232D01*
X007569Y010350D01*
X007569Y010477D01*
X007520Y010595D01*
X007430Y010685D01*
X007312Y010733D01*
X007185Y010733D01*
X007067Y010685D01*
X006977Y010595D01*
X006968Y010573D01*
X005743Y010573D01*
X005694Y010691D01*
X005652Y010733D01*
X008088Y010733D01*
X008097Y010712D01*
X008187Y010622D01*
X008305Y010573D01*
X008432Y010573D01*
X008550Y010622D01*
X008640Y010712D01*
X008689Y010830D01*
X008689Y010957D01*
X008640Y011075D01*
X008550Y011165D01*
X008432Y011213D01*
X008305Y011213D01*
X008187Y011165D01*
X008097Y011075D01*
X008088Y011053D01*
X005612Y011053D01*
X005694Y011136D01*
X005759Y011293D01*
X005928Y011293D01*
X005937Y011272D01*
X006027Y011182D01*
X006145Y011133D01*
X006272Y011133D01*
X006390Y011182D01*
X006480Y011272D01*
X006489Y011293D01*
X016609Y011293D01*
X016609Y011202D01*
X016551Y011179D01*
X016413Y011041D01*
X016339Y010861D01*
X016339Y010666D01*
X016413Y010486D01*
X016551Y010348D01*
X016731Y010273D01*
X016926Y010273D01*
X017106Y010348D01*
X017244Y010486D01*
X017319Y010666D01*
X017319Y010861D01*
X017244Y011041D01*
X017106Y011179D01*
X016929Y011252D01*
X016929Y011520D01*
X016835Y011613D01*
X006489Y011613D01*
X006480Y011635D01*
X006390Y011725D01*
X006272Y011773D01*
X006145Y011773D01*
X006027Y011725D01*
X005937Y011635D01*
X005928Y011613D01*
X005726Y011613D01*
X005694Y011691D01*
X005556Y011829D01*
X005376Y011903D01*
X005181Y011903D01*
X005001Y011829D01*
X004863Y011691D01*
X004789Y011511D01*
X004789Y011316D01*
X004863Y011136D01*
X005001Y010998D01*
X005169Y010928D01*
X005169Y010898D01*
X005001Y010829D01*
X004863Y010691D01*
X004789Y010511D01*
X004789Y010316D01*
X004863Y010136D01*
X005001Y009998D01*
X005181Y009923D01*
X005376Y009923D01*
X005556Y009998D01*
X005649Y010090D01*
X005649Y010000D01*
X005501Y009852D01*
X005376Y009903D01*
X005181Y009903D01*
X005001Y009829D01*
X004863Y009691D01*
X004789Y009511D01*
X004789Y009316D01*
X004863Y009136D01*
X005001Y008998D01*
X005181Y008923D01*
X005376Y008923D01*
X005556Y008998D01*
X005694Y009136D01*
X005769Y009316D01*
X005769Y009511D01*
X005723Y009621D01*
X005969Y009867D01*
X005915Y009814D02*
X007752Y009814D01*
X007729Y009735D02*
X005837Y009735D01*
X005758Y009657D02*
X007729Y009657D01*
X007707Y009578D02*
X005741Y009578D01*
X005769Y009500D02*
X007629Y009500D01*
X007550Y009421D02*
X005769Y009421D01*
X005769Y009343D02*
X007472Y009343D01*
X007393Y009264D02*
X005747Y009264D01*
X005715Y009186D02*
X007315Y009186D01*
X007236Y009107D02*
X005666Y009107D01*
X005587Y009029D02*
X007158Y009029D01*
X007079Y008950D02*
X005441Y008950D01*
X005452Y008872D02*
X007001Y008872D01*
X006922Y008793D02*
X005591Y008793D01*
X005670Y008715D02*
X006844Y008715D01*
X006765Y008636D02*
X005717Y008636D01*
X005749Y008558D02*
X006687Y008558D01*
X006608Y008479D02*
X005769Y008479D01*
X005769Y008401D02*
X006530Y008401D01*
X006451Y008322D02*
X005769Y008322D01*
X005739Y008244D02*
X006373Y008244D01*
X006294Y008165D02*
X005706Y008165D01*
X005645Y008087D02*
X006216Y008087D01*
X006209Y007853D02*
X004289Y007853D01*
X004289Y008413D01*
X004279Y008413D01*
X004739Y008244D02*
X004818Y008244D01*
X004789Y008322D02*
X004769Y008322D01*
X004769Y008401D02*
X004789Y008401D01*
X004789Y008479D02*
X004769Y008479D01*
X004749Y008558D02*
X004808Y008558D01*
X004841Y008636D02*
X004717Y008636D01*
X004670Y008715D02*
X004887Y008715D01*
X004966Y008793D02*
X004591Y008793D01*
X004452Y008872D02*
X005105Y008872D01*
X005116Y008950D02*
X004441Y008950D01*
X004587Y009029D02*
X004970Y009029D01*
X004892Y009107D02*
X004666Y009107D01*
X004715Y009186D02*
X004842Y009186D01*
X004810Y009264D02*
X004747Y009264D01*
X004769Y009343D02*
X004789Y009343D01*
X004789Y009421D02*
X004769Y009421D01*
X004769Y009500D02*
X004789Y009500D01*
X004817Y009578D02*
X004741Y009578D01*
X004708Y009657D02*
X004849Y009657D01*
X004908Y009735D02*
X004649Y009735D01*
X004571Y009814D02*
X004986Y009814D01*
X005155Y009892D02*
X004402Y009892D01*
X004491Y009971D02*
X005066Y009971D01*
X004950Y010049D02*
X004608Y010049D01*
X004686Y010128D02*
X004871Y010128D01*
X004834Y010206D02*
X004723Y010206D01*
X004756Y010285D02*
X004801Y010285D01*
X004789Y010363D02*
X004769Y010363D01*
X004769Y010442D02*
X004789Y010442D01*
X004793Y010520D02*
X004765Y010520D01*
X004732Y010599D02*
X004825Y010599D01*
X004858Y010677D02*
X004700Y010677D01*
X004629Y010756D02*
X004928Y010756D01*
X005015Y010834D02*
X004542Y010834D01*
X004474Y010941D02*
X004546Y010977D01*
X004611Y011024D01*
X004668Y011081D01*
X004715Y011146D01*
X004751Y011217D01*
X004776Y011294D01*
X004789Y011373D01*
X004789Y011373D01*
X004319Y011373D01*
X004319Y011453D01*
X004789Y011453D01*
X004789Y011453D01*
X004776Y011533D01*
X004751Y011609D01*
X004715Y011681D01*
X004668Y011745D01*
X004611Y011802D01*
X004546Y011849D01*
X004474Y011886D01*
X004398Y011911D01*
X004319Y011923D01*
X004319Y011923D01*
X004319Y011453D01*
X004239Y011453D01*
X004239Y011923D01*
X004238Y011923D01*
X004159Y011911D01*
X004083Y011886D01*
X004011Y011849D01*
X003946Y011802D01*
X003890Y011745D01*
X003842Y011681D01*
X003806Y011609D01*
X003781Y011533D01*
X003769Y011453D01*
X004239Y011453D01*
X004239Y011373D01*
X004319Y011373D01*
X004319Y010903D01*
X004398Y010916D01*
X004474Y010941D01*
X004379Y010913D02*
X005169Y010913D01*
X005329Y010893D02*
X005329Y010413D01*
X005279Y010413D01*
X005732Y010599D02*
X006982Y010599D01*
X007060Y010677D02*
X005700Y010677D01*
X005809Y010413D02*
X005809Y009933D01*
X005329Y009453D01*
X005279Y009413D01*
X005402Y009892D02*
X005541Y009892D01*
X005491Y009971D02*
X005620Y009971D01*
X005608Y010049D02*
X005649Y010049D01*
X005969Y010128D02*
X007101Y010128D01*
X007003Y010206D02*
X005969Y010206D01*
X005809Y010413D02*
X007249Y010413D01*
X007542Y010285D02*
X016703Y010285D01*
X016618Y010206D02*
X007494Y010206D01*
X007396Y010128D02*
X016500Y010128D01*
X016536Y010363D02*
X007569Y010363D01*
X007569Y010442D02*
X016457Y010442D01*
X016399Y010520D02*
X007551Y010520D01*
X007516Y010599D02*
X008243Y010599D01*
X008132Y010677D02*
X007437Y010677D01*
X008095Y011070D02*
X005628Y011070D01*
X005699Y011148D02*
X006109Y011148D01*
X005982Y011227D02*
X005732Y011227D01*
X005329Y011453D02*
X005279Y011413D01*
X005329Y011453D02*
X006209Y011453D01*
X016769Y011453D01*
X016769Y010813D01*
X016829Y010763D01*
X016339Y010756D02*
X008658Y010756D01*
X008689Y010834D02*
X016339Y010834D01*
X016360Y010913D02*
X008689Y010913D01*
X008674Y010991D02*
X016393Y010991D01*
X016442Y011070D02*
X008642Y011070D01*
X008566Y011148D02*
X016521Y011148D01*
X016609Y011227D02*
X006435Y011227D01*
X006309Y011148D02*
X008171Y011148D01*
X008369Y010893D02*
X005329Y010893D01*
X005017Y010991D02*
X004566Y010991D01*
X004656Y011070D02*
X004929Y011070D01*
X004858Y011148D02*
X004716Y011148D01*
X004754Y011227D02*
X004825Y011227D01*
X004793Y011305D02*
X004778Y011305D01*
X004789Y011384D02*
X004319Y011384D01*
X004319Y011462D02*
X004239Y011462D01*
X004239Y011384D02*
X002439Y011384D01*
X002451Y011359D02*
X002415Y011431D01*
X002368Y011495D01*
X002311Y011552D01*
X002246Y011599D01*
X002174Y011636D01*
X002098Y011661D01*
X002019Y011673D01*
X002019Y011673D01*
X002019Y011203D01*
X002489Y011203D01*
X002489Y011203D01*
X002476Y011283D01*
X002451Y011359D01*
X002469Y011305D02*
X003779Y011305D01*
X003781Y011294D02*
X003769Y011373D01*
X003769Y011373D01*
X004239Y011373D01*
X004239Y010903D01*
X004238Y010903D01*
X004159Y010916D01*
X004083Y010941D01*
X004011Y010977D01*
X003946Y011024D01*
X003890Y011081D01*
X003842Y011146D01*
X003806Y011217D01*
X003781Y011294D01*
X003803Y011227D02*
X002485Y011227D01*
X002489Y011123D02*
X002019Y011123D01*
X002019Y011203D01*
X001939Y011203D01*
X001939Y011673D01*
X001938Y011673D01*
X001859Y011661D01*
X001783Y011636D01*
X001711Y011599D01*
X001646Y011552D01*
X001590Y011495D01*
X001542Y011431D01*
X001506Y011359D01*
X001481Y011283D01*
X001469Y011203D01*
X001939Y011203D01*
X001939Y011123D01*
X002019Y011123D01*
X002019Y010653D01*
X002098Y010666D01*
X002174Y010691D01*
X002246Y010727D01*
X002311Y010774D01*
X002368Y010831D01*
X002415Y010896D01*
X002451Y010967D01*
X002476Y011044D01*
X002489Y011123D01*
X002489Y011123D01*
X002480Y011070D02*
X003901Y011070D01*
X003841Y011148D02*
X002019Y011148D01*
X002049Y011133D02*
X001979Y011163D01*
X001939Y011148D02*
X000699Y011148D01*
X000699Y011070D02*
X001477Y011070D01*
X001481Y011044D02*
X001506Y010967D01*
X001542Y010896D01*
X001590Y010831D01*
X001646Y010774D01*
X001711Y010727D01*
X001783Y010691D01*
X001859Y010666D01*
X001938Y010653D01*
X001939Y010653D01*
X001939Y011123D01*
X001469Y011123D01*
X001481Y011044D01*
X001498Y010991D02*
X000699Y010991D01*
X000699Y010913D02*
X001534Y010913D01*
X001587Y010834D02*
X000699Y010834D01*
X000699Y010756D02*
X001672Y010756D01*
X001824Y010677D02*
X000699Y010677D01*
X000699Y010599D02*
X001750Y010599D01*
X001701Y010579D02*
X001563Y010441D01*
X001489Y010261D01*
X001489Y010066D01*
X001563Y009886D01*
X001701Y009748D01*
X001881Y009673D01*
X002076Y009673D01*
X002256Y009748D01*
X002394Y009886D01*
X002469Y010066D01*
X002469Y010261D01*
X002394Y010441D01*
X002256Y010579D01*
X002076Y010653D01*
X001881Y010653D01*
X001701Y010579D01*
X001643Y010520D02*
X000699Y010520D01*
X000699Y010442D02*
X001564Y010442D01*
X001531Y010363D02*
X000699Y010363D01*
X000699Y010285D02*
X001499Y010285D01*
X001489Y010206D02*
X000699Y010206D01*
X000699Y010128D02*
X001489Y010128D01*
X001495Y010049D02*
X000699Y010049D01*
X000699Y009971D02*
X001528Y009971D01*
X001560Y009892D02*
X000699Y009892D01*
X000699Y009814D02*
X001635Y009814D01*
X001731Y009735D02*
X000699Y009735D01*
X000699Y009657D02*
X003569Y009657D01*
X003569Y009735D02*
X002226Y009735D01*
X002322Y009814D02*
X003569Y009814D01*
X003569Y009892D02*
X002397Y009892D01*
X002429Y009971D02*
X003569Y009971D01*
X003618Y010049D02*
X002462Y010049D01*
X002469Y010128D02*
X003697Y010128D01*
X003775Y010206D02*
X002469Y010206D01*
X002459Y010285D02*
X003801Y010285D01*
X003789Y010363D02*
X002426Y010363D01*
X002393Y010442D02*
X003789Y010442D01*
X003793Y010520D02*
X002314Y010520D01*
X002207Y010599D02*
X003825Y010599D01*
X003858Y010677D02*
X002133Y010677D01*
X002019Y010677D02*
X001939Y010677D01*
X001939Y010756D02*
X002019Y010756D01*
X002019Y010834D02*
X001939Y010834D01*
X001939Y010913D02*
X002019Y010913D01*
X002019Y010991D02*
X001939Y010991D01*
X001939Y011070D02*
X002019Y011070D01*
X002049Y011133D02*
X002529Y010653D01*
X002529Y006813D01*
X002049Y006333D01*
X001979Y006273D01*
X002019Y006281D02*
X002490Y006281D01*
X002489Y006313D02*
X002489Y006313D01*
X002019Y006313D01*
X002019Y006233D01*
X002442Y006233D01*
X002529Y006320D01*
X002529Y007200D01*
X002622Y007293D01*
X013128Y007293D01*
X013137Y007315D01*
X013227Y007405D01*
X013345Y007453D01*
X013472Y007453D01*
X013590Y007405D01*
X013680Y007315D01*
X013729Y007197D01*
X013729Y007070D01*
X013680Y006952D01*
X013590Y006862D01*
X013472Y006813D01*
X013345Y006813D01*
X013227Y006862D01*
X013137Y006952D01*
X013128Y006973D01*
X002849Y006973D01*
X002849Y006187D01*
X002369Y005707D01*
X002275Y005613D01*
X001422Y005613D01*
X001329Y005707D01*
X001329Y006800D01*
X001552Y007023D01*
X001489Y007176D01*
X001489Y007371D01*
X001563Y007551D01*
X001701Y007689D01*
X001881Y007763D01*
X002076Y007763D01*
X002256Y007689D01*
X002394Y007551D01*
X002469Y007371D01*
X002469Y007176D01*
X002394Y006996D01*
X002256Y006858D01*
X002076Y006783D01*
X001881Y006783D01*
X001799Y006817D01*
X001649Y006667D01*
X001649Y006664D01*
X001711Y006709D01*
X001783Y006746D01*
X001859Y006771D01*
X001938Y006783D01*
X001939Y006783D01*
X001939Y006313D01*
X002019Y006313D01*
X002019Y006783D01*
X002019Y006783D01*
X002098Y006771D01*
X002174Y006746D01*
X002246Y006709D01*
X002311Y006662D01*
X002368Y006605D01*
X002415Y006541D01*
X002451Y006469D01*
X002476Y006393D01*
X002489Y006313D01*
X002481Y006360D02*
X002529Y006360D01*
X002529Y006438D02*
X002461Y006438D01*
X002427Y006517D02*
X002529Y006517D01*
X002529Y006595D02*
X002375Y006595D01*
X002295Y006674D02*
X002529Y006674D01*
X002529Y006752D02*
X002155Y006752D01*
X002191Y006831D02*
X002529Y006831D01*
X002529Y006909D02*
X002308Y006909D01*
X002386Y006988D02*
X002529Y006988D01*
X002529Y007066D02*
X002423Y007066D01*
X002456Y007145D02*
X002529Y007145D01*
X002552Y007223D02*
X002469Y007223D01*
X002469Y007302D02*
X013132Y007302D01*
X013203Y007380D02*
X002465Y007380D01*
X002432Y007459D02*
X015969Y007459D01*
X015969Y007537D02*
X006359Y007537D01*
X006289Y007693D02*
X003729Y007693D01*
X003729Y009933D01*
X004209Y010413D01*
X004279Y010413D01*
X003928Y010756D02*
X002285Y010756D01*
X002370Y010834D02*
X004015Y010834D01*
X003992Y010991D02*
X002459Y010991D01*
X002423Y010913D02*
X004178Y010913D01*
X004239Y010913D02*
X004319Y010913D01*
X004319Y010903D02*
X004319Y010903D01*
X004319Y010991D02*
X004239Y010991D01*
X004239Y011070D02*
X004319Y011070D01*
X004319Y011148D02*
X004239Y011148D01*
X004239Y011227D02*
X004319Y011227D01*
X004319Y011305D02*
X004239Y011305D01*
X004239Y011541D02*
X004319Y011541D01*
X004319Y011619D02*
X004239Y011619D01*
X004239Y011698D02*
X004319Y011698D01*
X004319Y011776D02*
X004239Y011776D01*
X004239Y011855D02*
X004319Y011855D01*
X004535Y011855D02*
X005064Y011855D01*
X004949Y011776D02*
X004637Y011776D01*
X004702Y011698D02*
X004870Y011698D01*
X004834Y011619D02*
X004746Y011619D01*
X004773Y011541D02*
X004801Y011541D01*
X004789Y011462D02*
X004787Y011462D01*
X005493Y011855D02*
X018729Y011855D01*
X018729Y011933D02*
X000699Y011933D01*
X000699Y011855D02*
X004022Y011855D01*
X003920Y011776D02*
X000699Y011776D01*
X000699Y011698D02*
X003855Y011698D01*
X003811Y011619D02*
X002207Y011619D01*
X002322Y011541D02*
X003784Y011541D01*
X003770Y011462D02*
X002392Y011462D01*
X002019Y011462D02*
X001939Y011462D01*
X001939Y011384D02*
X002019Y011384D01*
X002019Y011305D02*
X001939Y011305D01*
X001939Y011227D02*
X002019Y011227D01*
X002019Y011541D02*
X001939Y011541D01*
X001939Y011619D02*
X002019Y011619D01*
X001750Y011619D02*
X000699Y011619D01*
X000699Y011541D02*
X001635Y011541D01*
X001565Y011462D02*
X000699Y011462D01*
X000699Y011384D02*
X001519Y011384D01*
X001489Y011305D02*
X000699Y011305D01*
X000699Y011227D02*
X001472Y011227D01*
X001469Y011203D02*
X001469Y011203D01*
X001469Y011123D02*
X001469Y011123D01*
X002019Y010653D02*
X002019Y010653D01*
X002076Y009653D02*
X001881Y009653D01*
X001701Y009579D01*
X001563Y009441D01*
X001489Y009261D01*
X001489Y009066D01*
X001563Y008886D01*
X001701Y008748D01*
X001881Y008673D01*
X002076Y008673D01*
X002256Y008748D01*
X002394Y008886D01*
X002469Y009066D01*
X002469Y009261D01*
X002394Y009441D01*
X002256Y009579D01*
X002076Y009653D01*
X002256Y009578D02*
X003569Y009578D01*
X003569Y009500D02*
X002335Y009500D01*
X002402Y009421D02*
X003569Y009421D01*
X003569Y009343D02*
X002435Y009343D01*
X002467Y009264D02*
X003569Y009264D01*
X003569Y009186D02*
X002469Y009186D01*
X002469Y009107D02*
X003569Y009107D01*
X003569Y009029D02*
X002453Y009029D01*
X002421Y008950D02*
X003569Y008950D01*
X003569Y008872D02*
X002380Y008872D01*
X002302Y008793D02*
X003569Y008793D01*
X003569Y008715D02*
X002176Y008715D01*
X001781Y008715D02*
X000699Y008715D01*
X000699Y008793D02*
X001656Y008793D01*
X001577Y008872D02*
X000699Y008872D01*
X000699Y008950D02*
X001536Y008950D01*
X001504Y009029D02*
X000699Y009029D01*
X000699Y009107D02*
X001489Y009107D01*
X001489Y009186D02*
X000699Y009186D01*
X000699Y009264D02*
X001490Y009264D01*
X001523Y009343D02*
X000699Y009343D01*
X000699Y009421D02*
X001555Y009421D01*
X001622Y009500D02*
X000699Y009500D01*
X000699Y009578D02*
X001701Y009578D01*
X000699Y008636D02*
X003569Y008636D01*
X003569Y008558D02*
X000699Y008558D01*
X000699Y008479D02*
X003569Y008479D01*
X003569Y008401D02*
X000699Y008401D01*
X000699Y008322D02*
X003569Y008322D01*
X003569Y008244D02*
X000699Y008244D01*
X000699Y008165D02*
X003569Y008165D01*
X003569Y008087D02*
X000699Y008087D01*
X000699Y008008D02*
X003569Y008008D01*
X003569Y007930D02*
X000699Y007930D01*
X000699Y007851D02*
X003569Y007851D01*
X003569Y007773D02*
X000699Y007773D01*
X000699Y007694D02*
X001715Y007694D01*
X001628Y007616D02*
X000699Y007616D01*
X000699Y007537D02*
X001558Y007537D01*
X001525Y007459D02*
X000699Y007459D01*
X000699Y007380D02*
X001493Y007380D01*
X001489Y007302D02*
X000699Y007302D01*
X000699Y007223D02*
X001489Y007223D01*
X001501Y007145D02*
X000699Y007145D01*
X000699Y007066D02*
X001534Y007066D01*
X001517Y006988D02*
X000699Y006988D01*
X000699Y006909D02*
X001438Y006909D01*
X001360Y006831D02*
X000699Y006831D01*
X000699Y006752D02*
X001329Y006752D01*
X001329Y006674D02*
X000699Y006674D01*
X000699Y006595D02*
X001329Y006595D01*
X001329Y006517D02*
X000699Y006517D01*
X000699Y006438D02*
X001329Y006438D01*
X001329Y006360D02*
X000699Y006360D01*
X000699Y006281D02*
X001329Y006281D01*
X001329Y006203D02*
X000699Y006203D01*
X000699Y006124D02*
X001329Y006124D01*
X001329Y006046D02*
X000699Y006046D01*
X000699Y005967D02*
X001329Y005967D01*
X001329Y005889D02*
X000699Y005889D01*
X000699Y005810D02*
X001329Y005810D01*
X001329Y005732D02*
X000699Y005732D01*
X000699Y005653D02*
X001382Y005653D01*
X001489Y005773D02*
X001489Y006733D01*
X001969Y007213D01*
X001979Y007273D01*
X002329Y007616D02*
X003580Y007616D01*
X003569Y007694D02*
X002242Y007694D01*
X002400Y007537D02*
X003658Y007537D01*
X002849Y006909D02*
X013180Y006909D01*
X013303Y006831D02*
X002849Y006831D01*
X002849Y006752D02*
X015969Y006752D01*
X015969Y006674D02*
X002849Y006674D01*
X002849Y006595D02*
X015969Y006595D01*
X015969Y006517D02*
X002849Y006517D01*
X002849Y006438D02*
X015969Y006438D01*
X015969Y006360D02*
X002849Y006360D01*
X002849Y006281D02*
X015969Y006281D01*
X015969Y006203D02*
X002849Y006203D01*
X002786Y006124D02*
X015969Y006124D01*
X015969Y006046D02*
X002707Y006046D01*
X002629Y005967D02*
X015969Y005967D01*
X015969Y005889D02*
X002550Y005889D01*
X002472Y005810D02*
X015969Y005810D01*
X015969Y005732D02*
X002393Y005732D01*
X002315Y005653D02*
X015969Y005653D01*
X015969Y005575D02*
X000699Y005575D01*
X000699Y005496D02*
X015969Y005496D01*
X015969Y005418D02*
X000699Y005418D01*
X000699Y005339D02*
X015969Y005339D01*
X015969Y005261D02*
X000699Y005261D01*
X000699Y005182D02*
X015969Y005182D01*
X015969Y005104D02*
X000699Y005104D01*
X000699Y005025D02*
X015969Y005025D01*
X015969Y004947D02*
X000699Y004947D01*
X000699Y004868D02*
X015969Y004868D01*
X015969Y004790D02*
X000699Y004790D01*
X000699Y004711D02*
X015969Y004711D01*
X015969Y004633D02*
X000699Y004633D01*
X000699Y004554D02*
X015969Y004554D01*
X015969Y004476D02*
X000699Y004476D01*
X000699Y004397D02*
X015969Y004397D01*
X015969Y004319D02*
X000699Y004319D01*
X000699Y004240D02*
X015969Y004240D01*
X015969Y004162D02*
X000699Y004162D01*
X000699Y004083D02*
X015969Y004083D01*
X015969Y004005D02*
X000699Y004005D01*
X000699Y003926D02*
X015969Y003926D01*
X015969Y003848D02*
X000699Y003848D01*
X000699Y003769D02*
X015969Y003769D01*
X015969Y003691D02*
X000699Y003691D01*
X000699Y003612D02*
X015969Y003612D01*
X015969Y003534D02*
X000699Y003534D01*
X000699Y003455D02*
X015969Y003455D01*
X015969Y003377D02*
X000699Y003377D01*
X000699Y003298D02*
X015969Y003298D01*
X015969Y003220D02*
X000699Y003220D01*
X000699Y003141D02*
X015969Y003141D01*
X015969Y003063D02*
X000699Y003063D01*
X000699Y002984D02*
X015969Y002984D01*
X015969Y002906D02*
X000699Y002906D01*
X000699Y002827D02*
X015969Y002827D01*
X015969Y002749D02*
X000699Y002749D01*
X000699Y002670D02*
X015969Y002670D01*
X015969Y002592D02*
X000699Y002592D01*
X000699Y002513D02*
X015969Y002513D01*
X015969Y002435D02*
X000699Y002435D01*
X000699Y002356D02*
X015969Y002356D01*
X015969Y002278D02*
X000699Y002278D01*
X000699Y002199D02*
X015969Y002199D01*
X015969Y002121D02*
X000699Y002121D01*
X000699Y002042D02*
X015969Y002042D01*
X016032Y001964D02*
X000699Y001964D01*
X000699Y001885D02*
X016110Y001885D01*
X016189Y001807D02*
X000699Y001807D01*
X000699Y001728D02*
X016267Y001728D01*
X016346Y001650D02*
X000699Y001650D01*
X000699Y001571D02*
X016364Y001571D01*
X016339Y001493D02*
X000699Y001493D01*
X000699Y001414D02*
X016339Y001414D01*
X016339Y001336D02*
X000699Y001336D01*
X000699Y001257D02*
X016363Y001257D01*
X016395Y001179D02*
X000699Y001179D01*
X000699Y001100D02*
X016449Y001100D01*
X016527Y001022D02*
X000699Y001022D01*
X000699Y000943D02*
X016683Y000943D01*
X016926Y000923D02*
X017106Y000998D01*
X017244Y001136D01*
X017319Y001316D01*
X017319Y001511D01*
X017244Y001691D01*
X017106Y001829D01*
X016926Y001903D01*
X016731Y001903D01*
X016599Y001849D01*
X016289Y002160D01*
X016289Y005983D01*
X016328Y005954D01*
X016387Y005924D01*
X016450Y005904D01*
X016516Y005893D01*
X016789Y005893D01*
X016789Y006273D01*
X016869Y006273D01*
X016869Y006353D01*
X017527Y006353D01*
X017518Y006412D01*
X017498Y006474D01*
X017468Y006533D01*
X017429Y006587D01*
X017382Y006634D01*
X017329Y006672D01*
X017270Y006702D01*
X017207Y006723D01*
X017142Y006733D01*
X016869Y006733D01*
X016869Y006353D01*
X016789Y006353D01*
X016789Y006733D01*
X016516Y006733D01*
X016450Y006723D01*
X016387Y006702D01*
X016328Y006672D01*
X016289Y006643D01*
X016289Y007008D01*
X016322Y006974D01*
X016469Y006913D01*
X017188Y006913D01*
X017335Y006974D01*
X017448Y007087D01*
X017509Y007234D01*
X017509Y007393D01*
X017448Y007540D01*
X017335Y007652D01*
X017188Y007713D01*
X016469Y007713D01*
X016445Y007703D01*
X016655Y007913D01*
X017188Y007913D01*
X017335Y007974D01*
X017448Y008087D01*
X018729Y008087D01*
X018729Y008165D02*
X017480Y008165D01*
X017509Y008234D02*
X017509Y008393D01*
X017448Y008540D01*
X017335Y008652D01*
X017188Y008713D01*
X016469Y008713D01*
X016322Y008652D01*
X016209Y008540D01*
X016149Y008393D01*
X016149Y008234D01*
X016209Y008087D01*
X015606Y008087D01*
X015639Y008165D02*
X016177Y008165D01*
X016149Y008244D02*
X015649Y008244D01*
X015646Y008322D02*
X016149Y008322D01*
X016152Y008401D02*
X015702Y008401D01*
X015781Y008479D02*
X016184Y008479D01*
X016227Y008558D02*
X015859Y008558D01*
X015938Y008636D02*
X016306Y008636D01*
X016095Y008793D02*
X018729Y008793D01*
X018729Y008715D02*
X016016Y008715D01*
X016173Y008872D02*
X018729Y008872D01*
X018729Y008950D02*
X016252Y008950D01*
X016330Y009029D02*
X018729Y009029D01*
X018729Y009107D02*
X016409Y009107D01*
X016487Y009186D02*
X018729Y009186D01*
X018729Y009264D02*
X016566Y009264D01*
X017094Y009343D02*
X018729Y009343D01*
X018729Y009421D02*
X017180Y009421D01*
X017250Y009500D02*
X018729Y009500D01*
X018729Y009578D02*
X017282Y009578D01*
X017315Y009657D02*
X018729Y009657D01*
X018729Y009735D02*
X017319Y009735D01*
X017319Y009814D02*
X018729Y009814D01*
X018729Y009892D02*
X017305Y009892D01*
X017273Y009971D02*
X018729Y009971D01*
X018729Y010049D02*
X017235Y010049D01*
X017157Y010128D02*
X018729Y010128D01*
X018729Y010206D02*
X017039Y010206D01*
X016954Y010285D02*
X018729Y010285D01*
X018729Y010363D02*
X017122Y010363D01*
X017200Y010442D02*
X018729Y010442D01*
X018729Y010520D02*
X017258Y010520D01*
X017291Y010599D02*
X018729Y010599D01*
X018729Y010677D02*
X017319Y010677D01*
X017319Y010756D02*
X018729Y010756D01*
X018729Y010834D02*
X017319Y010834D01*
X017297Y010913D02*
X018729Y010913D01*
X018729Y010991D02*
X017264Y010991D01*
X017215Y011070D02*
X018729Y011070D01*
X018729Y011148D02*
X017136Y011148D01*
X016990Y011227D02*
X018729Y011227D01*
X018729Y011305D02*
X016929Y011305D01*
X016929Y011384D02*
X018729Y011384D01*
X018729Y011462D02*
X016929Y011462D01*
X016907Y011541D02*
X018729Y011541D01*
X018729Y011619D02*
X006486Y011619D01*
X006417Y011698D02*
X018729Y011698D01*
X018729Y011776D02*
X005608Y011776D01*
X005687Y011698D02*
X006001Y011698D01*
X005931Y011619D02*
X005724Y011619D01*
X003769Y011453D02*
X003769Y011453D01*
X003992Y009971D02*
X004066Y009971D01*
X004155Y009892D02*
X003914Y009892D01*
X003889Y009814D02*
X003986Y009814D01*
X003908Y009735D02*
X003889Y009735D01*
X003889Y009107D02*
X003892Y009107D01*
X003889Y009029D02*
X003970Y009029D01*
X003889Y008950D02*
X004116Y008950D01*
X004105Y008872D02*
X003889Y008872D01*
X003889Y008793D02*
X003966Y008793D01*
X004706Y008165D02*
X004851Y008165D01*
X004912Y008087D02*
X004645Y008087D01*
X006209Y007853D02*
X008049Y009693D01*
X008049Y009213D02*
X007809Y009213D01*
X006289Y007693D01*
X007222Y008401D02*
X015043Y008401D01*
X015102Y008479D02*
X007301Y008479D01*
X007379Y008558D02*
X015228Y008558D01*
X015485Y008636D02*
X007458Y008636D01*
X007536Y008715D02*
X015564Y008715D01*
X015642Y008793D02*
X007615Y008793D01*
X007693Y008872D02*
X015721Y008872D01*
X015799Y008950D02*
X008238Y008950D01*
X007859Y008950D02*
X007772Y008950D01*
X008494Y010599D02*
X016366Y010599D01*
X016339Y010677D02*
X008605Y010677D01*
X013409Y007133D02*
X002689Y007133D01*
X002689Y006253D01*
X002209Y005773D01*
X001489Y005773D01*
X001939Y006360D02*
X002019Y006360D01*
X002019Y006438D02*
X001939Y006438D01*
X001939Y006517D02*
X002019Y006517D01*
X002019Y006595D02*
X001939Y006595D01*
X001939Y006674D02*
X002019Y006674D01*
X002019Y006752D02*
X001939Y006752D01*
X001803Y006752D02*
X001734Y006752D01*
X001662Y006674D02*
X001655Y006674D01*
X000699Y012012D02*
X018729Y012012D01*
X018729Y012090D02*
X000699Y012090D01*
X000699Y012169D02*
X018729Y012169D01*
X018729Y012247D02*
X000699Y012247D01*
X013614Y007380D02*
X015969Y007380D01*
X015969Y007302D02*
X013685Y007302D01*
X013718Y007223D02*
X015969Y007223D01*
X015969Y007145D02*
X013729Y007145D01*
X013727Y007066D02*
X015969Y007066D01*
X015969Y006988D02*
X013695Y006988D01*
X013637Y006909D02*
X015969Y006909D01*
X015969Y006831D02*
X013515Y006831D01*
X015473Y007851D02*
X016140Y007851D01*
X016062Y007773D02*
X016293Y008004D01*
X016209Y008087D01*
X016288Y008008D02*
X015536Y008008D01*
X015489Y007930D02*
X016219Y007930D01*
X016514Y007773D02*
X018729Y007773D01*
X018729Y007851D02*
X016593Y007851D01*
X016829Y008313D02*
X016129Y007613D01*
X016129Y002093D01*
X016769Y001453D01*
X016829Y001413D01*
X017209Y001100D02*
X018729Y001100D01*
X018729Y001022D02*
X017130Y001022D01*
X017262Y001179D02*
X018729Y001179D01*
X018729Y001257D02*
X017294Y001257D01*
X017319Y001336D02*
X018729Y001336D01*
X018729Y001414D02*
X017319Y001414D01*
X017319Y001493D02*
X018729Y001493D01*
X018729Y001571D02*
X017293Y001571D01*
X017261Y001650D02*
X018729Y001650D01*
X018729Y001728D02*
X017207Y001728D01*
X017128Y001807D02*
X018729Y001807D01*
X018729Y001885D02*
X016969Y001885D01*
X016926Y001923D02*
X017106Y001998D01*
X017244Y002136D01*
X017319Y002316D01*
X017319Y002511D01*
X017244Y002691D01*
X017106Y002829D01*
X016926Y002903D01*
X016731Y002903D01*
X016551Y002829D01*
X016413Y002691D01*
X016339Y002511D01*
X016339Y002316D01*
X016413Y002136D01*
X016551Y001998D01*
X016731Y001923D01*
X016926Y001923D01*
X017024Y001964D02*
X018729Y001964D01*
X018729Y002042D02*
X017151Y002042D01*
X017229Y002121D02*
X018729Y002121D01*
X018729Y002199D02*
X017270Y002199D01*
X017303Y002278D02*
X018729Y002278D01*
X018729Y002356D02*
X017319Y002356D01*
X017319Y002435D02*
X018729Y002435D01*
X018729Y002513D02*
X017318Y002513D01*
X017285Y002592D02*
X018729Y002592D01*
X018729Y002670D02*
X017252Y002670D01*
X017186Y002749D02*
X018729Y002749D01*
X018729Y002827D02*
X017107Y002827D01*
X017073Y002984D02*
X018729Y002984D01*
X018729Y002906D02*
X016289Y002906D01*
X016289Y002984D02*
X016584Y002984D01*
X016551Y002998D02*
X016731Y002923D01*
X016926Y002923D01*
X017106Y002998D01*
X017244Y003136D01*
X017319Y003316D01*
X017319Y003511D01*
X017244Y003691D01*
X017106Y003829D01*
X016926Y003903D01*
X016731Y003903D01*
X016551Y003829D01*
X016413Y003691D01*
X016339Y003511D01*
X016339Y003316D01*
X016413Y003136D01*
X016551Y002998D01*
X016486Y003063D02*
X016289Y003063D01*
X016289Y003141D02*
X016411Y003141D01*
X016378Y003220D02*
X016289Y003220D01*
X016289Y003298D02*
X016346Y003298D01*
X016339Y003377D02*
X016289Y003377D01*
X016289Y003455D02*
X016339Y003455D01*
X016348Y003534D02*
X016289Y003534D01*
X016289Y003612D02*
X016381Y003612D01*
X016413Y003691D02*
X016289Y003691D01*
X016289Y003769D02*
X016492Y003769D01*
X016597Y003848D02*
X016289Y003848D01*
X016289Y003926D02*
X016677Y003926D01*
X016709Y003916D02*
X016788Y003903D01*
X016789Y003903D01*
X016789Y004373D01*
X016869Y004373D01*
X016869Y004453D01*
X017339Y004453D01*
X017339Y004453D01*
X017326Y004533D01*
X017301Y004609D01*
X017265Y004681D01*
X017218Y004745D01*
X017161Y004802D01*
X017096Y004849D01*
X017024Y004886D01*
X016948Y004911D01*
X016869Y004923D01*
X016869Y004923D01*
X016869Y004453D01*
X016789Y004453D01*
X016789Y004923D01*
X016788Y004923D01*
X016709Y004911D01*
X016633Y004886D01*
X016561Y004849D01*
X016496Y004802D01*
X016440Y004745D01*
X016392Y004681D01*
X016356Y004609D01*
X016331Y004533D01*
X016319Y004453D01*
X016789Y004453D01*
X016789Y004373D01*
X016319Y004373D01*
X016331Y004294D01*
X016356Y004217D01*
X016392Y004146D01*
X016440Y004081D01*
X016496Y004024D01*
X016561Y003977D01*
X016633Y003941D01*
X016709Y003916D01*
X016789Y003926D02*
X016869Y003926D01*
X016869Y003903D02*
X016948Y003916D01*
X017024Y003941D01*
X017096Y003977D01*
X017161Y004024D01*
X017218Y004081D01*
X017265Y004146D01*
X017301Y004217D01*
X017326Y004294D01*
X017339Y004373D01*
X017339Y004373D01*
X016869Y004373D01*
X016869Y003903D01*
X016869Y003903D01*
X016869Y004005D02*
X016789Y004005D01*
X016789Y004083D02*
X016869Y004083D01*
X016869Y004162D02*
X016789Y004162D01*
X016789Y004240D02*
X016869Y004240D01*
X016869Y004319D02*
X016789Y004319D01*
X016789Y004397D02*
X016289Y004397D01*
X016319Y004373D02*
X016319Y004373D01*
X016327Y004319D02*
X016289Y004319D01*
X016289Y004240D02*
X016349Y004240D01*
X016384Y004162D02*
X016289Y004162D01*
X016289Y004083D02*
X016438Y004083D01*
X016523Y004005D02*
X016289Y004005D01*
X016869Y004397D02*
X018729Y004397D01*
X018729Y004319D02*
X017330Y004319D01*
X017309Y004240D02*
X018729Y004240D01*
X018729Y004162D02*
X017273Y004162D01*
X017219Y004083D02*
X018729Y004083D01*
X018729Y004005D02*
X017134Y004005D01*
X016980Y003926D02*
X018729Y003926D01*
X018729Y003848D02*
X017060Y003848D01*
X017165Y003769D02*
X018729Y003769D01*
X018729Y003691D02*
X017244Y003691D01*
X017277Y003612D02*
X018729Y003612D01*
X018729Y003534D02*
X017309Y003534D01*
X017319Y003455D02*
X018729Y003455D01*
X018729Y003377D02*
X017319Y003377D01*
X017311Y003298D02*
X018729Y003298D01*
X018729Y003220D02*
X017279Y003220D01*
X017246Y003141D02*
X018729Y003141D01*
X018729Y003063D02*
X017171Y003063D01*
X016550Y002827D02*
X016289Y002827D01*
X016289Y002749D02*
X016471Y002749D01*
X016405Y002670D02*
X016289Y002670D01*
X016289Y002592D02*
X016372Y002592D01*
X016340Y002513D02*
X016289Y002513D01*
X016289Y002435D02*
X016339Y002435D01*
X016339Y002356D02*
X016289Y002356D01*
X016289Y002278D02*
X016354Y002278D01*
X016387Y002199D02*
X016289Y002199D01*
X016327Y002121D02*
X016428Y002121D01*
X016406Y002042D02*
X016507Y002042D01*
X016484Y001964D02*
X016633Y001964D01*
X016688Y001885D02*
X016563Y001885D01*
X016319Y004453D02*
X016319Y004453D01*
X016322Y004476D02*
X016289Y004476D01*
X016289Y004554D02*
X016338Y004554D01*
X016368Y004633D02*
X016289Y004633D01*
X016289Y004711D02*
X016415Y004711D01*
X016484Y004790D02*
X016289Y004790D01*
X016289Y004868D02*
X016598Y004868D01*
X016789Y004868D02*
X016869Y004868D01*
X016869Y004790D02*
X016789Y004790D01*
X016789Y004711D02*
X016869Y004711D01*
X016869Y004633D02*
X016789Y004633D01*
X016789Y004554D02*
X016869Y004554D01*
X016869Y004476D02*
X016789Y004476D01*
X017173Y004790D02*
X018729Y004790D01*
X018729Y004868D02*
X017059Y004868D01*
X017242Y004711D02*
X018729Y004711D01*
X018729Y004633D02*
X017289Y004633D01*
X017319Y004554D02*
X018729Y004554D01*
X018729Y004476D02*
X017335Y004476D01*
X016289Y004947D02*
X018729Y004947D01*
X018729Y005025D02*
X016289Y005025D01*
X016289Y005104D02*
X018729Y005104D01*
X018729Y005182D02*
X016289Y005182D01*
X016289Y005261D02*
X018729Y005261D01*
X018729Y005339D02*
X016289Y005339D01*
X016289Y005418D02*
X018729Y005418D01*
X018729Y005496D02*
X016289Y005496D01*
X016289Y005575D02*
X018729Y005575D01*
X018729Y005653D02*
X016289Y005653D01*
X016289Y005732D02*
X018729Y005732D01*
X018729Y005810D02*
X016289Y005810D01*
X016289Y005889D02*
X018729Y005889D01*
X018729Y005967D02*
X017347Y005967D01*
X017329Y005954D02*
X017382Y005993D01*
X017429Y006040D01*
X017468Y006093D01*
X017498Y006152D01*
X017518Y006215D01*
X017527Y006273D01*
X016869Y006273D01*
X016869Y005893D01*
X017142Y005893D01*
X017207Y005904D01*
X017270Y005924D01*
X017329Y005954D01*
X017433Y006046D02*
X018729Y006046D01*
X018729Y006124D02*
X017484Y006124D01*
X017514Y006203D02*
X018729Y006203D01*
X018729Y006281D02*
X016869Y006281D01*
X016869Y006203D02*
X016789Y006203D01*
X016789Y006124D02*
X016869Y006124D01*
X016869Y006046D02*
X016789Y006046D01*
X016789Y005967D02*
X016869Y005967D01*
X016869Y006360D02*
X016789Y006360D01*
X016789Y006438D02*
X016869Y006438D01*
X016869Y006517D02*
X016789Y006517D01*
X016789Y006595D02*
X016869Y006595D01*
X016869Y006674D02*
X016789Y006674D01*
X016331Y006674D02*
X016289Y006674D01*
X016289Y006752D02*
X018729Y006752D01*
X018729Y006674D02*
X017326Y006674D01*
X017420Y006595D02*
X018729Y006595D01*
X018729Y006517D02*
X017476Y006517D01*
X017510Y006438D02*
X018729Y006438D01*
X018729Y006360D02*
X017526Y006360D01*
X017349Y006988D02*
X018729Y006988D01*
X018729Y007066D02*
X017427Y007066D01*
X017472Y007145D02*
X018729Y007145D01*
X018729Y007223D02*
X017504Y007223D01*
X017509Y007302D02*
X018729Y007302D01*
X018729Y007380D02*
X017509Y007380D01*
X017481Y007459D02*
X018729Y007459D01*
X018729Y007537D02*
X017449Y007537D01*
X017372Y007616D02*
X018729Y007616D01*
X018729Y007694D02*
X017234Y007694D01*
X017228Y007930D02*
X018729Y007930D01*
X018729Y008008D02*
X017369Y008008D01*
X017448Y008087D02*
X017509Y008234D01*
X017509Y008244D02*
X018729Y008244D01*
X018729Y008322D02*
X017509Y008322D01*
X017505Y008401D02*
X018729Y008401D01*
X018729Y008479D02*
X017473Y008479D01*
X017430Y008558D02*
X018729Y008558D01*
X018729Y008636D02*
X017351Y008636D01*
X016769Y009693D02*
X016829Y009763D01*
X016769Y009693D02*
X015329Y008253D01*
X016289Y006988D02*
X016308Y006988D01*
X016289Y006909D02*
X018729Y006909D01*
X018729Y006831D02*
X016289Y006831D01*
X016289Y005967D02*
X016310Y005967D01*
D13*
X013409Y007133D03*
X015329Y008253D03*
X010049Y007933D03*
X008049Y009213D03*
X008049Y009693D03*
X007249Y010413D03*
X008369Y010893D03*
X006209Y011453D03*
M02*
