G75*
%MOIN*%
%OFA0B0*%
%FSLAX24Y24*%
%IPPOS*%
%LPD*%
%AMOC8*
5,1,8,0,0,1.08239X$1,22.5*
%
%ADD10R,0.0374X0.0846*%
%ADD11R,0.1280X0.0846*%
%ADD12R,0.0276X0.0354*%
%ADD13R,0.0354X0.0276*%
%ADD14R,0.0580X0.0200*%
%ADD15R,0.0200X0.0580*%
%ADD16R,0.0551X0.1181*%
%ADD17R,0.0300X0.0600*%
D10*
X012173Y007822D03*
X013079Y007822D03*
X013984Y007822D03*
D11*
X013079Y010105D03*
D12*
X012754Y011463D03*
X012243Y011463D03*
X009434Y011463D03*
X008923Y011463D03*
X012813Y006513D03*
X013324Y006513D03*
X008944Y005853D03*
X008433Y005853D03*
X008433Y004973D03*
X008944Y004973D03*
X005534Y004843D03*
X005023Y004843D03*
X005023Y003713D03*
X005534Y003713D03*
X005534Y002463D03*
X005023Y002463D03*
X005023Y006223D03*
X005534Y006223D03*
D13*
X015179Y007047D03*
X015179Y007559D03*
X015179Y008957D03*
X015179Y009469D03*
X015179Y010617D03*
X015179Y011129D03*
D14*
X010649Y009763D03*
X010649Y009453D03*
X010649Y009133D03*
X010649Y008823D03*
X010649Y008503D03*
X010649Y008193D03*
X010649Y007873D03*
X010649Y007563D03*
X007409Y007563D03*
X007409Y007873D03*
X007409Y008193D03*
X007409Y008503D03*
X007409Y008823D03*
X007409Y009133D03*
X007409Y009453D03*
X007409Y009763D03*
D15*
X007929Y010283D03*
X008239Y010283D03*
X008559Y010283D03*
X008869Y010283D03*
X009189Y010283D03*
X009499Y010283D03*
X009819Y010283D03*
X010129Y010283D03*
X010129Y007043D03*
X009819Y007043D03*
X009499Y007043D03*
X009189Y007043D03*
X008869Y007043D03*
X008559Y007043D03*
X008239Y007043D03*
X007929Y007043D03*
D16*
X008179Y003658D03*
X008179Y001768D03*
D17*
X001309Y002413D03*
X002809Y002413D03*
X002809Y004613D03*
X001309Y004613D03*
M02*
